<svg xmlns="http://www.w3.org/2000/svg" xmlns:xlink="http://www.w3.org/1999/xlink" viewBox="0 0 393.84 634.67"><defs><style>.cls-1{fill:url(#Degradado_sin_nombre_3);}.cls-2,.cls-4{fill:none;stroke-miterlimit:10;}.cls-2{stroke:#fff;stroke-width:0.6px;}.cls-3{fill-rule:evenodd;}.cls-4{stroke:#000;}</style><linearGradient id="Degradado_sin_nombre_3" x1="427.91" y1="203.1" x2="-60.44" y2="485.05" gradientUnits="userSpaceOnUse"><stop offset="0" stop-color="#eec639"/><stop offset="1" stop-color="#9097f9"/></linearGradient></defs><g id="Capa_2" data-name="Capa 2"><g id="Capa_1-2" data-name="Capa 1"><path class="cls-1" d="M196.92,0h0C88.16,0,0,88.16,0,196.92V589.74H393.84V196.92C393.84,88.16,305.67,0,196.92,0Z"/><path d="M64.43,231.69v-.24a.87.87,0,0,0,.87-.87V212.7a.82.82,0,0,0-.27-.63.84.84,0,0,0-.6-.24v-.24H75.05v1h-.24a.81.81,0,0,0-.81-.81H67.52a.85.85,0,0,0-.87.87v8.94a1.17,1.17,0,0,0,1.14,1.17h3.15a1.17,1.17,0,0,0,1.17-1.17h.24v2.55h-.24A1.17,1.17,0,0,0,70.94,223H67.79a1.17,1.17,0,0,0-1.14,1.17v6.39a.85.85,0,0,0,.87.87H74a.81.81,0,0,0,.81-.81v0h.24v1.08Z"/><path d="M78,230.07V213.21a1.38,1.38,0,0,0-1.41-1.38v-.24h2.79l5.85,18.33a.17.17,0,0,0,.33-.06V213.21a1.38,1.38,0,0,0-1.38-1.38v-.24h3v.24a1.38,1.38,0,0,0-1.41,1.38v16.86a1.4,1.4,0,0,0,1.41,1.38v.24H84.35l-5.82-18.33a.19.19,0,0,0-.36.06v16.65a1.4,1.4,0,0,0,1.41,1.38v.24h-3v-.24A1.4,1.4,0,0,0,78,230.07Z"/><path d="M98.6,230.07V213.21a1.38,1.38,0,0,0-1.41-1.38v-.24H100l5.85,18.33a.17.17,0,0,0,.33-.06V213.21a1.38,1.38,0,0,0-1.38-1.38v-.24h3v.24a1.38,1.38,0,0,0-1.41,1.38v16.86a1.4,1.4,0,0,0,1.41,1.38v.24H105l-5.82-18.33a.19.19,0,0,0-.36.06v16.65a1.4,1.4,0,0,0,1.41,1.38v.24h-3v-.24A1.4,1.4,0,0,0,98.6,230.07Z"/><path d="M109.31,211.59h3v.24a.84.84,0,0,0-.81.87v17.94a.77.77,0,0,0,.81.81v.24h-3v-.24a.87.87,0,0,0,.87-.87V212.7a.82.82,0,0,0-.27-.63.84.84,0,0,0-.6-.24Z"/><path d="M115.52,230.07V213.21a1.38,1.38,0,0,0-1.41-1.38v-.24h2.79l5.85,18.33a.17.17,0,0,0,.33-.06V213.21a1.38,1.38,0,0,0-1.38-1.38v-.24h3v.24a1.38,1.38,0,0,0-1.41,1.38v16.86a1.4,1.4,0,0,0,1.41,1.38v.24h-2.82l-5.82-18.33a.19.19,0,0,0-.36.06v16.65a1.4,1.4,0,0,0,1.41,1.38v.24h-3v-.24A1.4,1.4,0,0,0,115.52,230.07Z"/><path d="M136.76,211.11h.33v1.83h-.24A.92.92,0,0,0,136,212l-.15,0h-.42a8.17,8.17,0,0,0-5.94,2.37c-.12.09-.21.21-.33.3a8.49,8.49,0,0,0-2.07,6.15V221a11.46,11.46,0,0,0,10.35,10.35,7.08,7.08,0,0,0,1.38,0c4.62-.33,8-4.41,8.25-9a3.15,3.15,0,0,0-.33-2,2.5,2.5,0,0,0-2.49-1.17,2.55,2.55,0,0,0-2,1.86c-.12.45-.12.9-.21,1.35a2.54,2.54,0,0,1-1.11,1.5,7.39,7.39,0,0,0-.81.51,1.93,1.93,0,0,0-.57,1.38h-.24v-3h.24a.91.91,0,0,0,.81.93,1.21,1.21,0,0,0,1.08-.54,2.88,2.88,0,0,0,.42-1.2,8.11,8.11,0,0,1,.24-1.23,2.71,2.71,0,0,1,5.07-.09,4.16,4.16,0,0,1,.15,2.1,10.57,10.57,0,1,1-10.53-11.67Z"/><path d="M152.3,211.59v.21a.85.85,0,0,0-.78.87v14.19a5,5,0,0,0,4.74,5.1h.3a6.16,6.16,0,0,0,6.15-6.18V213.36a1.55,1.55,0,0,0-1.56-1.56v-.21h3v.21a1.24,1.24,0,0,0-1.23,1.23v12.75a6.36,6.36,0,1,1-12.72,0V212.67a.86.86,0,0,0-.27-.6.76.76,0,0,0-.6-.27v-.21Z"/><path d="M167.27,230.07V213.21a1.38,1.38,0,0,0-1.41-1.38v-.24h2.79l5.85,18.33a.17.17,0,0,0,.33-.06V213.21a1.38,1.38,0,0,0-1.38-1.38v-.24h3v.24a1.38,1.38,0,0,0-1.41,1.38v16.86a1.4,1.4,0,0,0,1.41,1.38v.24h-2.82l-5.82-18.33a.19.19,0,0,0-.36.06v16.65a1.4,1.4,0,0,0,1.41,1.38v.24h-3v-.24A1.4,1.4,0,0,0,167.27,230.07Z"/><path d="M177.56,231.45a1.66,1.66,0,0,0,1.55-1.11l5.34-15.24a.73.73,0,0,0-.68-1l.89-2.52h3v.24h-.39l6.58,19a.85.85,0,0,0,.8.57v.24h-2.55v-.24a.39.39,0,0,0,.37-.51l-1.87-5.4a.29.29,0,0,0-.54,0,2.76,2.76,0,0,1-3.05,1.38,2.79,2.79,0,0,1-2.13-2.76,2.54,2.54,0,0,0-2.16-2.43.33.33,0,0,0-.39.24l-2.94,8.43a.81.81,0,0,0,.75,1.08v.24h-2.55Zm5.3-10a2.78,2.78,0,0,1,2.2,2.73,2.45,2.45,0,0,0,2.51,2.52,2.56,2.56,0,0,0,2.55-2.37,1.57,1.57,0,0,0-.05-.3l-4-11.58a.23.23,0,0,0-.45,0l-3,8.55A.32.32,0,0,0,182.86,221.49Z"/><path d="M213,211.59a5.74,5.74,0,0,1,5.76,5.67,5.84,5.84,0,0,1-5.88,5.85H211a5.49,5.49,0,0,0-4.65,2.58,1.89,1.89,0,0,0-.27,1v4a.77.77,0,0,0,.81.81v.24h-3v-.24a.88.88,0,0,0,.88-.87V212.7a.83.83,0,0,0-.28-.63.8.8,0,0,0-.6-.24v-.24Zm-6.9,1.11v11.55a.5.5,0,0,0,.48.51.62.62,0,0,0,.36-.15,5.67,5.67,0,0,1,4.08-1.74h2a4.65,4.65,0,0,0,1.35-.18,5.74,5.74,0,0,0,2.94-5.34c0-2.52-1.23-4.65-3-5.37a4.69,4.69,0,0,0-1.32-.15h-6.09A.84.84,0,0,0,206.08,212.7Z"/><path d="M215.93,231.45a1.68,1.68,0,0,0,1.56-1.11l5.33-15.24a.73.73,0,0,0-.68-1l.89-2.52h3v.24h-.4l6.58,19a.85.85,0,0,0,.8.57v.24h-2.54v-.24a.38.38,0,0,0,.35-.51l-1.85-5.4a.29.29,0,0,0-.54,0,2.76,2.76,0,0,1-5.19-1.38,2.54,2.54,0,0,0-2.16-2.43.33.33,0,0,0-.39.24l-2.94,8.43a.81.81,0,0,0,.75,1.08v.24h-2.55Zm5.31-10a2.78,2.78,0,0,1,2.19,2.73,2.45,2.45,0,0,0,2.52,2.52,2.55,2.55,0,0,0,2.54-2.37,1.57,1.57,0,0,0-.05-.3l-4-11.58a.24.24,0,0,0-.46,0L221,221A.32.32,0,0,0,221.24,221.49Z"/><path d="M234.25,211.83v-.24h9.12a5.74,5.74,0,0,1,5.76,5.67,5.68,5.68,0,0,1-2.91,5,.19.19,0,0,0,.09.36,9.07,9.07,0,0,1,7.59,7.5,1.55,1.55,0,0,0,1.53,1.29v.24h-3v-.24a1.24,1.24,0,0,0,1.23-1.47,8.8,8.8,0,0,0-8.43-7.17,1.32,1.32,0,0,0-.3.06,5.93,5.93,0,0,1-1.65.24h-1.86a5.52,5.52,0,0,0-4.65,2.58,2,2,0,0,0-.27,1v4a.77.77,0,0,0,.81.81v.24h-3v-.24a.86.86,0,0,0,.87-.87V212.7a.84.84,0,0,0-.26-.63A.88.88,0,0,0,234.25,211.83Zm2.22.87v11.55a.5.5,0,0,0,.48.51.65.65,0,0,0,.37-.15,5.63,5.63,0,0,1,4.07-1.74h2a4.18,4.18,0,0,0,1.62-.27,5.91,5.91,0,0,0,2.67-5.25c0-2.52-1.23-4.65-3-5.37a4.69,4.69,0,0,0-1.32-.15h-6.09A.84.84,0,0,0,236.47,212.7Z"/><path d="M253.24,211.59h20.1v1h-.24a.81.81,0,0,0-.84-.81h-6.48a.87.87,0,0,0-.87.87v8.94a1.19,1.19,0,0,0,1.17,1.17h3.15a1.19,1.19,0,0,0,1.17-1.17h.21v2.55h-.21a1.19,1.19,0,0,0-1.17-1.17h-3.15a1.19,1.19,0,0,0-1.17,1.17v6.39a.87.87,0,0,0,.87.87h6.48a.81.81,0,0,0,.84-.81v0h.24v1.08H262.72v-.24a.87.87,0,0,0,.87-.87V212.7a.82.82,0,0,0-.27-.63.84.84,0,0,0-.6-.24h-2.67a.86.86,0,0,0-.81.87v17.94a.72.72,0,0,0,.24.57.77.77,0,0,0,.57.24v.24h-3v-.24a.87.87,0,0,0,.86-.87V212.7a.83.83,0,0,0-.86-.87h-2.71a.81.81,0,0,0-.83.84h-.25Z"/><path d="M67.79,256.38v11.31H66.47V256.86l-2,2.31v-.48l2-2.31Z"/><path d="M72.92,256.38v11.31H71.6V256.86l-2,2.31v-.48l2-2.31Z"/><path d="M76.46,258.33l.3-.3a5.92,5.92,0,0,1,8.46,8.28l-.3.3a5.92,5.92,0,0,1-4.08,1.62,5.91,5.91,0,0,1-4.38-9.9Zm-.78,3.51a6.37,6.37,0,0,0,1.83,3.66L84,259a6.31,6.31,0,0,0-4.26-1.83,4.09,4.09,0,0,0-2.85,1l-.27.27A4.18,4.18,0,0,0,75.68,261.84Zm2,3.81a6.31,6.31,0,0,0,4.26,1.83,4.23,4.23,0,0,0,2.85-1.05l.27-.27a4.22,4.22,0,0,0,1-3.36,6.37,6.37,0,0,0-1.83-3.66Z"/><path d="M88.55,267.69l5.7-4.68a3.61,3.61,0,0,0,1.29-2.76,3.36,3.36,0,0,0-3.27-3.39,3.08,3.08,0,0,0-2.19.87v0l-.18-.15a4.16,4.16,0,0,1,2.94-1.23,4,4,0,0,1,4,3.87,3.82,3.82,0,0,1-1.38,2.94l-5.19,4.26h6.45v.24Z"/><path d="M98.81,261v-.12a4.65,4.65,0,0,1,4.59-4.5,4.48,4.48,0,0,1,3.33,1.35,4.55,4.55,0,0,1,1.38,3.06v.33a4.69,4.69,0,0,1-2.76,4.14,6,6,0,1,1-6.09,10l.93-1a6.39,6.39,0,0,0,4.38,1.89,4.17,4.17,0,0,0,2.88-1,2.83,2.83,0,0,0,.3-.3,4.37,4.37,0,0,0,1-3.39,6.89,6.89,0,0,0-5.25-5.64v-1.05a4.8,4.8,0,0,0,.63.15,2.75,2.75,0,0,0,3.27-3.24c0-.12,0-.18,0-.27a5.69,5.69,0,0,0-4.5-4.32,2.86,2.86,0,0,0-3.27,3.39s.12.45.12.51Z"/><path d="M114.68,256.38v11.31h-1.32V256.86l-2,2.31v-.48l2-2.31Z"/><path d="M143,256.92v1.41H118.19v-1.41Z"/><path d="M146.57,267.69v-.24a.87.87,0,0,0,.87-.87V248.7a.87.87,0,0,0-.87-.87v-.24H157a5.74,5.74,0,0,1,5.3,7.89.59.59,0,0,0,.45.81A5.69,5.69,0,0,1,166,258a5.52,5.52,0,0,1,1.65,4.05,5.78,5.78,0,0,1-5.76,5.64Zm2.19-19.05v12.75a.35.35,0,0,0,.63.18,5.71,5.71,0,0,1,4.89-2.73H157c2.91,0,4.25-2.94,4.25-5.52a5.87,5.87,0,0,0-2.46-5.07,2.58,2.58,0,0,0-1-.39,7.06,7.06,0,0,0-.75-.06l-7.35,0A.83.83,0,0,0,148.76,248.64Zm0,15.93v2.07a.83.83,0,0,0,.84.81h12.29a3.08,3.08,0,0,0,1.65-.33,6.48,6.48,0,0,0,.12-10.26,2.7,2.7,0,0,0-1.38-.39.85.85,0,0,0-.81.36,5.72,5.72,0,0,1-4.52,2.22h-2.67A5.52,5.52,0,0,0,148.76,264.57Z"/><path d="M172.57,250.26a10.53,10.53,0,0,1,7.47-3.09,10.42,10.42,0,0,1,7.23,2.88s.81-.69.87-.75a11,11,0,0,1,4.92-2c.15,0,1.8-.18,1.8-.12V249h-.24a.89.89,0,0,0-.84-.9l-.57-.06a8.39,8.39,0,0,0-5.76,2.19l.06.06a10.59,10.59,0,0,1,.81,14,11.2,11.2,0,0,0,6.87,3.12.66.66,0,0,1,.24,0,9.5,9.5,0,0,0,3.54-.54c3.63-1.38,5.91-5.34,5.91-9.15a2.49,2.49,0,0,0-4.71-1.14.11.11,0,0,0,0,.09,3.84,3.84,0,0,0-.27,1.44,2.81,2.81,0,0,1-.63,1.35,3.2,3.2,0,0,1-1.08.81,1.89,1.89,0,0,0-.87,1.59h-.24v-3h.24a1,1,0,0,0,1.38.87,2.67,2.67,0,0,0,1-1.68,6.43,6.43,0,0,1,.21-1.29A2.74,2.74,0,0,1,202,255a1.46,1.46,0,0,1,.36,0h.21a2.78,2.78,0,0,1,2.49,2.46,7.5,7.5,0,0,1-.09,1.83,11,11,0,0,1-2.31,5.16c-.09.09-.15.18-.21.24l0,0a7.4,7.4,0,0,1-.84.84l-.12.12c-.21.15-.39.33-.6.48a10.57,10.57,0,0,1-13.35-.54l-.27-.21a10.42,10.42,0,0,1-7.23,2.88,10.56,10.56,0,0,1-7.47-18Zm1.12,13.83a11,11,0,0,0,7.67,3.33,8.25,8.25,0,0,0,5.76-2.19,10.36,10.36,0,0,1-2.28-3.27,10.72,10.72,0,0,1,1.29-10.65.41.41,0,0,0,.09-.12A10.9,10.9,0,0,0,178.7,248a8.36,8.36,0,0,0-6,2.37C169.22,253.92,169.64,260.07,173.69,264.09Zm11.18-7a11.22,11.22,0,0,0,3.27,7c2.61-3.6,2-9.06-1.74-12.72A8.5,8.5,0,0,0,184.87,257Z"/><path d="M210.61,250.17a10.61,10.61,0,1,1,0,15A10.58,10.58,0,0,1,210.61,250.17ZM211.73,264a11,11,0,0,0,7.7,3.33,8.25,8.25,0,0,0,6-2.4c3.51-3.51,3.09-9.66-.93-13.68a11,11,0,0,0-7.68-3.33,8.33,8.33,0,0,0-6,2.4C207.26,253.89,207.68,260,211.73,264Z"/><path d="M237.53,247.59v1.08h-.25a.82.82,0,0,0-.83-.84h-2.71a.85.85,0,0,0-.8.87v17.94a.72.72,0,0,0,.24.57.73.73,0,0,0,.56.24v.24h-3v-.24a.86.86,0,0,0,.86-.87V248.7a.83.83,0,0,0-.86-.87H228a.81.81,0,0,0-.84.84h-.24v-1.08Z"/><path d="M256.61,267.68H254l-2.61-6.93h-8.89l-2.62,6.93h-1.66l7.9-19.16h2.6ZM251.06,260l-4.14-11-4.16,11Z"/><path d="M67.85,286.2a10.57,10.57,0,0,1,7.35-3.12h.24v1.83H75.2a1,1,0,0,0-.9-1H74a8.31,8.31,0,0,0-6,2.4l-.3.3A8.42,8.42,0,0,0,65.66,293,11.46,11.46,0,0,0,76,303.33a8.43,8.43,0,0,0,6.48-2.22,2.83,2.83,0,0,0,.3-.3A7.86,7.86,0,0,0,85,294.63v0a1,1,0,0,0-1-.93v-.24h1.86v.24a10.55,10.55,0,0,1-3.12,7.47A10.56,10.56,0,1,1,67.85,286.2Z"/><path d="M91.43,286.17a10.61,10.61,0,1,1,0,15A10.56,10.56,0,0,1,91.43,286.17ZM92.54,300a11,11,0,0,0,7.71,3.33,8.27,8.27,0,0,0,6-2.4c3.51-3.51,3.09-9.66-.93-13.68A11,11,0,0,0,97.61,284a8.33,8.33,0,0,0-6,2.4C88.07,289.89,88.49,296,92.54,300Z"/><path d="M111.59,303.69v-.24a.87.87,0,0,0,.87-.87V284.7a.93.93,0,0,0-.87-.87v-.24h3.06v.24a.87.87,0,0,0-.87.87v17.88a.87.87,0,0,0,.87.87h6.48a.81.81,0,0,0,.84-.81v0h.24v1.08Z"/><path d="M122.9,286.17a10.61,10.61,0,1,1,0,15A10.56,10.56,0,0,1,122.9,286.17ZM124,300a11,11,0,0,0,7.71,3.33,8.27,8.27,0,0,0,6-2.4c3.51-3.51,3.09-9.66-.93-13.68a11,11,0,0,0-7.68-3.33,8.33,8.33,0,0,0-6,2.4C119.54,289.89,120,296,124,300Z"/><path d="M142.55,303.45a1.22,1.22,0,0,0,1.17-.87L148,286.89a1.3,1.3,0,0,0,0-.15.65.65,0,0,0-.63-.63l.69-2.52h2.34v.24h-.3l3,11.19a.25.25,0,0,0,.48,0l2.22-8.13a1.3,1.3,0,0,0,0-.15.65.65,0,0,0-.63-.63l.72-2.52h9.36a5.75,5.75,0,0,1,5.73,5.73,5.89,5.89,0,0,1-.42,2.16.59.59,0,0,0,.45.81,5.69,5.69,0,0,1,3.3,1.71,5.52,5.52,0,0,1,1.65,4.05,5.78,5.78,0,0,1-5.76,5.64h-8.55v-.24a.33.33,0,0,0,.33-.42l-4.92-18.27a.26.26,0,0,0-.51,0l-3,11a2.27,2.27,0,0,0,0,.9L155.3,303a.61.61,0,0,0,.6.45v.24h-2v-.24a.33.33,0,0,0,.33-.42l-4.92-18.27a.26.26,0,0,0-.51,0l-4.89,17.85a.38.38,0,0,0,0,.18.67.67,0,0,0,.69.66v.24h-2Zm15.54-19.05,2.79,10.2a.52.52,0,0,0,.6.36,4.83,4.83,0,0,1,1.17-.12h2.67c2.91,0,4.26-2.94,4.26-5.52a5.91,5.91,0,0,0-2.46-5.07,2.62,2.62,0,0,0-1.05-.39,6.53,6.53,0,0,0-.75,0h-6.81A.43.43,0,0,0,158.09,284.4Zm3.09,11.37,1.95,7.23a.61.61,0,0,0,.6.45h6.54a7.37,7.37,0,0,0,.84-.06,3.21,3.21,0,0,0,.81-.27,5.87,5.87,0,0,0,2.57-5.19c0-2.13-1.25-5.46-3.83-5.46a.89.89,0,0,0-.81.33,5.68,5.68,0,0,1-4.53,2.25h-2.67a4.42,4.42,0,0,0-1.08.12A.51.51,0,0,0,161.18,295.77Z"/><path d="M177.26,283.59h3v.24a.84.84,0,0,0-.81.87v17.94a.77.77,0,0,0,.81.81v.24h-3v-.24a.87.87,0,0,0,.87-.87V284.7a.82.82,0,0,0-.27-.63.84.84,0,0,0-.6-.24Z"/><path d="M181.55,303.45a1.68,1.68,0,0,0,1.56-1.11l5.34-15.24a.74.74,0,0,0-.69-1l.9-2.52h3v.24h-.38l6.57,19.05a.85.85,0,0,0,.8.57v.24h-2.54v-.24a.39.39,0,0,0,.36-.51l-1.86-5.4a.29.29,0,0,0-.54,0,2.76,2.76,0,0,1-5.19-1.38,2.54,2.54,0,0,0-2.16-2.43.33.33,0,0,0-.39.24l-2.94,8.43a.81.81,0,0,0,.75,1.08v.24h-2.55Zm5.31-10a2.78,2.78,0,0,1,2.19,2.73,2.46,2.46,0,0,0,2.52,2.52,2.55,2.55,0,0,0,2.54-2.37,1.57,1.57,0,0,0-.05-.3l-4-11.58a.24.24,0,0,0-.46,0l-3,8.55A.32.32,0,0,0,186.86,293.49Z"/><path d="M71.35,348.22h1.41a4.29,4.29,0,0,1-4.22,3.47,4.35,4.35,0,0,1-1.8-.4l-.27-.13-.18-.12a1.19,1.19,0,0,1-.23-.16,4.28,4.28,0,0,1,4.61-7.19h0a.1.1,0,0,1,0,0,4.3,4.3,0,0,1,2.05,3H65.67a3.19,3.19,0,0,0,1,3.82l.06,0a2.44,2.44,0,0,0,.28.14,2.58,2.58,0,0,0,2-.06,4.32,4.32,0,0,0,2.09-1.87A4,4,0,0,0,71.35,348.22Zm-5.48-1.91h5.77a2.68,2.68,0,0,0-1.16-2.11l-.06,0-.06,0-.22-.11a2.25,2.25,0,0,0-.9-.17,3,3,0,0,0-1.11.22A4.28,4.28,0,0,0,66.05,346,2.91,2.91,0,0,0,65.87,346.31Z"/><path d="M74.31,351.69V342.9h1.18v1.49a4,4,0,0,1,2.84-1.32,4.12,4.12,0,0,1,3.87,3.87c0,2.16.07,4.75.07,4.75H81.15v-4.05c0-2.09-1-4-2.86-4s-2.82,1.69-2.82,4.12v3.91Z"/><path d="M84,351.69V342.9h1.18v1.49A4,4,0,0,1,88,343.07a4.13,4.13,0,0,1,3.87,3.87c0,2.16.06,4.75.06,4.75H90.82v-4.05c0-2.09-1-4-2.86-4s-2.82,1.69-2.82,4.12v3.91Z"/><path d="M93.5,340.57a.75.75,0,1,1,.75.76A.76.76,0,0,1,93.5,340.57Zm.16,11.12v-8.8h1.18v8.8Z"/><path d="M96.79,351.69V342.9H98v1.49a3.92,3.92,0,0,1,2.84-1.32,4.12,4.12,0,0,1,3.87,3.87c0,2.16.07,4.75.07,4.75h-1.13v-4.05c0-2.09-1-4-2.85-4S98,345.35,98,347.78v3.91Z"/><path d="M113.53,353c.09,2-3.35,3.2-5.43,2.39a1.44,1.44,0,0,1-.41-.15,1.21,1.21,0,0,1-.2-.09c-2.68-1.33-1.8-4.1,1.2-4.43-2.52-.26-3.2-2-1.89-2.58a3.51,3.51,0,0,1,4.75-4.82s0,0,.07,0h0a3.31,3.31,0,0,1,1.52-.51c.07.26.13.51.18.77a0,0,0,0,1,0,0,3.53,3.53,0,0,0-1.13.19,3.5,3.5,0,0,1-3.88,5.72,1.51,1.51,0,0,1-.22-.11.49.49,0,0,1-.15-.1.76.76,0,0,1-.19-.12,3.36,3.36,0,0,1-.82-.82.55.55,0,0,0-.39.48c0,1.31,2.78,1.35,3.76,1.53a7.16,7.16,0,0,1,1.09.26h0l.17.06h0l0,0A2.62,2.62,0,0,1,113.53,353Zm-2.1-2a2.68,2.68,0,0,0-.89-.2h-.21a3.38,3.38,0,0,0-1,.14c-1.92.38-3.56,3-1.35,4l.05,0,.25.08a3.76,3.76,0,0,0,3.64-1.18A1.72,1.72,0,0,0,111.43,351.06Zm-3.2-2.06.06,0,.22.11a2.82,2.82,0,0,0,3.19-1.33,3.45,3.45,0,0,0,.36-.65,3,3,0,0,0-.11-2.84,1.84,1.84,0,0,0-.52-.52l-.06,0h0l-.07,0h0l-.17-.09C108.28,342.6,105.84,347.51,108.23,349Z"/><path d="M122.72,342.9v8.79h-1.18V350.2a3.92,3.92,0,0,1-2.84,1.32,3.81,3.81,0,0,1-3.87-3.87c0-2.16-.07-4.75-.07-4.75h1.13V347c0,2.09.8,4,2.85,4,1.84,0,2.82-1.68,2.82-4.11V342.9Z"/><path d="M124.64,351.69V342.9h1.19v1.49a3.92,3.92,0,0,1,2.84-1.32,4.13,4.13,0,0,1,3.87,3.87c0,2.16.06,4.75.06,4.75h-1.12v-4.05c0-2.09-1-4-2.86-4s-2.82,1.69-2.82,4.12v3.91Z"/><path d="M142.59,342.89v8.8h-1.15v-1.51a4.25,4.25,0,0,1-5,1.05l-.26-.13A1.86,1.86,0,0,1,136,351a1.19,1.19,0,0,1-.23-.16,4.27,4.27,0,0,1,2.49-7.76,4.1,4.1,0,0,1,2.12.57h0l0,0a4.45,4.45,0,0,1,1,.85v-1.64Zm-2.37,1.26-.06,0-.06,0-.21-.11a2.87,2.87,0,0,0-1-.17,3,3,0,0,0-1.11.22,4.26,4.26,0,0,0-2.09,1.88c-1,1.76-.75,3.82.57,4.64l.06,0,.27.14a2.81,2.81,0,0,0,2.09-.06,4.35,4.35,0,0,0,2.08-1.87C141.81,347,141.55,345,140.22,344.15Z"/><path d="M153.35,347.08a4.38,4.38,0,0,1-4.38,4.37,4.2,4.2,0,0,1-1.84-.41l-.28-.14a.63.63,0,0,1-.18-.12,1,1,0,0,1-.24-.15,4.45,4.45,0,0,1-.72-.64v5.5h-1.19V342.63h1.19v1.53a4.33,4.33,0,0,1,3.26-1.47,4.42,4.42,0,0,1,2.17.58h0a.1.1,0,0,1,.05,0A4.36,4.36,0,0,1,153.35,347.08Zm-2.4-3.27a.18.18,0,0,1-.07-.05l-.06,0-.22-.1a2.21,2.21,0,0,0-.91-.18,2.9,2.9,0,0,0-1.14.23,4.38,4.38,0,0,0-2.13,1.92c-1,1.79-.77,3.89.58,4.74l.06,0,.29.14a2.68,2.68,0,0,0,2-.06,4.35,4.35,0,0,0,2.13-1.91C152.56,346.75,152.3,344.65,151,343.81Z"/><path d="M163.19,342.89v8.8H162v-1.51a4.27,4.27,0,0,1-3.23,1.46,4.2,4.2,0,0,1-1.8-.41,1.66,1.66,0,0,1-.27-.13l-.18-.11a1.67,1.67,0,0,1-.24-.16,4.28,4.28,0,0,1,2.49-7.76,4.16,4.16,0,0,1,2.13.57h0s0,0,0,0a4.5,4.5,0,0,1,1,.85v-1.64Zm-2.37,1.26-.06,0-.06,0-.22-.11a2.83,2.83,0,0,0-1-.17,3,3,0,0,0-1.11.22,4.28,4.28,0,0,0-2.08,1.88c-1,1.76-.76,3.82.57,4.64l.06,0,.27.14a2.79,2.79,0,0,0,2.08-.06,4.26,4.26,0,0,0,2.08-1.87C162.4,347,162.14,345,160.82,344.15Z"/><path d="M171.92,343.9l-.79.8a2.79,2.79,0,0,0-2.65-1l-.07,0h-.06l-.24.08a2.24,2.24,0,0,0-.4.22s-1.26.54-1.44,3.36v4.28h-1.16V342.9h1.16v1.49l.07-.08a4.19,4.19,0,0,1,1.91-1.09s0,0,0,0h.06A4.24,4.24,0,0,1,171.92,343.9Z"/><path d="M179.83,350.63a3.13,3.13,0,0,1-2.43,1.06c-2.87,0-3.89-3-3.89-5.05v-2.87h-.93v-.46h.93v-3.76h1.23v3.76h2.58v.46h-2.58v3.28c0,1.42.46,4.05,2.62,4.05a2.11,2.11,0,0,0,1.82-1C179.39,350.3,179.61,350.46,179.83,350.63Z"/><path d="M187.32,348.22h1.42a4.29,4.29,0,0,1-6,3.07l-.27-.13-.18-.12a1.25,1.25,0,0,1-.24-.16,4.28,4.28,0,0,1,4.62-7.19h0l.05,0a4.3,4.3,0,0,1,2.05,3h-7.12a3.2,3.2,0,0,0,.94,3.82l.07,0a2.29,2.29,0,0,0,.27.14,2.61,2.61,0,0,0,2-.06,4.37,4.37,0,0,0,2.09-1.87A5.11,5.11,0,0,0,187.32,348.22Zm-5.48-1.91h5.78a2.68,2.68,0,0,0-1.16-2.11l-.07,0,0,0-.22-.11a2.25,2.25,0,0,0-.9-.17,3,3,0,0,0-1.11.22A4.3,4.3,0,0,0,182,346C182,346.08,181.89,346.19,181.84,346.31Z"/><path d="M198.66,347.32a4.37,4.37,0,0,1-6.22,4l-.27-.14A1,1,0,0,1,192,351a1.11,1.11,0,0,1-.24-.16,4.32,4.32,0,0,1-1.83-3.54,4.38,4.38,0,0,1,4.37-4.38,4.32,4.32,0,0,1,2.17.58h0a.1.1,0,0,1,.05,0A4.34,4.34,0,0,1,198.66,347.32Zm-2.41-3.26a.41.41,0,0,0-.11-.07l-.23-.12a2.53,2.53,0,0,0-.91-.17,3.13,3.13,0,0,0-1.14.23,4.31,4.31,0,0,0-2.12,1.92c-1.05,1.79-.77,3.89.58,4.73l.06,0a1.47,1.47,0,0,0,.28.14,2.66,2.66,0,0,0,2.05-.06,4.33,4.33,0,0,0,2.12-1.91C197.87,347,197.61,344.9,196.25,344.06Z"/><path d="M200.21,351.69V342.9h1.18v1.49a3.92,3.92,0,0,1,2.84-1.32,4.12,4.12,0,0,1,3.87,3.87c0,2.16.07,4.75.07,4.75H207v-4.05c0-2.09-1-4-2.85-4s-2.83,1.69-2.83,4.12v3.91Z"/><path d="M209.88,351.69V339.55h1.18v12.14Z"/><path d="M212.84,340.57a.75.75,0,1,1,.75.76A.76.76,0,0,1,212.84,340.57Zm.16,11.12v-8.8h1.18v8.8Z"/><path d="M216.13,351.69V342.9h1.18v1.49a3.92,3.92,0,0,1,2.84-1.32,4.12,4.12,0,0,1,3.87,3.87c0,2.16.07,4.75.07,4.75H223v-4.05c0-2.09-1-4-2.85-4s-2.82,1.69-2.82,4.12v3.91Z"/><path d="M232.51,348.22h1.41a4.29,4.29,0,0,1-4.22,3.47,4.35,4.35,0,0,1-1.8-.4l-.27-.13-.18-.12a1.19,1.19,0,0,1-.23-.16,4.28,4.28,0,0,1,4.61-7.19h0a.1.1,0,0,1,.05,0,4.3,4.3,0,0,1,2,3h-7.12a3.19,3.19,0,0,0,.95,3.82l.06,0a2.44,2.44,0,0,0,.28.14,2.58,2.58,0,0,0,2-.06,4.32,4.32,0,0,0,2.09-1.87A4,4,0,0,0,232.51,348.22ZM227,346.31h5.77a2.68,2.68,0,0,0-1.16-2.11l-.06,0-.06,0-.22-.11a2.25,2.25,0,0,0-.9-.17,3,3,0,0,0-1.11.22,4.28,4.28,0,0,0-2.08,1.88A2.91,2.91,0,0,0,227,346.31Z"/><path d="M245.74,349.07a4,4,0,0,1-3,1.57,4.25,4.25,0,0,1-1.81-.41l-.26-.13a1.86,1.86,0,0,1-.19-.11,1.88,1.88,0,0,1-.23-.16,4.28,4.28,0,0,1,2.49-7.77,4.2,4.2,0,0,1,2.12.57h0l0,0a4.21,4.21,0,0,1,1,.85v-1.64h1.15s-.42,5.34-.44,7.25c0,1,0,1.61.42,1.69a1.94,1.94,0,0,0,1.88-1,7.41,7.41,0,0,0,1-6.24,6.45,6.45,0,0,0-3.62-3.95,6.56,6.56,0,0,0-5.33.11c-3.18,1.48-5.73,5.9-4.3,9.88a6.35,6.35,0,0,0,4,4,7.23,7.23,0,0,0,6.34-1l.1-.07.41.4-.14.1a8.08,8.08,0,0,1-7.12,1.24,6.93,6.93,0,0,1-4.61-4.26c-1.44-4,.78-8.76,5.06-10.79a7.37,7.37,0,0,1,6-.24,7,7,0,0,1,3,10.71,4,4,0,0,1-3,2h0a1.17,1.17,0,0,1-1.06-1.17A8.35,8.35,0,0,1,245.74,349.07Zm-1.05-5.92-.05,0-.06,0-.22-.11a2.59,2.59,0,0,0-1-.17,3,3,0,0,0-1.11.22,4.26,4.26,0,0,0-2.09,1.88c-1,1.75-.75,3.82.57,4.64l.06,0,.27.15a2.83,2.83,0,0,0,2.08-.06,4.24,4.24,0,0,0,2.08-1.88C246.28,346,246,344,244.69,343.15Z"/><path d="M260,353c.08,2-3.35,3.2-5.44,2.39a1.49,1.49,0,0,1-.4-.15,1.33,1.33,0,0,1-.21-.09c-2.67-1.33-1.8-4.1,1.2-4.43-2.51-.26-3.2-2-1.89-2.58a3.51,3.51,0,0,1,4.75-4.82s.05,0,.08,0h0a3.23,3.23,0,0,1,1.51-.51c.07.26.13.51.18.77a0,0,0,0,1,0,0,3.42,3.42,0,0,0-1.12.19,3.51,3.51,0,0,1-3.89,5.72,2.26,2.26,0,0,1-.22-.11.65.65,0,0,1-.15-.1,1,1,0,0,1-.19-.12,3.36,3.36,0,0,1-.82-.82.56.56,0,0,0-.39.48c0,1.31,2.79,1.35,3.76,1.53a6.54,6.54,0,0,1,1.09.26h0a1.15,1.15,0,0,1,.17.06h0l0,0A2.65,2.65,0,0,1,260,353Zm-2.11-2a2.63,2.63,0,0,0-.89-.2h-.21a3.48,3.48,0,0,0-1,.14c-1.91.38-3.56,3-1.35,4l.06,0,.24.08a3.77,3.77,0,0,0,3.65-1.18A1.72,1.72,0,0,0,257.84,351.06ZM254.65,349l0,0,.22.11a2.82,2.82,0,0,0,3.19-1.33,3.38,3.38,0,0,0,.25-3.49,1.8,1.8,0,0,0-.51-.52l-.06,0h0l-.07,0h0l-.18-.09C254.7,342.6,252.25,347.51,254.65,349Z"/><path d="M275.09,347.61v4.08h-1s0-2.34,0-3.89-.48-4.14-2.64-4.14-2.63,2.63-2.63,4,0,4,0,4h-1V347.8a5.24,5.24,0,0,0,0-.67c-.13-1.52-.74-3.47-2.61-3.47-2,0-2.56,2.31-2.61,3.77a2.72,2.72,0,0,0,0,.28c0,1.43,0,4,0,4h-1.18v-8.8h1.18v1.48a3.22,3.22,0,0,1,2.65-1.3,3.27,3.27,0,0,1,3.11,2.12,3.43,3.43,0,0,1,3.17-2.12C274,343.07,275.09,345.4,275.09,347.61Z"/><path d="M285.13,342.89v8.8H284v-1.51a4.27,4.27,0,0,1-3.22,1.46,4.22,4.22,0,0,1-1.81-.41l-.26-.13a3,3,0,0,1-.42-.27,4.27,4.27,0,0,1,2.49-7.76,4.13,4.13,0,0,1,2.12.57h0a.1.1,0,0,1,.05,0,4.45,4.45,0,0,1,1,.85v-1.64Zm-2.37,1.26-.06,0-.06,0-.21-.11a2.93,2.93,0,0,0-1-.17,3,3,0,0,0-1.11.22,4.28,4.28,0,0,0-2.08,1.88c-1,1.76-.76,3.82.57,4.64l.06,0,.27.14a2.78,2.78,0,0,0,2.08-.06,4.32,4.32,0,0,0,2.09-1.87C284.34,347,284.08,345,282.76,344.15Z"/><path d="M286.9,340.57a.76.76,0,1,1,.76.76A.76.76,0,0,1,286.9,340.57Zm.16,11.12v-8.8h1.19v8.8Z"/><path d="M290.19,351.69V339.55h1.18v12.14Z"/><path d="M292.91,350.94a.75.75,0,0,1,1.5,0,.75.75,0,0,1-1.5,0Z"/><path d="M302.66,348.22h1.41a4.31,4.31,0,0,1-4.22,3.47,4.06,4.06,0,0,1-1.8-.41,1.66,1.66,0,0,1-.27-.13.87.87,0,0,1-.18-.11,1.25,1.25,0,0,1-.24-.16,4.24,4.24,0,0,1-1.79-3.48,4.28,4.28,0,0,1,4.28-4.28,4.14,4.14,0,0,1,2.13.57h0l.05,0a4.27,4.27,0,0,1,2.05,3H303a2.8,2.8,0,0,0-1.18-2.57h0l-.12-.07s0,0,.05,0l0,0,0,0-.05,0-.22-.11a2.25,2.25,0,0,0-.9-.17,3,3,0,0,0-1.11.22,4.33,4.33,0,0,0-2.08,1.88c-1,1.76-.76,3.81.57,4.64l.06,0,.27.14a2.65,2.65,0,0,0,2-.06,4.32,4.32,0,0,0,2.09-1.87A6,6,0,0,0,302.66,348.22Z"/><path d="M314,347.32a4.37,4.37,0,0,1-6.22,4l-.27-.14a1,1,0,0,1-.19-.12,1.11,1.11,0,0,1-.24-.16,4.32,4.32,0,0,1-1.83-3.54,4.38,4.38,0,0,1,4.37-4.38,4.32,4.32,0,0,1,2.17.58h0a.1.1,0,0,1,.05,0A4.34,4.34,0,0,1,314,347.32Zm-2.41-3.26a.41.41,0,0,0-.11-.07l-.23-.12a2.53,2.53,0,0,0-.91-.17,3.13,3.13,0,0,0-1.14.23,4.31,4.31,0,0,0-2.12,1.92c-1.05,1.79-.77,3.89.58,4.73l.06,0a1.47,1.47,0,0,0,.28.14,2.66,2.66,0,0,0,2.05-.06,4.33,4.33,0,0,0,2.12-1.91C313.2,347,312.94,344.9,311.58,344.06Z"/><path d="M329.24,347.61v4.08h-1s0-2.34,0-3.89-.48-4.14-2.64-4.14-2.63,2.63-2.63,4,0,4,0,4h-1V347.8a5.24,5.24,0,0,0,0-.67c-.12-1.52-.74-3.47-2.61-3.47-2,0-2.55,2.31-2.61,3.77a2.72,2.72,0,0,0,0,.28c0,1.43,0,4,0,4h-1.18v-8.8h1.18v1.48a3.22,3.22,0,0,1,2.65-1.3,3.28,3.28,0,0,1,3.12,2.12,3.41,3.41,0,0,1,3.16-2.12C328.17,343.07,329.24,345.4,329.24,347.61Z"/><path d="M63.92,354.06v-.95H330.28v.95Z"/><path d="M64.16,392.79h3V393a.84.84,0,0,0-.81.87v17.94a.77.77,0,0,0,.81.81v.24h-3v-.24a.87.87,0,0,0,.87-.87V393.9a.82.82,0,0,0-.27-.63.84.84,0,0,0-.6-.24Z"/><path d="M69.05,401.58h2.19v0A.5.5,0,0,0,72,402a3.64,3.64,0,0,1,5.4,3.18v.09l-.06,6.48a.91.91,0,0,0,.87.87v.24H77.3l-2.19,0v-.24a.86.86,0,0,0,.87-.84v-.54l0-6.42v-1.14c0-1.35-1.23-1.86-2.37-1.86s-2.28.54-2.34,1.83v1.05l0,7.08a.87.87,0,0,0,.87.87v.24H69.05v-.27a.93.93,0,0,0,.87-.84v-9.09a.91.91,0,0,0-.87-.87Z"/><path d="M80.12,404.07A4,4,0,0,1,84,401.61h0a4.71,4.71,0,0,1,1.47.21.41.41,0,0,0,.51-.51,4.5,4.5,0,0,1-.15-1.11,3.86,3.86,0,0,1,7.68-.54,4.65,4.65,0,0,1-.06,1.44.56.56,0,0,0,.54.69h.84V402H94a1,1,0,0,0-1,1v.9l0,7a2.43,2.43,0,0,0,2.52,2.31,2.32,2.32,0,0,0,2.34-2.34v0h.21V411a2.67,2.67,0,0,1-2.64,2.46H94.16a3,3,0,0,1-.51-.06,2.61,2.61,0,0,1-2-2.55v-.06l0-7.29v-.27a3.74,3.74,0,0,0,1.68-3.06,3.65,3.65,0,0,0-7.26-.45A3.53,3.53,0,0,0,87.32,403a3.41,3.41,0,0,0,.69.45v.78h-.27a3.55,3.55,0,0,0-3.09-2.31A3.94,3.94,0,0,0,81.32,403a2.6,2.6,0,0,0-.66,1.23,2.23,2.23,0,0,0,.18,1.32,3.25,3.25,0,0,0,2,1.59c.48.15,1,.33,1.47.48l1.08.42a3.47,3.47,0,0,1,1.68,1.47,2.51,2.51,0,0,1,.21,1.74,3,3,0,0,1-2.4,2,4.92,4.92,0,0,1-.69.06h-.09a3.29,3.29,0,0,1-2.37-.9.31.31,0,0,0-.54.21v.6H81v-2.52h.24a2.19,2.19,0,0,0,.69,1.56c.09.09.21.15.3.24a3.18,3.18,0,0,0,1.92.6h.09a2.83,2.83,0,0,0,1.92-.78,1.68,1.68,0,0,0,.21-2.4,2.44,2.44,0,0,0-1-.72l-.69-.21c-.24-.09-.48-.15-.72-.24-.48-.18-1-.33-1.44-.54a4.24,4.24,0,0,1-1.14-.63l-.33-.3a3.36,3.36,0,0,1-.9-1.5A2.87,2.87,0,0,1,80.12,404.07Z"/><path d="M98.72,409.05a3.64,3.64,0,0,1,1.8-2.43,24.07,24.07,0,0,0,4.41-3.15.56.56,0,0,0,.06-.75,2.08,2.08,0,0,0-1.59-1,3.45,3.45,0,0,0-3.45,3.45h-.24a3.68,3.68,0,0,1,3.69-3.66,3.86,3.86,0,0,1,2.55,1,4.06,4.06,0,0,1,1.08,3.21v6.06a.82.82,0,0,0,.24.57.9.9,0,0,0,.57.24v.21h-2.13v-.81a.23.23,0,0,0-.42-.12,3.69,3.69,0,0,1-2.58,1.53,3.65,3.65,0,0,1-4-4.41Zm.69.18a4.49,4.49,0,0,0,4,3.54,1.8,1.8,0,0,0,1.26-.45l0,0a3.43,3.43,0,0,0,1-2v-5.46a3.74,3.74,0,0,0-.12-1,.32.32,0,0,0-.54-.15,21.56,21.56,0,0,1-4.41,3.12,3.85,3.85,0,0,0-.78.6A1.91,1.91,0,0,0,99.41,409.23Z"/><path d="M110.18,416.67a3.86,3.86,0,0,1,2.37-.54c1.38,0,2.76,0,4.11.09q1.35.09,2.7.09a2.32,2.32,0,0,0,1.2-.21,2.27,2.27,0,0,0,.9-.69,2,2,0,0,0,.36-2,2.05,2.05,0,0,0-2-1.26,2.26,2.26,0,0,0-1.23.36,6.12,6.12,0,0,1-3.33,1A6,6,0,0,1,111,403.35a5.94,5.94,0,0,1,8.43-.09c.15.12.24.27.42.42a.61.61,0,0,0,.69.15,2.45,2.45,0,0,0,1.38-2.22h.24a2.69,2.69,0,0,1-1.41,2.37.6.6,0,0,0-.21.75,6,6,0,0,1-.3,6.12.55.55,0,0,0,.24.84,2.76,2.76,0,0,1,1.68,2.46v0a2.84,2.84,0,0,1-2.37,3,18.76,18.76,0,0,1-2.61.18c-1.44,0-2.91.09-4.35.09a3.51,3.51,0,0,0-2.07.36,2.09,2.09,0,0,0-1,1.47,2.22,2.22,0,0,0,0,.63,2.25,2.25,0,0,0,1.29,1.68,4.28,4.28,0,0,0,1.38.21c1.26.06,2.55.09,3.81.09a4.38,4.38,0,0,0,2.4-.39,2.43,2.43,0,0,0,1.2-2.1h.24a2.32,2.32,0,0,1-.06.45c-.39,1.92-1.89,2.34-3.6,2.34-.9,0-1.8,0-2.73,0-.72,0-1.59.06-2.28,0a2.82,2.82,0,0,1-2-1.17A3,3,0,0,1,110.18,416.67Zm-.12-9.63a6.74,6.74,0,0,0,6.3,5.7,4.12,4.12,0,0,0,3-1.2A4.22,4.22,0,0,0,120.5,408a6.75,6.75,0,0,0-6.3-5.73,4.24,4.24,0,0,0-3,1.2A4.31,4.31,0,0,0,110.06,407Z"/><path d="M123.71,401.58h2.19v0a.5.5,0,0,0,.72.42,3.58,3.58,0,0,1,4.08.42,4.72,4.72,0,0,1,.9,1.14h-.93a1.68,1.68,0,0,0-1-1.5s0,0-.06,0a3.53,3.53,0,0,0-1.29-.24,3.49,3.49,0,0,0-1.26.24h0a1.83,1.83,0,0,0-1.05,1.59v1.05l0,7.08a.87.87,0,0,0,.87.87v.24h-3.09v-.27h.06a.88.88,0,0,0,.81-.84v-9.09a.93.93,0,0,0-.87-.87Z"/><path d="M132,409.05a3.64,3.64,0,0,1,1.8-2.43,24.07,24.07,0,0,0,4.41-3.15.56.56,0,0,0,.06-.75,2.08,2.08,0,0,0-1.59-1,3.45,3.45,0,0,0-3.45,3.45H133a3.68,3.68,0,0,1,3.69-3.66,3.86,3.86,0,0,1,2.55,1,4.06,4.06,0,0,1,1.08,3.21v6.06a.82.82,0,0,0,.24.57.9.9,0,0,0,.57.24v.21H139v-.81a.23.23,0,0,0-.42-.12,3.69,3.69,0,0,1-2.58,1.53,3.65,3.65,0,0,1-4-4.41Zm.69.18a4.49,4.49,0,0,0,4,3.54,1.8,1.8,0,0,0,1.26-.45l0,0a3.43,3.43,0,0,0,1-2v-5.46a3.74,3.74,0,0,0-.12-1,.32.32,0,0,0-.54-.15,21.56,21.56,0,0,1-4.41,3.12,3.85,3.85,0,0,0-.78.6A1.91,1.91,0,0,0,132.68,409.23Z"/><path d="M142.75,412.62a.93.93,0,0,0,.87-.84v-9.09a.91.91,0,0,0-.87-.87v-.24H145v0a.49.49,0,0,0,.71.42,3.58,3.58,0,0,1,4.08.42l.39.39a.32.32,0,0,0,.51,0,3.7,3.7,0,0,1,6.48,2.37v.09l-.06,6.48a.91.91,0,0,0,.87.87v.24h-.87l-2.22,0v-.24a.89.89,0,0,0,.9-.84v-.54l0-6.42v-1.14c0-1.32-1.23-1.86-2.37-1.86a3.78,3.78,0,0,0-1.29.24,1.74,1.74,0,0,0-1.05,1.59v1.05l0,7.08a.91.91,0,0,0,.84.87v.24H151l-2.19,0v-.24a.93.93,0,0,0,.87-.84v-.54l0-5.94v-1.62c0-1.32-1.23-1.86-2.37-1.86s-2.27.51-2.34,1.83v1.05l0,7.08a.88.88,0,0,0,.24.6.82.82,0,0,0,.63.27v.24h-3.09Z"/><path d="M74.91,433.07a4,4,0,0,1-3,1.57,4.22,4.22,0,0,1-1.81-.41l-.26-.13a1.18,1.18,0,0,1-.19-.11,1.88,1.88,0,0,1-.23-.16,4.28,4.28,0,0,1,4.61-7.2h0a.1.1,0,0,1,0,0,4.21,4.21,0,0,1,1,.85v-1.64h1.15s-.42,5.34-.44,7.25c0,1,0,1.61.41,1.69a2,2,0,0,0,1.89-1,7.41,7.41,0,0,0,1-6.24,6.45,6.45,0,0,0-3.62-3.95,6.56,6.56,0,0,0-5.33.11c-3.18,1.48-5.73,5.9-4.31,9.88a6.39,6.39,0,0,0,4.05,4,7.23,7.23,0,0,0,6.34-1l.1-.07.41.4-.14.1a8.05,8.05,0,0,1-4.8,1.58,8,8,0,0,1-2.32-.34A6.93,6.93,0,0,1,64.85,434c-1.44-4,.78-8.76,5.06-10.79a7.37,7.37,0,0,1,6-.24,7,7,0,0,1,3,10.71,4,4,0,0,1-3,2h0a1.17,1.17,0,0,1-1.06-1.17A8.35,8.35,0,0,1,74.91,433.07Zm-1-5.92,0,0-.06,0-.22-.11a2.59,2.59,0,0,0-1-.17,3,3,0,0,0-1.12.22,4.28,4.28,0,0,0-2.08,1.88c-1,1.75-.76,3.82.57,4.64l.06,0,.27.15a2.83,2.83,0,0,0,2.08-.06,4.24,4.24,0,0,0,2.08-1.88C75.45,430,75.19,428,73.86,427.15Z"/><path d="M88.75,432.22h1.41A4.28,4.28,0,0,1,86,435.69a4.36,4.36,0,0,1-1.81-.4l-.26-.13L83.7,435a1.25,1.25,0,0,1-.24-.16,4.28,4.28,0,0,1,4.61-7.19h0l.06,0a4.26,4.26,0,0,1,2,3H83.08A3.18,3.18,0,0,0,84,434.6l.07,0a1.71,1.71,0,0,0,.27.14,2.58,2.58,0,0,0,2-.06,4.32,4.32,0,0,0,2.09-1.87A4,4,0,0,0,88.75,432.22Zm-5.48-1.91h5.78a2.71,2.71,0,0,0-1.16-2.11.15.15,0,0,1-.07,0l-.06,0-.21-.11a2.29,2.29,0,0,0-.9-.17,3.05,3.05,0,0,0-1.12.22A4.33,4.33,0,0,0,83.45,430C83.39,430.08,83.32,430.19,83.27,430.31Z"/><path d="M91.71,435.69V426.9H92.9v1.49a3.92,3.92,0,0,1,2.84-1.32,4.12,4.12,0,0,1,3.87,3.87c0,2.16.06,4.75.06,4.75H98.55v-4.05c0-2.09-1-4-2.85-4s-2.83,1.69-2.83,4.12v3.91Z"/><path d="M101.39,435.69V426.9h1.18v1.49a3.92,3.92,0,0,1,2.84-1.32,4.12,4.12,0,0,1,3.87,3.87c0,2.16.07,4.75.07,4.75h-1.13v-4.05c0-2.09-1-4-2.85-4s-2.83,1.69-2.83,4.12v3.91Z"/><path d="M110.91,424.57a.75.75,0,0,1,1.5,0,.75.75,0,1,1-1.5,0Zm.16,11.12v-8.8h1.18v8.8Z"/><path d="M114.19,435.69V426.9h1.18v1.49a4,4,0,0,1,2.85-1.32,4.13,4.13,0,0,1,3.87,3.87c0,2.16.06,4.75.06,4.75H121v-4.05c0-2.09-1-4-2.86-4s-2.82,1.69-2.82,4.12v3.91Z"/><path d="M130.93,437c.09,2-3.34,3.2-5.43,2.39a1.49,1.49,0,0,1-.4-.15,1,1,0,0,1-.21-.09c-2.67-1.33-1.8-4.1,1.2-4.43-2.52-.26-3.2-2-1.89-2.58a3.51,3.51,0,0,1,4.75-4.82s.05,0,.08,0h0a3.23,3.23,0,0,1,1.51-.51c.07.26.13.51.18.77a0,0,0,0,1,0,0,3.53,3.53,0,0,0-1.13.19,3.5,3.5,0,0,1-3.88,5.72,1.51,1.51,0,0,1-.22-.11.65.65,0,0,1-.15-.1,1,1,0,0,1-.19-.12,3.36,3.36,0,0,1-.82-.82.56.56,0,0,0-.39.48c0,1.31,2.78,1.35,3.76,1.53a6.54,6.54,0,0,1,1.09.26h0a1.15,1.15,0,0,1,.17.06h0l0,0A2.62,2.62,0,0,1,130.93,437Zm-2.1-2a2.63,2.63,0,0,0-.89-.2h-.21a3.48,3.48,0,0,0-1,.14c-1.91.38-3.56,3-1.35,4l.06,0,.24.08a3.78,3.78,0,0,0,3.65-1.18A1.72,1.72,0,0,0,128.83,435.06ZM125.64,433l0,0,.22.11a2.82,2.82,0,0,0,3.19-1.33,3.45,3.45,0,0,0,.36-.65,2.94,2.94,0,0,0-.11-2.84,1.8,1.8,0,0,0-.51-.52l-.06,0h0l-.07,0h0l-.18-.09C125.69,426.6,123.24,431.51,125.64,433Z"/><path d="M140.13,426.9v8.79h-1.19V434.2a3.92,3.92,0,0,1-2.84,1.32,3.81,3.81,0,0,1-3.87-3.87c0-2.16-.06-4.75-.06-4.75h1.12V431c0,2.09.81,4,2.86,4,1.83,0,2.82-1.68,2.82-4.11V426.9Z"/><path d="M142.05,435.69V426.9h1.18v1.49a3.92,3.92,0,0,1,2.84-1.32,4.12,4.12,0,0,1,3.87,3.87c0,2.16.07,4.75.07,4.75h-1.13v-4.05c0-2.09-1-4-2.85-4s-2.82,1.69-2.82,4.12v3.91Z"/><path d="M160,426.89v8.8h-1.16v-1.51a4.24,4.24,0,0,1-5,1.05,1.66,1.66,0,0,1-.27-.13l-.19-.11-.23-.16a4.28,4.28,0,0,1,2.49-7.76,4.16,4.16,0,0,1,2.13.57h0s0,0,0,0a4.25,4.25,0,0,1,1,.85v-1.64Zm-2.38,1.26-.05,0-.06,0-.22-.11a2.83,2.83,0,0,0-1-.17,3,3,0,0,0-1.11.22,4.24,4.24,0,0,0-2.08,1.88c-1,1.76-.76,3.82.57,4.64l.05,0,.28.14a2.79,2.79,0,0,0,2.08-.06,4.26,4.26,0,0,0,2.08-1.87C159.21,431,159,429,157.62,428.15Z"/><path d="M170.76,431.08a4.38,4.38,0,0,1-4.38,4.37,4.25,4.25,0,0,1-1.85-.41l-.28-.14a.63.63,0,0,1-.18-.12,1.2,1.2,0,0,1-.24-.15,5.49,5.49,0,0,1-.72-.64v5.5h-1.19V426.63h1.19v1.53a4.35,4.35,0,0,1,5.43-.89h0l0,0A4.34,4.34,0,0,1,170.76,431.08Zm-2.41-3.27-.06-.05-.06,0-.22-.1a2.25,2.25,0,0,0-.92-.18,2.94,2.94,0,0,0-1.14.23,4.38,4.38,0,0,0-2.13,1.92c-1,1.79-.77,3.89.58,4.74l.06,0,.29.14a2.71,2.71,0,0,0,2.05-.06,4.4,4.4,0,0,0,2.13-1.91C170,430.75,169.7,428.65,168.35,427.81Z"/><path d="M180.59,426.89v8.8h-1.15v-1.51a4.27,4.27,0,0,1-3.22,1.46,4.22,4.22,0,0,1-1.81-.41l-.26-.13a3,3,0,0,1-.42-.27,4.27,4.27,0,0,1,2.49-7.76,4.13,4.13,0,0,1,2.12.57h0a.1.1,0,0,1,0,0,4.45,4.45,0,0,1,1,.85v-1.64Zm-2.37,1.26-.06,0-.06,0-.21-.11a2.87,2.87,0,0,0-1-.17,3,3,0,0,0-1.11.22,4.26,4.26,0,0,0-2.09,1.88c-1,1.76-.76,3.82.57,4.64l.06,0,.27.14a2.78,2.78,0,0,0,2.08-.06,4.32,4.32,0,0,0,2.09-1.87C179.8,431,179.54,429,178.22,428.15Z"/><path d="M189.33,427.9l-.79.8a2.81,2.81,0,0,0-2.66-1l-.07,0h-.06l-.24.08a2.24,2.24,0,0,0-.4.22s-1.25.54-1.43,3.36v4.28h-1.16V426.9h1.16v1.49l.06-.08a4.24,4.24,0,0,1,1.91-1.09,0,0,0,0,1,0,0h.05A4.26,4.26,0,0,1,189.33,427.9Z"/><path d="M197.23,434.63a3.11,3.11,0,0,1-2.42,1.06c-2.88,0-3.9-3-3.9-5.05v-2.87H190v-.46h.93v-3.76h1.24v3.76h2.57v.46h-2.57c0,1,0,2.8,0,3.28,0,1.42.46,4.05,2.62,4.05a2.13,2.13,0,0,0,1.83-1C196.8,434.3,197,434.46,197.23,434.63Z"/><path d="M204.73,432.22h1.41a4.29,4.29,0,0,1-4.22,3.47,4.35,4.35,0,0,1-1.8-.4l-.27-.13-.18-.12a1.6,1.6,0,0,1-.23-.16,4.28,4.28,0,0,1,4.61-7.19h0a.1.1,0,0,1,.05,0,4.27,4.27,0,0,1,2,3h-7.12a3.19,3.19,0,0,0,.95,3.82l.06,0a2.44,2.44,0,0,0,.28.14,2.58,2.58,0,0,0,2-.06,4.32,4.32,0,0,0,2.09-1.87A4,4,0,0,0,204.73,432.22Zm-5.48-1.91H205a2.66,2.66,0,0,0-1.16-2.11l-.06,0-.06,0-.22-.11a2.25,2.25,0,0,0-.9-.17,3,3,0,0,0-1.11.22,4.28,4.28,0,0,0-2.08,1.88A2.91,2.91,0,0,0,199.25,430.31Z"/><path class="cls-2" d="M196.92,11.82h0c-104.4,0-189,84.63-189,189V577.92H385.94V200.84C385.94,96.45,301.31,11.82,196.92,11.82Z"/><path class="cls-2" d="M196.92,23.54h0a181.2,181.2,0,0,0-181.2,181.2V566.2h362.4V204.74A181.2,181.2,0,0,0,196.92,23.54Z"/><path class="cls-2" d="M196.92,35.36h0A173.3,173.3,0,0,0,23.61,208.66V554.38H370.22V208.66A173.3,173.3,0,0,0,196.92,35.36Z"/><path class="cls-2" d="M196.92,47.15h0A165.43,165.43,0,0,0,31.48,212.58v330H362.35v-330A165.43,165.43,0,0,0,196.92,47.15Z"/><path class="cls-2" d="M196.92,59h0A157.53,157.53,0,0,0,39.38,216.5V530.77H354.46V216.5A157.54,157.54,0,0,0,196.92,59Z"/><path class="cls-2" d="M196.92,70.78h0A149.65,149.65,0,0,0,47.27,220.43V519H346.56V220.43A149.64,149.64,0,0,0,196.92,70.78Z"/><path class="cls-2" d="M196.92,82.87h0A141.67,141.67,0,0,0,55.24,224.54V507.17H338.59V224.54A141.67,141.67,0,0,0,196.92,82.87Z"/><polygon class="cls-3" points="196.92 543.87 198.33 580.42 210.95 546.09 200.99 581.28 223.6 552.54 203.26 582.93 233.65 562.58 204.91 585.2 240.11 575.25 205.78 587.87 242.32 589.27 205.78 590.68 240.11 603.31 204.91 593.34 233.65 615.96 203.26 595.61 223.6 626 200.99 597.26 210.95 632.46 198.33 598.13 196.92 634.67 195.52 598.13 182.89 632.46 192.85 597.26 170.23 626 190.58 595.61 160.19 615.96 188.93 593.34 153.74 603.31 188.06 590.68 151.52 589.27 188.06 587.87 153.74 575.25 188.93 585.2 160.19 562.58 190.58 582.93 170.23 552.54 192.85 581.28 182.89 546.09 195.52 580.42 196.92 543.87"/><path d="M248.9,246.85c.53-.63,1.07-1.26,1.63-1.87a8,8,0,0,1,.84-.91,5.42,5.42,0,0,1,1-.72l0,0a5.91,5.91,0,0,1-.72,1,8,8,0,0,1-.91.84l-1.87,1.63Z"/><line class="cls-4" x1="206.92" y1="435.87" x2="221.58" y2="435.87"/></g></g></svg>