<svg xmlns="http://www.w3.org/2000/svg" xmlns:xlink="http://www.w3.org/1999/xlink" viewBox="0 0 393.84 634.67"><defs><style>.cls-1{fill:url(#Degradado_sin_nombre_3);}.cls-2{fill:none;stroke:#fff;stroke-miterlimit:10;stroke-width:0.6px;}.cls-3{fill-rule:evenodd;}</style><linearGradient id="Degradado_sin_nombre_3" x1="427.91" y1="203.1" x2="-60.44" y2="485.05" gradientUnits="userSpaceOnUse"><stop offset="0" stop-color="#eec639"/><stop offset="1" stop-color="#9097f9"/></linearGradient></defs><g id="Capa_2" data-name="Capa 2"><g id="Capa_1-2" data-name="Capa 1"><path class="cls-1" d="M196.92,0h0C88.16,0,0,88.16,0,196.92V589.74H393.84V196.92C393.84,88.16,305.67,0,196.92,0Z"/><path d="M80.58,231.69v-.24a.87.87,0,0,0,.87-.87V212.7a.82.82,0,0,0-.27-.63.84.84,0,0,0-.6-.24v-.24H91.2v1H91a.81.81,0,0,0-.81-.81H83.67a.85.85,0,0,0-.87.87v8.94a1.17,1.17,0,0,0,1.14,1.17h3.15a1.17,1.17,0,0,0,1.17-1.17h.24v2.55h-.24A1.17,1.17,0,0,0,87.09,223H83.94a1.17,1.17,0,0,0-1.14,1.17v6.39a.85.85,0,0,0,.87.87h6.48a.81.81,0,0,0,.81-.81v0h.24v1.08Z"/><path d="M94.11,230.07V213.21a1.38,1.38,0,0,0-1.41-1.38v-.24h2.79l5.85,18.33a.17.17,0,0,0,.33-.06V213.21a1.38,1.38,0,0,0-1.38-1.38v-.24h3v.24a1.38,1.38,0,0,0-1.41,1.38v16.86a1.4,1.4,0,0,0,1.41,1.38v.24H100.5l-5.82-18.33a.19.19,0,0,0-.36.06v16.65a1.4,1.4,0,0,0,1.41,1.38v.24h-3v-.24A1.4,1.4,0,0,0,94.11,230.07Z"/><path d="M114.75,230.07V213.21a1.38,1.38,0,0,0-1.41-1.38v-.24h2.79L122,229.92a.17.17,0,0,0,.33-.06V213.21a1.38,1.38,0,0,0-1.38-1.38v-.24h3v.24a1.38,1.38,0,0,0-1.41,1.38v16.86a1.4,1.4,0,0,0,1.41,1.38v.24h-2.82l-5.82-18.33a.19.19,0,0,0-.36.06v16.65a1.4,1.4,0,0,0,1.41,1.38v.24h-3v-.24A1.4,1.4,0,0,0,114.75,230.07Z"/><path d="M125.46,211.59h3v.24a.84.84,0,0,0-.81.87v17.94a.77.77,0,0,0,.81.81v.24h-3v-.24a.87.87,0,0,0,.87-.87V212.7a.82.82,0,0,0-.27-.63.84.84,0,0,0-.6-.24Z"/><path d="M131.67,230.07V213.21a1.38,1.38,0,0,0-1.41-1.38v-.24h2.79l5.85,18.33a.17.17,0,0,0,.33-.06V213.21a1.38,1.38,0,0,0-1.38-1.38v-.24h3v.24a1.38,1.38,0,0,0-1.41,1.38v16.86a1.4,1.4,0,0,0,1.41,1.38v.24h-2.82l-5.82-18.33a.19.19,0,0,0-.36.06v16.65a1.4,1.4,0,0,0,1.41,1.38v.24h-3v-.24A1.4,1.4,0,0,0,131.67,230.07Z"/><path d="M152.91,211.11h.33v1.83H153a.92.92,0,0,0-.84-.93l-.15,0h-.42a8.17,8.17,0,0,0-5.94,2.37c-.12.09-.21.21-.33.3a8.49,8.49,0,0,0-2.07,6.15V221a11.46,11.46,0,0,0,10.35,10.35,7.08,7.08,0,0,0,1.38,0c4.62-.33,8-4.41,8.25-9a3.22,3.22,0,0,0-.33-2,2.52,2.52,0,0,0-2.49-1.17,2.57,2.57,0,0,0-2,1.86c-.11.45-.11.9-.2,1.35a2.54,2.54,0,0,1-1.11,1.5,7.39,7.39,0,0,0-.81.51,1.93,1.93,0,0,0-.57,1.38h-.24v-3h.24a.91.91,0,0,0,.81.93,1.21,1.21,0,0,0,1.08-.54A2.88,2.88,0,0,0,158,222a7,7,0,0,1,.24-1.23,2.7,2.7,0,0,1,5.06-.09,4.05,4.05,0,0,1,.16,2.1,10.57,10.57,0,1,1-10.53-11.67Z"/><path d="M168.45,211.59v.21a.86.86,0,0,0-.79.87v14.19a5,5,0,0,0,4.75,5.1h.29a6.16,6.16,0,0,0,6.15-6.18V213.36a1.55,1.55,0,0,0-1.56-1.56v-.21h3v.21a1.24,1.24,0,0,0-1.23,1.23v12.75a6.36,6.36,0,1,1-12.71,0V212.67a.83.83,0,0,0-.28-.6.72.72,0,0,0-.59-.27v-.21Z"/><path d="M183.41,230.07V213.21a1.38,1.38,0,0,0-1.41-1.38v-.24h2.79l5.85,18.33a.17.17,0,0,0,.33-.06V213.21a1.38,1.38,0,0,0-1.38-1.38v-.24h3v.24a1.38,1.38,0,0,0-1.41,1.38v16.86a1.4,1.4,0,0,0,1.41,1.38v.24H189.8L184,213.36a.19.19,0,0,0-.37.06v16.65a1.4,1.4,0,0,0,1.41,1.38v.24h-3v-.24A1.4,1.4,0,0,0,183.41,230.07Z"/><path d="M193.7,231.45a1.68,1.68,0,0,0,1.56-1.11l5.34-15.24a.74.74,0,0,0-.69-1l.9-2.52h3v.24h-.39l6.57,19a.88.88,0,0,0,.81.57v.24h-2.55v-.24a.38.38,0,0,0,.36-.51l-1.86-5.4a.29.29,0,0,0-.54,0,2.77,2.77,0,0,1-3.06,1.38,2.81,2.81,0,0,1-2.13-2.76,2.54,2.54,0,0,0-2.16-2.43.33.33,0,0,0-.39.24l-2.94,8.43a.81.81,0,0,0,.75,1.08v.24H193.7Zm5.31-10a2.77,2.77,0,0,1,2.19,2.73,2.46,2.46,0,0,0,2.52,2.52,2.56,2.56,0,0,0,2.55-2.37,1.07,1.07,0,0,0-.06-.3l-4-11.58a.23.23,0,0,0-.45,0l-3,8.55A.31.31,0,0,0,199,221.49Z"/><path d="M229.13,211.59a5.74,5.74,0,0,1,5.76,5.67,5.84,5.84,0,0,1-5.88,5.85h-1.86a5.49,5.49,0,0,0-4.65,2.58,1.89,1.89,0,0,0-.27,1v4a.77.77,0,0,0,.81.81v.24h-3v-.24a.87.87,0,0,0,.87-.87V212.7a.82.82,0,0,0-.27-.63.84.84,0,0,0-.6-.24v-.24Zm-6.9,1.11v11.55a.5.5,0,0,0,.48.51.62.62,0,0,0,.36-.15,5.67,5.67,0,0,1,4.08-1.74h2a4.65,4.65,0,0,0,1.35-.18,5.74,5.74,0,0,0,2.94-5.34c0-2.52-1.23-4.65-3-5.37a4.69,4.69,0,0,0-1.32-.15H223A.84.84,0,0,0,222.23,212.7Z"/><path d="M232.07,231.45a1.68,1.68,0,0,0,1.56-1.11L239,215.1a.74.74,0,0,0-.69-1l.9-2.52h3v.24h-.39l6.57,19a.88.88,0,0,0,.81.57v.24h-2.55v-.24a.38.38,0,0,0,.36-.51l-1.86-5.4a.29.29,0,0,0-.54,0,2.77,2.77,0,0,1-3.06,1.38,2.81,2.81,0,0,1-2.13-2.76,2.54,2.54,0,0,0-2.16-2.43.33.33,0,0,0-.39.24l-2.94,8.43a.81.81,0,0,0,.75,1.08v.24h-2.55Zm5.31-10a2.77,2.77,0,0,1,2.19,2.73,2.46,2.46,0,0,0,2.52,2.52,2.56,2.56,0,0,0,2.55-2.37,1.07,1.07,0,0,0-.06-.3l-4-11.58a.23.23,0,0,0-.45,0l-3,8.55A.31.31,0,0,0,237.38,221.49Z"/><path d="M250.4,211.83v-.24h9.12a5.74,5.74,0,0,1,5.76,5.67,5.68,5.68,0,0,1-2.91,5,.19.19,0,0,0,.09.36,9.07,9.07,0,0,1,7.59,7.5,1.55,1.55,0,0,0,1.53,1.29v.24h-3v-.24a1.24,1.24,0,0,0,1.23-1.47,8.8,8.8,0,0,0-8.43-7.17,1.32,1.32,0,0,0-.3.06,5.93,5.93,0,0,1-1.65.24h-1.86a5.49,5.49,0,0,0-4.65,2.58,1.89,1.89,0,0,0-.27,1v4a.77.77,0,0,0,.81.81v.24h-3v-.24a.87.87,0,0,0,.87-.87V212.7a.82.82,0,0,0-.27-.63A.84.84,0,0,0,250.4,211.83Zm2.22.87v11.55a.5.5,0,0,0,.48.51.62.62,0,0,0,.36-.15,5.67,5.67,0,0,1,4.08-1.74h2a4.18,4.18,0,0,0,1.62-.27,5.91,5.91,0,0,0,2.67-5.25c0-2.52-1.23-4.65-3-5.37a4.69,4.69,0,0,0-1.32-.15h-6.09A.84.84,0,0,0,252.62,212.7Z"/><path d="M269.39,211.59h20.1v1h-.24a.81.81,0,0,0-.84-.81h-6.48a.87.87,0,0,0-.87.87v8.94a1.19,1.19,0,0,0,1.17,1.17h3.15a1.19,1.19,0,0,0,1.17-1.17h.21v2.55h-.21a1.19,1.19,0,0,0-1.17-1.17h-3.15a1.19,1.19,0,0,0-1.17,1.17v6.39a.87.87,0,0,0,.87.87h6.48a.81.81,0,0,0,.84-.81v0h.24v1.08H278.87v-.24a.87.87,0,0,0,.87-.87V212.7a.82.82,0,0,0-.27-.63.84.84,0,0,0-.6-.24H276.2a.86.86,0,0,0-.81.87v17.94a.72.72,0,0,0,.24.57.77.77,0,0,0,.57.24v.24h-3v-.24a.87.87,0,0,0,.87-.87V212.7a.83.83,0,0,0-.87-.87h-2.7a.82.82,0,0,0-.84.84h-.24Z"/><path d="M83.94,256.38v11.31H82.62V256.86l-2,2.31v-.48l2-2.31Z"/><path d="M89.07,256.38v11.31H87.75V256.86l-2,2.31v-.48l2-2.31Z"/><path d="M92.61,258.33l.3-.3a5.92,5.92,0,0,1,8.46,8.28l-.3.3A5.92,5.92,0,0,1,97,268.23a5.91,5.91,0,0,1-4.38-9.9Zm-.78,3.51a6.37,6.37,0,0,0,1.83,3.66l6.51-6.51a6.31,6.31,0,0,0-4.26-1.83,4.09,4.09,0,0,0-2.85,1l-.27.27A4.18,4.18,0,0,0,91.83,261.84Zm2,3.81a6.31,6.31,0,0,0,4.26,1.83,4.23,4.23,0,0,0,2.85-1.05l.27-.27a4.22,4.22,0,0,0,1-3.36,6.37,6.37,0,0,0-1.83-3.66Z"/><path d="M104.7,267.69l5.7-4.68a3.61,3.61,0,0,0,1.29-2.76,3.36,3.36,0,0,0-3.27-3.39,3.08,3.08,0,0,0-2.19.87v0l-.18-.15a4.16,4.16,0,0,1,2.94-1.23,4,4,0,0,1,4,3.87,3.82,3.82,0,0,1-1.38,2.94l-5.19,4.26h6.45v.24Z"/><path d="M115,261v-.12a4.65,4.65,0,0,1,4.59-4.5,4.67,4.67,0,0,1,4.7,4.41v.33a4.67,4.67,0,0,1-2.76,4.14,6,6,0,1,1-6.08,10l.93-1a6.37,6.37,0,0,0,4.38,1.89,4.18,4.18,0,0,0,2.88-1,4.23,4.23,0,0,0,.3-.3,4.4,4.4,0,0,0,1-3.39,6.9,6.9,0,0,0-5.25-5.64v-1.05a4.8,4.8,0,0,0,.63.15,2.74,2.74,0,0,0,3.26-3.24c0-.12,0-.18,0-.27a5.69,5.69,0,0,0-4.5-4.32,2.86,2.86,0,0,0-3.27,3.39s.11.45.11.51Z"/><path d="M130.82,256.38v11.31H129.5V256.86l-2,2.31v-.48l2-2.31Z"/><path d="M159.17,256.92v1.41H134.33v-1.41Z"/><path d="M162.71,267.69v-.24a.86.86,0,0,0,.87-.87V248.7a.86.86,0,0,0-.87-.87v-.24h10.38a5.75,5.75,0,0,1,5.73,5.73,5.89,5.89,0,0,1-.42,2.16.58.58,0,0,0,.45.81,5.69,5.69,0,0,1,3.3,1.71,5.52,5.52,0,0,1,1.65,4.05,5.78,5.78,0,0,1-5.76,5.64Zm2.2-19.05v12.75a.34.34,0,0,0,.62.18,5.72,5.72,0,0,1,4.89-2.73h2.67c2.91,0,4.26-2.94,4.26-5.52a5.87,5.87,0,0,0-2.46-5.07,2.62,2.62,0,0,0-1-.39,6.86,6.86,0,0,0-.75-.06l-7.35,0A.82.82,0,0,0,164.91,248.64Zm0,15.93v2.07a.82.82,0,0,0,.83.81H178a3.08,3.08,0,0,0,1.65-.33,6.48,6.48,0,0,0,.12-10.26,2.73,2.73,0,0,0-1.38-.39.84.84,0,0,0-.81.36,5.74,5.74,0,0,1-4.53,2.22h-2.67A5.52,5.52,0,0,0,164.91,264.57Z"/><path d="M188.72,250.26a10.55,10.55,0,0,1,14.7-.21s.81-.69.87-.75a11,11,0,0,1,4.92-2c.15,0,1.8-.18,1.8-.12V249h-.24a.89.89,0,0,0-.84-.9l-.57-.06a8.39,8.39,0,0,0-5.76,2.19l.06.06a10.59,10.59,0,0,1,.81,14,11.2,11.2,0,0,0,6.87,3.12.66.66,0,0,1,.24,0,9.5,9.5,0,0,0,3.54-.54c3.63-1.38,5.91-5.34,5.91-9.15a2.49,2.49,0,0,0-4.71-1.14.11.11,0,0,0,0,.09,3.84,3.84,0,0,0-.27,1.44,2.81,2.81,0,0,1-.63,1.35,3.2,3.2,0,0,1-1.08.81,1.89,1.89,0,0,0-.87,1.59h-.24v-3h.24a1,1,0,0,0,1.38.87,2.67,2.67,0,0,0,1-1.68,6.43,6.43,0,0,1,.21-1.29,2.74,2.74,0,0,1,2.19-1.71,1.46,1.46,0,0,1,.36,0h.21a2.78,2.78,0,0,1,2.49,2.46,7.5,7.5,0,0,1-.09,1.83,11,11,0,0,1-2.31,5.16c-.09.09-.15.18-.21.24l0,0a7.4,7.4,0,0,1-.84.84l-.12.12c-.21.15-.39.33-.6.48a10.57,10.57,0,0,1-13.35-.54l-.27-.21a10.55,10.55,0,0,1-14.7-.21A10.57,10.57,0,0,1,188.72,250.26Zm1.11,13.83a11,11,0,0,0,7.68,3.33,8.27,8.27,0,0,0,5.76-2.19A10.36,10.36,0,0,1,201,262a10.72,10.72,0,0,1,1.29-10.65.41.41,0,0,0,.09-.12,10.9,10.9,0,0,0-7.53-3.15,8.36,8.36,0,0,0-6,2.37C185.36,253.92,185.78,260.07,189.83,264.09ZM201,257a11.22,11.22,0,0,0,3.27,7c2.61-3.6,2-9.06-1.74-12.72A8.5,8.5,0,0,0,201,257Z"/><path d="M226.76,250.17a10.61,10.61,0,1,1,0,15A10.56,10.56,0,0,1,226.76,250.17ZM227.87,264a11,11,0,0,0,7.71,3.33,8.27,8.27,0,0,0,6-2.4c3.51-3.51,3.09-9.66-.93-13.68a11,11,0,0,0-7.68-3.33,8.33,8.33,0,0,0-6,2.4C223.41,253.89,223.82,260,227.87,264Z"/><path d="M253.67,247.59v1.08h-.24a.82.82,0,0,0-.84-.84h-2.7a.86.86,0,0,0-.81.87v17.94a.72.72,0,0,0,.24.57.77.77,0,0,0,.57.24v.24h-3v-.24a.87.87,0,0,0,.87-.87V248.7a.83.83,0,0,0-.87-.87h-2.7a.82.82,0,0,0-.84.84h-.24v-1.08Z"/><path d="M272.76,267.68h-2.65l-2.6-6.93h-8.9L256,267.68h-1.67l7.91-19.16h2.6ZM267.21,260l-4.14-11-4.16,11Z"/><path d="M84,286.2a10.57,10.57,0,0,1,7.35-3.12h.24v1.83h-.24a1,1,0,0,0-.9-1h-.3a8.31,8.31,0,0,0-6,2.4l-.3.3A8.42,8.42,0,0,0,81.81,293a11.46,11.46,0,0,0,10.35,10.35,8.43,8.43,0,0,0,6.48-2.22,2.83,2.83,0,0,0,.3-.3,7.86,7.86,0,0,0,2.25-6.18v0a1,1,0,0,0-1-.93v-.24h1.86v.24a10.55,10.55,0,0,1-3.12,7.47A10.56,10.56,0,1,1,84,286.2Z"/><path d="M107.58,286.17a10.61,10.61,0,1,1,0,15A10.56,10.56,0,0,1,107.58,286.17ZM108.69,300a11,11,0,0,0,7.71,3.33,8.23,8.23,0,0,0,6-2.4c3.52-3.51,3.1-9.66-.92-13.68a11,11,0,0,0-7.68-3.33,8.33,8.33,0,0,0-6,2.4C104.22,289.89,104.64,296,108.69,300Z"/><path d="M127.74,303.69v-.24a.87.87,0,0,0,.87-.87V284.7a.93.93,0,0,0-.87-.87v-.24h3.06v.24a.87.87,0,0,0-.87.87v17.88a.87.87,0,0,0,.87.87h6.48a.81.81,0,0,0,.84-.81v0h.24v1.08Z"/><path d="M139.05,286.17a10.61,10.61,0,1,1,0,15A10.56,10.56,0,0,1,139.05,286.17ZM140.16,300a11,11,0,0,0,7.7,3.33,8.29,8.29,0,0,0,6-2.4c3.51-3.51,3.09-9.66-.93-13.68a11,11,0,0,0-7.68-3.33,8.33,8.33,0,0,0-6,2.4C135.69,289.89,136.11,296,140.16,300Z"/><path d="M158.7,303.45a1.21,1.21,0,0,0,1.16-.87l4.3-15.69a1.3,1.3,0,0,0,0-.15.66.66,0,0,0-.64-.63l.69-2.52h2.34v.24h-.3l3,11.19a.25.25,0,0,0,.48,0l2.22-8.13a1.3,1.3,0,0,0,0-.15.65.65,0,0,0-.63-.63l.72-2.52h9.36a5.75,5.75,0,0,1,5.73,5.73,5.89,5.89,0,0,1-.42,2.16.59.59,0,0,0,.45.81,5.69,5.69,0,0,1,3.3,1.71,5.52,5.52,0,0,1,1.65,4.05,5.78,5.78,0,0,1-5.76,5.64h-8.55v-.24a.33.33,0,0,0,.33-.42l-4.92-18.27a.26.26,0,0,0-.51,0l-3,11a2.27,2.27,0,0,0,0,.9l1.71,6.33a.61.61,0,0,0,.6.45v.24h-2v-.24a.33.33,0,0,0,.33-.42l-4.91-18.27a.26.26,0,0,0-.51,0L160,302.61a.55.55,0,0,0,0,.18.67.67,0,0,0,.68.66v.24h-2Zm15.53-19.05L177,294.6a.52.52,0,0,0,.6.36,4.83,4.83,0,0,1,1.17-.12h2.67c2.91,0,4.26-2.94,4.26-5.52a5.91,5.91,0,0,0-2.46-5.07,2.62,2.62,0,0,0-1-.39,6.53,6.53,0,0,0-.75,0h-6.81A.43.43,0,0,0,174.23,284.4Zm3.09,11.37,2,7.23a.61.61,0,0,0,.6.45h6.54a7.37,7.37,0,0,0,.84-.06,3.21,3.21,0,0,0,.81-.27,5.88,5.88,0,0,0,2.58-5.19c0-2.13-1.26-5.46-3.84-5.46a.89.89,0,0,0-.81.33,5.68,5.68,0,0,1-4.53,2.25h-2.67a4.42,4.42,0,0,0-1.08.12A.51.51,0,0,0,177.32,295.77Z"/><path d="M193.41,283.59h3v.24a.84.84,0,0,0-.81.87v17.94a.77.77,0,0,0,.81.81v.24h-3v-.24a.88.88,0,0,0,.87-.87V284.7a.83.83,0,0,0-.28-.63.81.81,0,0,0-.59-.24Z"/><path d="M197.69,303.45a1.68,1.68,0,0,0,1.56-1.11l5.34-15.24a.74.74,0,0,0-.69-1l.9-2.52h3v.24h-.39L214,302.88a.88.88,0,0,0,.81.57v.24h-2.55v-.24a.38.38,0,0,0,.36-.51l-1.86-5.4a.29.29,0,0,0-.54,0,2.77,2.77,0,0,1-3.06,1.38,2.81,2.81,0,0,1-2.13-2.76,2.54,2.54,0,0,0-2.16-2.43.33.33,0,0,0-.39.24l-2.94,8.43a.81.81,0,0,0,.75,1.08v.24h-2.55Zm5.31-10a2.77,2.77,0,0,1,2.19,2.73,2.46,2.46,0,0,0,2.52,2.52,2.56,2.56,0,0,0,2.55-2.37,1.07,1.07,0,0,0-.06-.3l-4-11.58a.23.23,0,0,0-.45,0l-3,8.55A.31.31,0,0,0,203,293.49Z"/><path d="M87.5,348.22h1.41a4.29,4.29,0,0,1-4.22,3.47,4.35,4.35,0,0,1-1.8-.4l-.27-.13-.18-.12a1.67,1.67,0,0,1-.24-.16,4.28,4.28,0,0,1,4.62-7.19h0a.1.1,0,0,1,0,0,4.3,4.3,0,0,1,2,3H81.82a3.19,3.19,0,0,0,1,3.82l.06,0a1.83,1.83,0,0,0,.28.14,2.58,2.58,0,0,0,2-.06,4.32,4.32,0,0,0,2.09-1.87A4,4,0,0,0,87.5,348.22ZM82,346.31h5.77a2.68,2.68,0,0,0-1.16-2.11l-.06,0-.06,0-.22-.11a2.25,2.25,0,0,0-.9-.17,3,3,0,0,0-1.11.22A4.28,4.28,0,0,0,82.2,346,2.91,2.91,0,0,0,82,346.31Z"/><path d="M90.46,351.69V342.9h1.18v1.49a4,4,0,0,1,2.84-1.32,4.12,4.12,0,0,1,3.87,3.87c0,2.16.07,4.75.07,4.75H97.29v-4.05c0-2.09-1-4-2.85-4s-2.82,1.69-2.82,4.12v3.91Z"/><path d="M100.13,351.69V342.9h1.18v1.49a4,4,0,0,1,2.85-1.32,4.13,4.13,0,0,1,3.87,3.87c0,2.16.06,4.75.06,4.75H107v-4.05c0-2.09-1-4-2.86-4s-2.82,1.69-2.82,4.12v3.91Z"/><path d="M109.65,340.57a.75.75,0,1,1,.75.76A.76.76,0,0,1,109.65,340.57Zm.16,11.12v-8.8H111v8.8Z"/><path d="M112.94,351.69V342.9h1.18v1.49a3.92,3.92,0,0,1,2.84-1.32,4.12,4.12,0,0,1,3.87,3.87c0,2.16.07,4.75.07,4.75h-1.13v-4.05c0-2.09-1-4-2.85-4s-2.82,1.69-2.82,4.12v3.91Z"/><path d="M129.68,353c.09,2-3.35,3.2-5.43,2.39a1.44,1.44,0,0,1-.41-.15,1.21,1.21,0,0,1-.2-.09c-2.68-1.33-1.8-4.1,1.2-4.43-2.52-.26-3.2-2-1.89-2.58a3.51,3.51,0,0,1,4.75-4.82s0,0,.07,0h0a3.31,3.31,0,0,1,1.52-.51c.07.26.13.51.18.77a0,0,0,0,1,0,0,3.53,3.53,0,0,0-1.13.19,3.5,3.5,0,0,1-3.88,5.72,1.51,1.51,0,0,1-.22-.11.7.7,0,0,1-.16-.1l-.19-.12a3.5,3.5,0,0,1-.81-.82.57.57,0,0,0-.4.48c0,1.31,2.79,1.35,3.77,1.53a7.16,7.16,0,0,1,1.09.26h0l.16.06h0l0,0A2.62,2.62,0,0,1,129.68,353Zm-2.11-2a2.57,2.57,0,0,0-.88-.2h-.21a3.38,3.38,0,0,0-1,.14c-1.92.38-3.56,3-1.35,4l0,0,.25.08a3.76,3.76,0,0,0,3.64-1.18A1.72,1.72,0,0,0,127.57,351.06ZM124.38,349l.06,0,.22.11a2.82,2.82,0,0,0,3.19-1.33,3.45,3.45,0,0,0,.36-.65,3,3,0,0,0-.11-2.84,1.84,1.84,0,0,0-.52-.52l-.06,0h0l-.07,0h0l-.17-.09C124.43,342.6,122,347.51,124.38,349Z"/><path d="M138.87,342.9v8.79h-1.18V350.2a3.92,3.92,0,0,1-2.84,1.32,3.81,3.81,0,0,1-3.87-3.87c0-2.16-.07-4.75-.07-4.75H132V347c0,2.09.8,4,2.85,4,1.84,0,2.82-1.68,2.82-4.11V342.9Z"/><path d="M140.79,351.69V342.9H142v1.49a3.92,3.92,0,0,1,2.84-1.32,4.13,4.13,0,0,1,3.87,3.87c0,2.16.06,4.75.06,4.75h-1.12v-4.05c0-2.09-1-4-2.86-4s-2.82,1.69-2.82,4.12v3.91Z"/><path d="M158.74,342.89v8.8h-1.15v-1.51a4.25,4.25,0,0,1-5,1.05l-.26-.13a3,3,0,0,1-.42-.27,4.27,4.27,0,0,1,2.49-7.76,4.1,4.1,0,0,1,2.12.57h0l0,0a4.45,4.45,0,0,1,1,.85v-1.64Zm-2.37,1.26-.06,0-.06,0L156,344a2.87,2.87,0,0,0-1-.17A3,3,0,0,0,154,344a4.26,4.26,0,0,0-2.09,1.88c-1,1.76-.76,3.82.57,4.64l.06,0,.27.14a2.81,2.81,0,0,0,2.09-.06,4.35,4.35,0,0,0,2.08-1.87C158,347,157.7,345,156.37,344.15Z"/><path d="M169.5,347.08a4.38,4.38,0,0,1-4.38,4.37,4.2,4.2,0,0,1-1.84-.41l-.28-.14a.63.63,0,0,1-.18-.12,1,1,0,0,1-.24-.15,4.45,4.45,0,0,1-.72-.64v5.5h-1.19V342.63h1.19v1.53a4.33,4.33,0,0,1,3.26-1.47,4.42,4.42,0,0,1,2.17.58h0l.05,0A4.36,4.36,0,0,1,169.5,347.08Zm-2.41-3.27-.06-.05-.06,0-.22-.1a2.22,2.22,0,0,0-.92-.18,2.89,2.89,0,0,0-1.13.23,4.38,4.38,0,0,0-2.13,1.92c-1,1.79-.77,3.89.58,4.74l.06,0,.29.14a2.68,2.68,0,0,0,2-.06,4.35,4.35,0,0,0,2.13-1.91C168.71,346.75,168.45,344.65,167.09,343.81Z"/><path d="M179.34,342.89v8.8h-1.15v-1.51a4.27,4.27,0,0,1-3.23,1.46,4.2,4.2,0,0,1-1.8-.41,1.66,1.66,0,0,1-.27-.13l-.18-.11a1.67,1.67,0,0,1-.24-.16,4.28,4.28,0,0,1,2.49-7.76,4.16,4.16,0,0,1,2.13.57h0s0,0,0,0a4.5,4.5,0,0,1,1,.85v-1.64ZM177,344.15l-.05,0-.06,0-.22-.11a2.83,2.83,0,0,0-1-.17,3,3,0,0,0-1.11.22,4.28,4.28,0,0,0-2.08,1.88c-1,1.76-.76,3.82.57,4.64l.05,0,.28.14a2.79,2.79,0,0,0,2.08-.06,4.26,4.26,0,0,0,2.08-1.87C178.55,347,178.29,345,177,344.15Z"/><path d="M188.07,343.9l-.79.8a2.79,2.79,0,0,0-2.65-1l-.07,0h-.06l-.24.08a1.94,1.94,0,0,0-.4.22s-1.26.54-1.44,3.36v4.28h-1.16V342.9h1.16v1.49a.27.27,0,0,1,.07-.08,4.19,4.19,0,0,1,1.91-1.09s0,0,0,0h.06A4.24,4.24,0,0,1,188.07,343.9Z"/><path d="M196,350.63a3.13,3.13,0,0,1-2.43,1.06c-2.87,0-3.89-3-3.89-5.05v-2.87h-.93v-.46h.93v-3.76h1.23v3.76h2.58v.46h-2.58c0,1,0,2.8,0,3.28,0,1.42.47,4.05,2.63,4.05a2.11,2.11,0,0,0,1.82-1C195.54,350.3,195.76,350.46,196,350.63Z"/><path d="M203.47,348.22h1.42a4.29,4.29,0,0,1-6,3.07l-.27-.13-.18-.12a1.25,1.25,0,0,1-.24-.16,4.28,4.28,0,0,1,4.62-7.19h0l.05,0a4.26,4.26,0,0,1,2,3H197.8a3.2,3.2,0,0,0,.94,3.82l.07,0a2.29,2.29,0,0,0,.27.14,2.61,2.61,0,0,0,2-.06,4.37,4.37,0,0,0,2.09-1.87A5.11,5.11,0,0,0,203.47,348.22ZM198,346.31h5.78a2.68,2.68,0,0,0-1.16-2.11l-.07,0,0,0-.22-.11a2.25,2.25,0,0,0-.9-.17,3,3,0,0,0-1.11.22,4.3,4.3,0,0,0-2.09,1.88C198.11,346.08,198,346.19,198,346.31Z"/><path d="M216.71,349.07a4,4,0,0,1-3.05,1.57,4.2,4.2,0,0,1-1.8-.41l-.27-.13-.18-.11a1.88,1.88,0,0,1-.23-.16,4.28,4.28,0,0,1,4.61-7.2h0a.1.1,0,0,1,.05,0,4.4,4.4,0,0,1,1,.85v-1.64H218s-.43,5.34-.44,7.25c0,1,0,1.61.41,1.69a1.94,1.94,0,0,0,1.88-1,7.41,7.41,0,0,0,1-6.24,6.49,6.49,0,0,0-8.95-3.84c-3.18,1.48-5.74,5.9-4.31,9.88a6.39,6.39,0,0,0,4,4,7.21,7.21,0,0,0,6.33-1l.11-.07.41.4-.14.1a8.05,8.05,0,0,1-4.8,1.58,8,8,0,0,1-2.32-.34,6.93,6.93,0,0,1-4.61-4.26c-1.44-4,.78-8.76,5-10.79a7.37,7.37,0,0,1,6-.24,7,7,0,0,1,3,10.71,4,4,0,0,1-3,2h0a1.17,1.17,0,0,1-1.05-1.17A8.35,8.35,0,0,1,216.71,349.07Zm-1.05-5.92-.06,0,0,0-.22-.11a2.61,2.61,0,0,0-1-.17,3,3,0,0,0-1.11.22,4.28,4.28,0,0,0-2.08,1.88c-1,1.75-.76,3.82.57,4.64l.06,0,.27.15a2.83,2.83,0,0,0,2.08-.06,4.28,4.28,0,0,0,2.08-1.88C217.25,346,217,344,215.66,343.15Z"/><path d="M230.91,353c.09,2-3.35,3.2-5.43,2.39a1.56,1.56,0,0,1-.41-.15,1.21,1.21,0,0,1-.2-.09c-2.67-1.33-1.8-4.1,1.2-4.43-2.52-.26-3.2-2-1.89-2.58a3.51,3.51,0,0,1,4.75-4.82s0,0,.07,0h0a3.23,3.23,0,0,1,1.51-.51c.07.26.13.51.18.77a0,0,0,0,1,0,0,3.53,3.53,0,0,0-1.13.19,3.5,3.5,0,0,1-3.88,5.72,1.51,1.51,0,0,1-.22-.11.65.65,0,0,1-.15-.1.76.76,0,0,1-.19-.12,3.36,3.36,0,0,1-.82-.82.55.55,0,0,0-.39.48c0,1.31,2.78,1.35,3.76,1.53a6.54,6.54,0,0,1,1.09.26h0l.17.06h0l0,0A2.62,2.62,0,0,1,230.91,353Zm-2.1-2a2.63,2.63,0,0,0-.89-.2h-.21a3.43,3.43,0,0,0-1,.14c-1.92.38-3.56,3-1.35,4l0,0,.25.08a3.76,3.76,0,0,0,3.64-1.18A1.72,1.72,0,0,0,228.81,351.06Zm-3.2-2.06.06,0,.22.11a2.82,2.82,0,0,0,3.19-1.33,3.45,3.45,0,0,0,.36-.65,3,3,0,0,0-.11-2.84,1.72,1.72,0,0,0-.52-.52l-.06,0h0l-.07,0h0l-.17-.09C225.66,342.6,223.22,347.51,225.61,349Z"/><path d="M246.06,347.61v4.08h-1s0-2.34,0-3.89-.48-4.14-2.65-4.14-2.62,2.63-2.62,4,0,4,0,4h-1s0-2.34,0-3.89a5.33,5.33,0,0,0,0-.67c-.12-1.52-.73-3.47-2.61-3.47s-2.55,2.31-2.61,3.77v4.26h-1.18v-8.8h1.18v1.48a3.35,3.35,0,0,1,5.77.82,3.42,3.42,0,0,1,3.17-2.12C245,343.07,246.06,345.4,246.06,347.61Z"/><path d="M256.1,342.89v8.8H255v-1.51a4.27,4.27,0,0,1-3.23,1.46,4.2,4.2,0,0,1-1.8-.41,1.66,1.66,0,0,1-.27-.13l-.18-.11a1.67,1.67,0,0,1-.24-.16,4.28,4.28,0,0,1,2.49-7.76,4.16,4.16,0,0,1,2.13.57h0s0,0,0,0a4.5,4.5,0,0,1,1,.85v-1.64Zm-2.38,1.26-.05,0-.06,0-.22-.11a2.83,2.83,0,0,0-1-.17,3,3,0,0,0-1.11.22,4.28,4.28,0,0,0-2.08,1.88c-1,1.76-.76,3.82.57,4.64l0,0,.28.14a2.79,2.79,0,0,0,2.08-.06,4.26,4.26,0,0,0,2.08-1.87C255.31,347,255.05,345,253.72,344.15Z"/><path d="M257.87,340.57a.75.75,0,1,1,.75.76A.76.76,0,0,1,257.87,340.57Zm.16,11.12v-8.8h1.18v8.8Z"/><path d="M261.16,351.69V339.55h1.18v12.14Z"/><path d="M263.87,350.94a.76.76,0,0,1,1.51,0,.76.76,0,0,1-1.51,0Z"/><path d="M273.62,348.22H275a4.29,4.29,0,0,1-4.21,3.47,4,4,0,0,1-1.8-.41,1.66,1.66,0,0,1-.27-.13.93.93,0,0,1-.19-.11,1.6,1.6,0,0,1-.23-.16,4.25,4.25,0,0,1-1.8-3.48,4.29,4.29,0,0,1,4.29-4.28,4.13,4.13,0,0,1,2.12.57h0s0,0,0,0a4.25,4.25,0,0,1,2.05,3h-1.12a2.79,2.79,0,0,0-1.19-2.57h0a.41.41,0,0,0-.11-.07s0,0,.05,0l0,0,0,0-.05,0-.22-.11a2.29,2.29,0,0,0-.9-.17,3,3,0,0,0-1.11.22,4.31,4.31,0,0,0-2.09,1.88c-1,1.76-.75,3.81.57,4.64l.06,0,.28.14a2.65,2.65,0,0,0,2-.06,4.35,4.35,0,0,0,2.08-1.87A4.5,4.5,0,0,0,273.62,348.22Z"/><path d="M285,347.32a4.37,4.37,0,0,1-6.22,4l-.27-.14a.76.76,0,0,1-.19-.12.91.91,0,0,1-.24-.16,4.33,4.33,0,0,1-1.84-3.54,4.39,4.39,0,0,1,4.38-4.38,4.32,4.32,0,0,1,2.17.58h0l.05,0A4.34,4.34,0,0,1,285,347.32Zm-2.41-3.26a.47.47,0,0,0-.12-.07l-.22-.12a2.59,2.59,0,0,0-.92-.17,3.08,3.08,0,0,0-1.13.23,4.33,4.33,0,0,0-2.13,1.92c-1,1.79-.77,3.89.58,4.73l.07,0a1.74,1.74,0,0,0,.27.14,2.66,2.66,0,0,0,2.05-.06,4.35,4.35,0,0,0,2.13-1.91C284.17,347,283.9,344.9,282.55,344.06Z"/><path d="M300.21,347.61v4.08h-1s0-2.34,0-3.89-.48-4.14-2.65-4.14-2.62,2.63-2.62,4,0,4,0,4h-1s0-2.34,0-3.89a5.33,5.33,0,0,0,0-.67c-.12-1.52-.73-3.47-2.61-3.47s-2.55,2.31-2.61,3.77v4.26H286.5v-8.8h1.18v1.48a3.35,3.35,0,0,1,5.77.82,3.42,3.42,0,0,1,3.17-2.12C299.13,343.07,300.21,345.4,300.21,347.61Z"/><path d="M80.07,354.06v-.95H301.25v.95Z"/><path d="M80.31,392.79h3V393a.84.84,0,0,0-.81.87v17.94a.77.77,0,0,0,.81.81v.24h-3v-.24a.87.87,0,0,0,.87-.87V393.9a.82.82,0,0,0-.27-.63.84.84,0,0,0-.6-.24Z"/><path d="M85.2,401.58h2.19v0a.5.5,0,0,0,.72.42,3.64,3.64,0,0,1,5.4,3.18v.09l-.06,6.48a.91.91,0,0,0,.87.87v.24h-.87l-2.19,0v-.24a.86.86,0,0,0,.87-.84v-.54l0-6.42v-1.14c0-1.35-1.23-1.86-2.37-1.86s-2.28.54-2.34,1.83v1.05l0,7.08a.87.87,0,0,0,.87.87v.24H85.2v-.27a.93.93,0,0,0,.87-.84v-9.09a.91.91,0,0,0-.87-.87Z"/><path d="M96.27,404.07a4,4,0,0,1,3.84-2.46h0a4.71,4.71,0,0,1,1.47.21.41.41,0,0,0,.51-.51,4.5,4.5,0,0,1-.15-1.11,3.86,3.86,0,0,1,7.68-.54,4.65,4.65,0,0,1-.06,1.44.56.56,0,0,0,.54.69H111V402h-.84a1,1,0,0,0-1,1v.9l0,7a2.43,2.43,0,0,0,2.52,2.31,2.32,2.32,0,0,0,2.34-2.34v0h.21V411a2.67,2.67,0,0,1-2.64,2.46h-1.26a3,3,0,0,1-.51-.06,2.61,2.61,0,0,1-2-2.55v-.06l0-7.29v-.27a3.74,3.74,0,0,0,1.68-3.06,3.65,3.65,0,0,0-7.26-.45,3.53,3.53,0,0,0,1.26,3.21,3.41,3.41,0,0,0,.69.45v.78h-.27a3.55,3.55,0,0,0-3.09-2.31A3.94,3.94,0,0,0,97.47,403a2.6,2.6,0,0,0-.66,1.23,2.23,2.23,0,0,0,.18,1.32,3.25,3.25,0,0,0,2,1.59c.48.15,1,.33,1.47.48l1.08.42a3.47,3.47,0,0,1,1.68,1.47,2.51,2.51,0,0,1,.21,1.74,3,3,0,0,1-2.4,2,4.92,4.92,0,0,1-.69.06h-.09a3.29,3.29,0,0,1-2.37-.9.31.31,0,0,0-.54.21v.6h-.24v-2.52h.24a2.19,2.19,0,0,0,.69,1.56c.09.09.21.15.3.24a3.18,3.18,0,0,0,1.92.6h.09a2.83,2.83,0,0,0,1.92-.78,1.68,1.68,0,0,0,.21-2.4,2.44,2.44,0,0,0-1-.72l-.69-.21c-.24-.09-.48-.15-.72-.24-.48-.18-1-.33-1.44-.54a4.24,4.24,0,0,1-1.14-.63l-.33-.3a3.36,3.36,0,0,1-.9-1.5A2.87,2.87,0,0,1,96.27,404.07Z"/><path d="M114.87,409.05a3.64,3.64,0,0,1,1.8-2.43,24.07,24.07,0,0,0,4.41-3.15.56.56,0,0,0,.06-.75,2.08,2.08,0,0,0-1.59-1,3.45,3.45,0,0,0-3.45,3.45h-.24a3.68,3.68,0,0,1,3.69-3.66,3.86,3.86,0,0,1,2.55,1,4.06,4.06,0,0,1,1.08,3.21v6.06a.82.82,0,0,0,.24.57.9.9,0,0,0,.57.24v.21h-2.13v-.81a.23.23,0,0,0-.42-.12,3.69,3.69,0,0,1-2.58,1.53,3.65,3.65,0,0,1-4-4.41Zm.69.18a4.49,4.49,0,0,0,4,3.54,1.8,1.8,0,0,0,1.26-.45l0,0a3.43,3.43,0,0,0,1-2v-5.46a3.74,3.74,0,0,0-.12-1,.32.32,0,0,0-.54-.15,21.56,21.56,0,0,1-4.41,3.12,3.85,3.85,0,0,0-.78.6A1.91,1.91,0,0,0,115.56,409.23Z"/><path d="M126.33,416.67a3.86,3.86,0,0,1,2.37-.54c1.38,0,2.76,0,4.11.09q1.35.09,2.7.09a2.32,2.32,0,0,0,1.2-.21,2.27,2.27,0,0,0,.9-.69,2,2,0,0,0,.36-2,2.05,2.05,0,0,0-2-1.26,2.26,2.26,0,0,0-1.23.36,6.12,6.12,0,0,1-3.33,1,6,6,0,0,1-4.26-10.17,5.94,5.94,0,0,1,8.43-.09c.15.12.24.27.42.42a.61.61,0,0,0,.69.15,2.45,2.45,0,0,0,1.38-2.22h.24a2.69,2.69,0,0,1-1.41,2.37.6.6,0,0,0-.21.75,6,6,0,0,1-.3,6.12.55.55,0,0,0,.24.84,2.76,2.76,0,0,1,1.68,2.46v0a2.84,2.84,0,0,1-2.37,3,18.76,18.76,0,0,1-2.61.18c-1.44,0-2.91.09-4.35.09a3.51,3.51,0,0,0-2.07.36,2.09,2.09,0,0,0-1,1.47,2.22,2.22,0,0,0,0,.63,2.25,2.25,0,0,0,1.29,1.68,4.28,4.28,0,0,0,1.38.21c1.26.06,2.55.09,3.81.09a4.38,4.38,0,0,0,2.4-.39,2.43,2.43,0,0,0,1.2-2.1h.24a2.32,2.32,0,0,1-.06.45c-.39,1.92-1.89,2.34-3.6,2.34-.9,0-1.8,0-2.73,0-.72,0-1.59.06-2.28,0a2.82,2.82,0,0,1-2-1.17A3,3,0,0,1,126.33,416.67Zm-.12-9.63a6.74,6.74,0,0,0,6.3,5.7,4.12,4.12,0,0,0,3-1.2,4.22,4.22,0,0,0,1.11-3.51,6.75,6.75,0,0,0-6.3-5.73,4.24,4.24,0,0,0-3,1.2A4.31,4.31,0,0,0,126.21,407Z"/><path d="M139.86,401.58h2.19v0a.5.5,0,0,0,.72.42,3.58,3.58,0,0,1,4.08.42,4.72,4.72,0,0,1,.9,1.14h-.93a1.68,1.68,0,0,0-1-1.5s0,0-.06,0a3.53,3.53,0,0,0-1.29-.24,3.49,3.49,0,0,0-1.26.24h0a1.83,1.83,0,0,0-1,1.59v1.05l0,7.08a.87.87,0,0,0,.87.87v.24h-3.09v-.27h.06a.88.88,0,0,0,.81-.84v-9.09a.93.93,0,0,0-.87-.87Z"/><path d="M148.14,409.05a3.64,3.64,0,0,1,1.8-2.43,24.07,24.07,0,0,0,4.41-3.15.56.56,0,0,0,.06-.75,2.08,2.08,0,0,0-1.59-1,3.45,3.45,0,0,0-3.45,3.45h-.24a3.68,3.68,0,0,1,3.69-3.66,3.86,3.86,0,0,1,2.55,1,4.06,4.06,0,0,1,1.08,3.21v6.06a.82.82,0,0,0,.24.57.9.9,0,0,0,.57.24v.21h-2.13v-.81a.23.23,0,0,0-.42-.12,3.69,3.69,0,0,1-2.58,1.53,3.65,3.65,0,0,1-4-4.41Zm.69.18a4.49,4.49,0,0,0,4,3.54,1.8,1.8,0,0,0,1.26-.45l0,0a3.43,3.43,0,0,0,1-2v-5.46a3.74,3.74,0,0,0-.12-1,.32.32,0,0,0-.54-.15,21.56,21.56,0,0,1-4.41,3.12,3.85,3.85,0,0,0-.78.6A1.91,1.91,0,0,0,148.83,409.23Z"/><path d="M158.91,412.62a.94.94,0,0,0,.87-.84v-9.09a.91.91,0,0,0-.87-.87v-.24h2.19v0a.5.5,0,0,0,.72.42,3.66,3.66,0,0,1,1.67-.45,3.76,3.76,0,0,1,2.41.87l.38.39a.32.32,0,0,0,.51,0,3.7,3.7,0,0,1,6.48,2.37v.09l-.06,6.48a.91.91,0,0,0,.87.87v.24h-.87l-2.22,0v-.24a.88.88,0,0,0,.9-.84v-.54l0-6.42v-1.14c0-1.32-1.22-1.86-2.37-1.86a3.87,3.87,0,0,0-1.29.24,1.74,1.74,0,0,0-1,1.59v1.05l0,7.08a.91.91,0,0,0,.84.87v.24h-.87l-2.2,0v-.24a.93.93,0,0,0,.87-.84v-.54l0-5.94v-1.62c0-1.32-1.23-1.86-2.37-1.86s-2.27.51-2.33,1.83v1.05l0,7.08a.88.88,0,0,0,.24.6.83.83,0,0,0,.63.27v.24h-3.08Z"/><path d="M91.06,433.07a4,4,0,0,1-3,1.57,4.22,4.22,0,0,1-1.81-.41L86,434.1a1.18,1.18,0,0,1-.19-.11,1.88,1.88,0,0,1-.23-.16,4.28,4.28,0,0,1,4.61-7.2h0a.1.1,0,0,1,0,0,4.21,4.21,0,0,1,1,.85v-1.64h1.15s-.42,5.34-.44,7.25c0,1,0,1.61.41,1.69a1.94,1.94,0,0,0,1.88-1,7.37,7.37,0,0,0,1-6.24,6.45,6.45,0,0,0-3.62-3.95,6.56,6.56,0,0,0-5.33.11c-3.18,1.48-5.73,5.9-4.31,9.88a6.39,6.39,0,0,0,4,4,7.24,7.24,0,0,0,6.34-1l.1-.07.41.4-.14.1a8.05,8.05,0,0,1-4.8,1.58,8,8,0,0,1-2.32-.34A6.93,6.93,0,0,1,81,434c-1.44-4,.78-8.76,5-10.79a7.37,7.37,0,0,1,6-.24,7.25,7.25,0,0,1,4,4.19,7.33,7.33,0,0,1-1,6.52,4,4,0,0,1-3,2h0a1.17,1.17,0,0,1-1-1.17A8.35,8.35,0,0,1,91.06,433.07Zm-1-5.92-.06,0,0,0-.22-.11a2.61,2.61,0,0,0-1-.17,3,3,0,0,0-1.11.22,4.28,4.28,0,0,0-2.08,1.88c-1,1.75-.76,3.82.57,4.64l.06,0,.27.15a2.83,2.83,0,0,0,2.08-.06,4.28,4.28,0,0,0,2.08-1.88C91.6,430,91.34,428,90,427.15Z"/><path d="M104.9,432.22h1.41a4.28,4.28,0,0,1-4.21,3.47,4.36,4.36,0,0,1-1.81-.4l-.26-.13-.18-.12a1.25,1.25,0,0,1-.24-.16,4.28,4.28,0,0,1,4.61-7.19h0a.1.1,0,0,1,.05,0,4.25,4.25,0,0,1,2,3H99.23a3.18,3.18,0,0,0,.94,3.82l.07,0a1.71,1.71,0,0,0,.27.14,2.58,2.58,0,0,0,2-.06,4.32,4.32,0,0,0,2.09-1.87A4,4,0,0,0,104.9,432.22Zm-5.48-1.91h5.78A2.69,2.69,0,0,0,104,428.2l-.06,0-.06,0-.21-.11a2.34,2.34,0,0,0-.91-.17,3,3,0,0,0-1.11.22A4.33,4.33,0,0,0,99.6,430C99.54,430.08,99.47,430.19,99.42,430.31Z"/><path d="M107.86,435.69V426.9h1.19v1.49a3.92,3.92,0,0,1,2.84-1.32,4.12,4.12,0,0,1,3.87,3.87c0,2.16.06,4.75.06,4.75H114.7v-4.05c0-2.09-1-4-2.86-4s-2.82,1.69-2.82,4.12v3.91Z"/><path d="M117.53,435.69V426.9h1.19v1.49a3.92,3.92,0,0,1,2.84-1.32,4.12,4.12,0,0,1,3.87,3.87c0,2.16.06,4.75.06,4.75h-1.12v-4.05c0-2.09-1-4-2.85-4s-2.83,1.69-2.83,4.12v3.91Z"/><path d="M127.06,424.57a.75.75,0,0,1,1.5,0,.75.75,0,1,1-1.5,0Zm.16,11.12v-8.8h1.18v8.8Z"/><path d="M130.34,435.69V426.9h1.18v1.49a4,4,0,0,1,2.84-1.32,4.13,4.13,0,0,1,3.88,3.87c0,2.16.06,4.75.06,4.75h-1.12v-4.05c0-2.09-1-4-2.86-4s-2.82,1.69-2.82,4.12v3.91Z"/><path d="M147.08,437c.09,2-3.34,3.2-5.43,2.39a1.56,1.56,0,0,1-.41-.15,1.21,1.21,0,0,1-.2-.09c-2.67-1.33-1.8-4.1,1.2-4.43-2.52-.26-3.2-2-1.89-2.58a3.51,3.51,0,0,1,4.75-4.82s.05,0,.08,0h0a3.23,3.23,0,0,1,1.51-.51c.07.26.13.51.18.77a0,0,0,0,1,0,0,3.53,3.53,0,0,0-1.13.19,3.5,3.5,0,0,1-3.88,5.72,1.51,1.51,0,0,1-.22-.11.65.65,0,0,1-.15-.1.76.76,0,0,1-.19-.12,3.36,3.36,0,0,1-.82-.82.55.55,0,0,0-.39.48c0,1.31,2.78,1.35,3.76,1.53a6.54,6.54,0,0,1,1.09.26h0a1.15,1.15,0,0,1,.17.06h0l0,0A2.62,2.62,0,0,1,147.08,437Zm-2.1-2a2.63,2.63,0,0,0-.89-.2h-.21a3.48,3.48,0,0,0-1,.14c-1.91.38-3.56,3-1.35,4l.06,0,.24.08a3.79,3.79,0,0,0,3.65-1.18A1.72,1.72,0,0,0,145,435.06Zm-3.2-2.06.06,0,.22.11a2.82,2.82,0,0,0,3.19-1.33,3.45,3.45,0,0,0,.36-.65,2.94,2.94,0,0,0-.11-2.84,1.8,1.8,0,0,0-.51-.52l-.06,0h0l-.07,0h0l-.18-.09C141.83,426.6,139.39,431.51,141.78,433Z"/><path d="M156.28,426.9v8.79h-1.19V434.2a3.92,3.92,0,0,1-2.84,1.32,3.81,3.81,0,0,1-3.87-3.87c0-2.16-.06-4.75-.06-4.75h1.12V431c0,2.09.8,4,2.86,4,1.83,0,2.82-1.68,2.82-4.11V426.9Z"/><path d="M158.2,435.69V426.9h1.18v1.49a3.92,3.92,0,0,1,2.84-1.32,4.12,4.12,0,0,1,3.87,3.87c0,2.16.07,4.75.07,4.75H165v-4.05c0-2.09-1-4-2.85-4s-2.82,1.69-2.82,4.12v3.91Z"/><path d="M176.15,426.89v8.8H175v-1.51a4.25,4.25,0,0,1-3.22,1.46,4.2,4.2,0,0,1-1.8-.41,1.66,1.66,0,0,1-.27-.13l-.19-.11-.23-.16a4.28,4.28,0,0,1,2.49-7.76,4.16,4.16,0,0,1,2.13.57h0s0,0,0,0a4.25,4.25,0,0,1,1,.85v-1.64Zm-2.38,1.26-.05,0-.06,0-.22-.11a2.83,2.83,0,0,0-1-.17,3,3,0,0,0-1.11.22,4.24,4.24,0,0,0-2.08,1.88c-1,1.76-.76,3.82.57,4.64l.05,0,.28.14a2.79,2.79,0,0,0,2.08-.06,4.26,4.26,0,0,0,2.08-1.87C175.36,431,175.1,429,173.77,428.15Z"/><path d="M186.91,431.08a4.38,4.38,0,0,1-4.38,4.37,4.22,4.22,0,0,1-1.85-.41l-.28-.14a.63.63,0,0,1-.18-.12,1.2,1.2,0,0,1-.24-.15,5.49,5.49,0,0,1-.72-.64v5.5h-1.19V426.63h1.19v1.53a4.37,4.37,0,0,1,3.27-1.47,4.41,4.41,0,0,1,2.16.58h0a.1.1,0,0,1,0,0A4.34,4.34,0,0,1,186.91,431.08Zm-2.41-3.27-.06-.05s0,0-.07,0l-.21-.1a2.25,2.25,0,0,0-.92-.18,2.9,2.9,0,0,0-1.14.23A4.38,4.38,0,0,0,180,429.6c-1,1.79-.77,3.89.58,4.74l.06,0,.29.14a2.71,2.71,0,0,0,2-.06,4.33,4.33,0,0,0,2.12-1.91C186.12,430.75,185.85,428.65,184.5,427.81Z"/><path d="M196.74,426.89v8.8h-1.15v-1.51a4.27,4.27,0,0,1-3.22,1.46,4.22,4.22,0,0,1-1.81-.41l-.26-.13a3,3,0,0,1-.42-.27,4.27,4.27,0,0,1,2.49-7.76,4.15,4.15,0,0,1,2.12.57h0a.1.1,0,0,1,.05,0,4.45,4.45,0,0,1,1,.85v-1.64Zm-2.37,1.26-.06,0-.06,0L194,428a2.91,2.91,0,0,0-1-.17A3,3,0,0,0,192,428a4.28,4.28,0,0,0-2.08,1.88c-1,1.76-.76,3.82.57,4.64l.06,0,.27.14a2.78,2.78,0,0,0,2.08-.06,4.32,4.32,0,0,0,2.09-1.87C196,431,195.69,429,194.37,428.15Z"/><path d="M205.48,427.9l-.79.8a2.81,2.81,0,0,0-2.66-1l-.07,0h-.06l-.24.08a2.24,2.24,0,0,0-.4.22s-1.25.54-1.44,3.36v4.28h-1.15V426.9h1.15v1.49l.07-.08a4.24,4.24,0,0,1,1.91-1.09,0,0,0,0,1,0,0h.05A4.26,4.26,0,0,1,205.48,427.9Z"/><path d="M213.38,434.63a3.11,3.11,0,0,1-2.42,1.06c-2.88,0-3.9-3-3.9-5.05v-2.87h-.93v-.46h.93v-3.76h1.24v3.76h2.57v.46H208.3c0,1,0,2.8,0,3.28,0,1.42.46,4.05,2.62,4.05a2.13,2.13,0,0,0,1.83-1C213,434.3,213.16,434.46,213.38,434.63Z"/><path d="M220.88,432.22h1.41a4.29,4.29,0,0,1-4.22,3.47,4.35,4.35,0,0,1-1.8-.4l-.27-.13-.18-.12a1.19,1.19,0,0,1-.23-.16,4.28,4.28,0,0,1,4.61-7.19h0a.1.1,0,0,1,.05,0,4.3,4.3,0,0,1,2,3H215.2a3.19,3.19,0,0,0,1,3.82l.06,0a2.44,2.44,0,0,0,.28.14,2.58,2.58,0,0,0,2-.06,4.32,4.32,0,0,0,2.09-1.87A4,4,0,0,0,220.88,432.22Zm-5.48-1.91h5.77A2.68,2.68,0,0,0,220,428.2l-.06,0-.06,0-.22-.11a2.25,2.25,0,0,0-.9-.17,3,3,0,0,0-1.11.22,4.28,4.28,0,0,0-2.08,1.88A2.91,2.91,0,0,0,215.4,430.31Z"/><path d="M80.07,438.06v-.95H223.12v.95Z"/><path class="cls-2" d="M196.92,11.82h0c-104.4,0-189,84.63-189,189V577.92H385.94V200.84C385.94,96.45,301.31,11.82,196.92,11.82Z"/><path class="cls-2" d="M196.92,23.54h0a181.2,181.2,0,0,0-181.2,181.2V566.2h362.4V204.74A181.2,181.2,0,0,0,196.92,23.54Z"/><path class="cls-2" d="M196.92,35.36h0A173.3,173.3,0,0,0,23.61,208.66V554.38H370.22V208.66A173.3,173.3,0,0,0,196.92,35.36Z"/><path class="cls-2" d="M196.92,47.15h0A165.43,165.43,0,0,0,31.48,212.58v330H362.35v-330A165.43,165.43,0,0,0,196.92,47.15Z"/><path class="cls-2" d="M196.92,59h0A157.53,157.53,0,0,0,39.38,216.5V530.77H354.46V216.5A157.54,157.54,0,0,0,196.92,59Z"/><path class="cls-2" d="M196.92,70.78h0A149.65,149.65,0,0,0,47.27,220.43V519H346.56V220.43A149.64,149.64,0,0,0,196.92,70.78Z"/><path class="cls-2" d="M196.92,82.87h0A141.67,141.67,0,0,0,55.24,224.54V507.17H338.59V224.54A141.67,141.67,0,0,0,196.92,82.87Z"/><polygon class="cls-3" points="196.92 543.87 198.33 580.42 210.95 546.09 200.99 581.28 223.6 552.54 203.26 582.93 233.65 562.58 204.91 585.2 240.11 575.25 205.78 587.87 242.32 589.27 205.78 590.68 240.11 603.31 204.91 593.34 233.65 615.96 203.26 595.61 223.6 626 200.99 597.26 210.95 632.46 198.33 598.13 196.92 634.67 195.52 598.13 182.89 632.46 192.85 597.26 170.23 626 190.58 595.61 160.19 615.96 188.93 593.34 153.74 603.31 188.06 590.68 151.52 589.27 188.06 587.87 153.74 575.25 188.93 585.2 160.19 562.58 190.58 582.93 170.23 552.54 192.85 581.28 182.89 546.09 195.52 580.42 196.92 543.87"/><path d="M264.9,246.85c.53-.63,1.07-1.26,1.63-1.87a8,8,0,0,1,.84-.91,5.42,5.42,0,0,1,1-.72l0,0a5.91,5.91,0,0,1-.72,1,8,8,0,0,1-.91.84l-1.87,1.63Z"/></g></g></svg>