<svg xmlns="http://www.w3.org/2000/svg" viewBox="0 0 42 19.5"><defs><style>.cls-1{fill:#eeeeec;}</style></defs><g id="Capa_2" data-name="Capa 2"><g id="Capa_1-2" data-name="Capa 1"><path d="M9.75,19.5A9.75,9.75,0,1,1,19.5,9.75,9.76,9.76,0,0,1,9.75,19.5ZM9.75.66a9.09,9.09,0,1,0,9.09,9.09A9.1,9.1,0,0,0,9.75.66Z"/><path d="M9.75,14.68a4.2,4.2,0,0,1-4.1-3.33l.64-.13a3.54,3.54,0,0,0,6.92,0l.64.13A4.21,4.21,0,0,1,9.75,14.68Z"/><circle cx="6.38" cy="7.3" r="0.83"/><circle cx="13.12" cy="7.3" r="0.83"/><path d="M32.5,0A9.5,9.5,0,1,0,42,9.5,9.51,9.51,0,0,0,32.5,0Z"/><path class="cls-1" d="M32.5,14.64a4.41,4.41,0,0,1-4.3-3.49l1-.2a3.39,3.39,0,0,0,6.64,0l1,.21A4.42,4.42,0,0,1,32.5,14.64Z"/><circle class="cls-1" cx="29.1" cy="7.03" r="0.84"/><circle class="cls-1" cx="35.9" cy="7.03" r="0.84"/></g></g></svg>