<svg xmlns="http://www.w3.org/2000/svg" viewBox="0 0 154.53 226"><defs><style>.cls-1{font-size:17px;}.cls-1,.cls-9{font-family:Doppelganger-Display, Doppelganger;}.cls-2,.cls-3{fill:none;stroke:#000;stroke-miterlimit:10;}.cls-2{stroke-width:0.5px;}.cls-3{stroke-width:1.5px;}.cls-4{font-size:17.5px;letter-spacing:0.03em;}.cls-4,.cls-7{font-family:CyreneRegular, Cyrene;}.cls-5{letter-spacing:-0.05em;}.cls-6{letter-spacing:0.01em;}.cls-7{font-size:14.28px;letter-spacing:0.02em;}.cls-8{letter-spacing:0.03em;}.cls-9{font-size:37.29px;letter-spacing:0.02em;}.cls-10{fill-rule:evenodd;}</style></defs><g id="Capa_2" data-name="Capa 2"><g id="Capa_1-2" data-name="Capa 1"><text class="cls-1" transform="translate(23.32 74.86) rotate(-88.9) scale(1.05 1)">u</text><text class="cls-1" transform="translate(23.44 68.87) rotate(-80.97) scale(1.05 1)">n</text><text class="cls-1" transform="translate(24.43 62.98) rotate(-73.98) scale(1.05 1)"> </text><text class="cls-1" transform="translate(25.58 58.57) rotate(-65.88) scale(1.05 1)">e</text><text class="cls-1" transform="matrix(0.54, -0.91, 0.86, 0.51, 29, 51.34)">j</text><text class="cls-1" transform="matrix(0.63, -0.84, 0.8, 0.6, 30.12, 49.17)">e</text><text class="cls-1" transform="translate(34.98 42.89) rotate(-45.49) scale(1.05 1)">r</text><text class="cls-1" transform="matrix(0.82, -0.67, 0.63, 0.77, 37.8, 39.85)">c</text><text class="cls-1" transform="translate(43.81 35.1) rotate(-34) scale(1.05 1)">i</text><text class="cls-1" transform="matrix(0.93, -0.5, 0.48, 0.88, 45.8, 33.61)">c</text><text class="cls-1" transform="translate(52.59 30.05) rotate(-23.51) scale(1.05 1)">i</text><text class="cls-1" transform="matrix(1, -0.33, 0.31, 0.95, 54.82, 28.95)">o</text><text class="cls-1" transform="translate(62.54 26.52) rotate(-11.98) scale(1.05 1)"> </text><text class="cls-1" transform="translate(67.06 25.49) rotate(-6.06) scale(1.05 1)">d</text><text class="cls-1" transform="matrix(1.05, 0.02, -0.02, 1, 74.68, 24.68)">e</text><text class="cls-1" transform="translate(82.71 24.95) rotate(7.23) scale(1.05 1)"> </text><text class="cls-1" transform="translate(87.31 25.46) rotate(13.19) scale(1.05 1)">p</text><text class="cls-1" transform="translate(94.8 27.21) rotate(20.88) scale(1.05 1)">e</text><text class="cls-1" transform="matrix(0.93, 0.49, -0.46, 0.89, 102.24, 30.14)">r</text><text class="cls-1" transform="translate(106.71 32.3) rotate(35.07) scale(1.05 1)">m</text><text class="cls-1" transform="translate(114.47 37.9) rotate(43.69) scale(1.05 1)">a</text><text class="cls-1" transform="matrix(0.67, 0.81, -0.77, 0.63, 118.99, 42.23)">n</text><text class="cls-1" transform="translate(122.81 46.79) rotate(59.03) scale(1.05 1)">e</text><text class="cls-1" transform="translate(126.8 53.59) rotate(67.75) scale(1.05 1)">n</text><text class="cls-1" transform="translate(129.12 59.03) rotate(76.76) scale(1.05 1)">c</text><text class="cls-1" transform="matrix(0.13, 1.05, -0.99, 0.12, 130.72, 66.46)">i</text><text class="cls-1" transform="translate(131.1 68.9) rotate(88.96) scale(1.05 1)">a</text><path class="cls-2" d="M77.26,7.75C39,7.75,8,36.83,8,72.69v73.06H146.52V72.69C146.52,36.83,115.51,7.75,77.26,7.75Z"/><path class="cls-3" d="M153.78,72.5C153.78,32.87,119.52.75,77.26.75S.75,32.87.75,72.5c0,.18,0,.36,0,.54V225.25h153V73C153.77,72.86,153.78,72.68,153.78,72.5Z"/><text class="cls-4" transform="translate(6.98 220.6)">EN NINGUNA <tspan class="cls-5" x="95.18" y="0">P</tspan><tspan x="102.97" y="0">A</tspan><tspan class="cls-6" x="114.06" y="0">R</tspan><tspan x="123.25" y="0">TE</tspan></text><path d="M85.3,54.34c-6.37.1-7.42,1.18-7.31,7.55-.11-6.37-1.19-7.41-7.56-7.3,6.37-.11,7.42-1.19,7.31-7.56C77.85,53.4,78.93,54.44,85.3,54.34Z"/><text class="cls-7" transform="translate(138.2 128.44) rotate(180)">2<tspan class="cls-8" x="6.81" y="0">0</tspan></text><text class="cls-7" transform="translate(16.33 137.09)">2<tspan class="cls-8" x="6.81" y="0">0</tspan></text><text class="cls-9" transform="translate(112.01 190.93)">L</text><text class="cls-9" transform="translate(27.76 190.93)">M</text><polygon class="cls-10" points="81.51 169.75 81.81 177.38 84.44 170.21 82.36 177.56 87.08 171.56 82.83 177.91 89.18 173.66 83.18 178.38 90.53 176.3 83.36 178.94 90.99 179.23 83.36 179.52 90.53 182.16 83.18 180.08 89.18 184.8 82.83 180.55 87.08 186.9 82.36 180.9 84.44 188.25 81.81 181.08 81.51 188.71 81.22 181.08 78.58 188.25 80.66 180.9 75.94 186.9 80.19 180.55 73.84 184.8 79.84 180.08 72.5 182.16 79.66 179.52 72.03 179.23 79.66 178.94 72.5 176.3 79.84 178.38 73.84 173.66 80.19 177.91 75.94 171.56 80.66 177.56 78.58 170.21 81.22 177.38 81.51 169.75"/></g></g></svg>