<svg xmlns="http://www.w3.org/2000/svg" viewBox="0 0 139.01 138.5"><defs><style>.cls-1{fill:none;stroke:#000;stroke-miterlimit:10;stroke-width:0.5px;}</style></defs><g id="Capa_2" data-name="Capa 2"><g id="Capa_1-2" data-name="Capa 1"><path class="cls-1" d="M69.5.25C31.26.25.25,29.33.25,65.19v73.06H138.76V65.19C138.76,29.33,107.75.25,69.5.25Z"/><path d="M6.65,81v-.26a1,1,0,0,0,1-1V60.09a1,1,0,0,0-1-1v-.26H18.34V60h-.27a.89.89,0,0,0-.89-.89H10.05a.94.94,0,0,0-1,1v9.84a1.28,1.28,0,0,0,1.26,1.28h3.46a1.28,1.28,0,0,0,1.29-1.28h.27v2.8H15.1a1.29,1.29,0,0,0-1.29-1.29H10.35a1.29,1.29,0,0,0-1.26,1.29v7a.94.94,0,0,0,1,1h7.13a.89.89,0,0,0,.89-.89v0h.27V81Z"/><path d="M20.71,79.2V60.65a1.52,1.52,0,0,0-1.55-1.52v-.26h3.07L28.66,79A.19.19,0,0,0,29,79V60.65a1.52,1.52,0,0,0-1.52-1.52v-.26h3.33v.26a1.52,1.52,0,0,0-1.55,1.52V79.2a1.54,1.54,0,0,0,1.55,1.52V81h-3.1l-6.4-20.16a.21.21,0,0,0-.4.06V79.2a1.54,1.54,0,0,0,1.55,1.52V81H19.16v-.26A1.54,1.54,0,0,0,20.71,79.2Z"/><path d="M8.2,104.49V85.94a1.52,1.52,0,0,0-1.55-1.52v-.26H9.72l6.44,20.16a.19.19,0,0,0,.36-.06V85.94A1.51,1.51,0,0,0,15,84.42v-.26h3.34v.26a1.52,1.52,0,0,0-1.55,1.52v18.55A1.54,1.54,0,0,0,18.34,106v.27H15.23L8.83,86.1a.21.21,0,0,0-.4.07v18.32A1.55,1.55,0,0,0,10,106v.27H6.65V106A1.54,1.54,0,0,0,8.2,104.49Z"/><path d="M19.16,84.16h3.33v.26a.92.92,0,0,0-.89,1v19.73a.85.85,0,0,0,.89.89v.27H19.16V106a1,1,0,0,0,1-1V85.38a.91.91,0,0,0-.3-.7,1,1,0,0,0-.66-.26Z"/><path d="M25.17,104.49V85.94a1.53,1.53,0,0,0-1.56-1.52v-.26h3.07l6.44,20.16a.19.19,0,0,0,.36-.06V85.94A1.51,1.51,0,0,0,32,84.42v-.26H35.3v.26a1.52,1.52,0,0,0-1.55,1.52v18.55A1.54,1.54,0,0,0,35.3,106v.27H32.2L25.79,86.1a.2.2,0,0,0-.39.07v18.32A1.54,1.54,0,0,0,27,106v.27H23.61V106A1.55,1.55,0,0,0,25.17,104.49Z"/><path d="M47.71,83.63h.36v2H47.8a1,1,0,0,0-.92-1l-.17,0h-.46a9,9,0,0,0-6.53,2.61c-.13.1-.23.23-.36.33a9.33,9.33,0,0,0-2.28,6.77v.23a12.61,12.61,0,0,0,11.38,11.39,7.71,7.71,0,0,0,1.52,0c5.09-.36,8.85-4.85,9.08-9.87a3.54,3.54,0,0,0-.36-2.14A2.76,2.76,0,0,0,56,92.57a2.82,2.82,0,0,0-2.25,2.05c-.13.49-.13,1-.23,1.48a2.78,2.78,0,0,1-1.22,1.65,7.9,7.9,0,0,0-.89.56,2.16,2.16,0,0,0-.63,1.52h-.26V96.5h.26a1,1,0,0,0,.89,1,1.32,1.32,0,0,0,1.19-.59,3,3,0,0,0,.46-1.32,9.92,9.92,0,0,1,.27-1.36,3,3,0,0,1,5.57-.09,4.53,4.53,0,0,1,.17,2.31A11.63,11.63,0,1,1,47.71,83.63Z"/><path d="M64,84.16v.23a.94.94,0,0,0-.86,1V101a5.57,5.57,0,0,0,5.22,5.62h.33a6.79,6.79,0,0,0,6.77-6.8V86.1a1.71,1.71,0,0,0-1.72-1.71v-.23H77v.23a1.35,1.35,0,0,0-1.35,1.35v14a7,7,0,1,1-14,0V85.34a1,1,0,0,0-.29-.66.86.86,0,0,0-.66-.29v-.23Z"/><path d="M79.61,104.49V85.94a1.52,1.52,0,0,0-1.55-1.52v-.26h3.07l6.44,20.16a.19.19,0,0,0,.36-.06V85.94a1.51,1.51,0,0,0-1.52-1.52v-.26h3.34v.26a1.52,1.52,0,0,0-1.55,1.52v18.55A1.54,1.54,0,0,0,89.75,106v.27H86.64L80.24,86.1a.21.21,0,0,0-.4.07v18.32A1.55,1.55,0,0,0,81.4,106v.27H78.06V106A1.54,1.54,0,0,0,79.61,104.49Z"/><path d="M90.11,106a1.83,1.83,0,0,0,1.71-1.22L97.7,88a.81.81,0,0,0-.76-1.09l1-2.77h3.27v.26h-.43l7.23,21a1,1,0,0,0,.89.62v.27h-2.81V106a.42.42,0,0,0,.4-.56l-2-5.94a.31.31,0,0,0-.59,0,3.06,3.06,0,0,1-3.37,1.52,3.09,3.09,0,0,1-2.34-3,2.8,2.8,0,0,0-2.38-2.67.37.37,0,0,0-.43.26l-3.23,9.28a.88.88,0,0,0,.82,1.18v.27h-2.8Zm5.84-11a3,3,0,0,1,2.41,3,2.7,2.7,0,0,0,2.77,2.77,2.81,2.81,0,0,0,2.81-2.6,1.21,1.21,0,0,0-.07-.33L99.48,85.15a.25.25,0,0,0-.49,0l-3.3,9.4A.35.35,0,0,0,96,95.05Z"/><path d="M16.39,109.44a6.33,6.33,0,0,1,6.34,6.24,6.43,6.43,0,0,1-6.47,6.43H14.21A6.06,6.06,0,0,0,9.09,125,2.17,2.17,0,0,0,8.8,126v4.36a.85.85,0,0,0,.89.89v.26H6.36v-.26a1,1,0,0,0,.95-1V110.66a.94.94,0,0,0-.95-1v-.27ZM8.8,110.66v12.71a.55.55,0,0,0,.53.56.72.72,0,0,0,.39-.16,6.24,6.24,0,0,1,4.49-1.92h2.18a4.92,4.92,0,0,0,1.48-.2,6.29,6.29,0,0,0,3.24-5.87c0-2.77-1.35-5.12-3.27-5.91a5.2,5.2,0,0,0-1.45-.16H9.69A.91.91,0,0,0,8.8,110.66Z"/><path d="M18.8,131.29a1.84,1.84,0,0,0,1.71-1.22l5.88-16.77a.81.81,0,0,0-.76-1.09l1-2.77h3.27v.27h-.43l7.23,21a1,1,0,0,0,.89.63v.26H34.77v-.26a.42.42,0,0,0,.4-.56l-2.05-5.94a.31.31,0,0,0-.59,0,3,3,0,0,1-5.71-1.52,2.8,2.8,0,0,0-2.38-2.68.38.38,0,0,0-.43.27l-3.23,9.27a.89.89,0,0,0,.82,1.19v.26H18.8Zm5.84-11a3.05,3.05,0,0,1,2.41,3,2.71,2.71,0,0,0,2.77,2.77,2.82,2.82,0,0,0,2.81-2.61,1.3,1.3,0,0,0-.07-.33l-4.39-12.74a.25.25,0,0,0-.49,0l-3.3,9.41A.34.34,0,0,0,24.64,120.33Z"/><path d="M38.13,109.71v-.27h10a6.31,6.31,0,0,1,6.33,6.24,6.23,6.23,0,0,1-3.2,5.54.22.22,0,0,0,.1.4,10,10,0,0,1,8.35,8.25,1.7,1.7,0,0,0,1.69,1.42v.26H58.1v-.26a1.37,1.37,0,0,0,1.36-1.62,9.7,9.7,0,0,0-9.28-7.89,1.63,1.63,0,0,0-.33.07,6.34,6.34,0,0,1-1.81.26H46A6.06,6.06,0,0,0,40.87,125a2.17,2.17,0,0,0-.29,1.09v4.36a.85.85,0,0,0,.89.89v.26H38.13v-.26a1,1,0,0,0,1-1V110.66a1,1,0,0,0-1-1Zm2.45,1v12.71a.55.55,0,0,0,.53.56.72.72,0,0,0,.39-.16A6.24,6.24,0,0,1,46,121.85h2.18a4.6,4.6,0,0,0,1.78-.3,6.47,6.47,0,0,0,2.94-5.77c0-2.77-1.36-5.12-3.27-5.91a5.2,5.2,0,0,0-1.45-.16h-6.7A.91.91,0,0,0,40.58,110.66Z"/><path d="M58.2,109.44H80.31v1.16h-.26a.9.9,0,0,0-.93-.89H72a1,1,0,0,0-.95,1v9.84a1.3,1.3,0,0,0,1.28,1.28h3.47a1.31,1.31,0,0,0,1.29-1.28h.23v2.8h-.23A1.31,1.31,0,0,0,75.79,122H72.32A1.3,1.3,0,0,0,71,123.3v7a1,1,0,0,0,.95,1h7.13a.9.9,0,0,0,.93-.89v0h.26v1.18H68.63v-.26a1,1,0,0,0,1-1V110.66a.88.88,0,0,0-.29-.69.91.91,0,0,0-.66-.26H65.69a.94.94,0,0,0-.89,1V130.4a.83.83,0,0,0,.26.63.88.88,0,0,0,.63.26v.26H62.36v-.26a1,1,0,0,0,1-1V110.66a.91.91,0,0,0-1-1h-3a.9.9,0,0,0-.93.92H58.2Z"/></g></g></svg>