<svg xmlns="http://www.w3.org/2000/svg" viewBox="0 0 154.53 226"><defs><style>.cls-1{fill-rule:evenodd;}</style></defs><g id="Capa_2" data-name="Capa 2"><g id="Capa_1-2" data-name="Capa 1"><path d="M17,72.72h.14a.54.54,0,0,0,.48.55h.29l3.94.09.66,0c.75,0,1.05-.72,1.07-1.4a2.48,2.48,0,0,0-.12-.77,1,1,0,0,0-.89-.64l-.6,0-.75,0-3.55-.06a.42.42,0,0,0-.34.13.48.48,0,0,0-.16.38H17l0-1.84h.13a.52.52,0,0,0,.49.53l5.15.1a.56.56,0,0,0,.36-.14.63.63,0,0,0,.14-.37h.14l0,1.32h-.2A2.39,2.39,0,0,1,23.66,72a2.15,2.15,0,0,1-2.1,2.17h0l-4-.1a.52.52,0,0,0-.5.51h-.13Z"/><path d="M17.16,67.6l.2-1.29h0a.3.3,0,0,0,.3-.39,2.39,2.39,0,0,1-.1-1A2.18,2.18,0,0,1,20,63H20l3.62.61a.53.53,0,0,0,.57-.43l.14,0-.09.51L24,65l-.13,0a.5.5,0,0,0-.39-.59l-.3,0-3.59-.59-.64-.1c-.75-.12-1.15.56-1.26,1.23a1.23,1.23,0,0,0,.8,1.55l.59.09,4,.65a.52.52,0,0,0,.57-.44l.13,0-.29,1.82-.15,0a.54.54,0,0,0-.39-.59l-5.08-.81a.53.53,0,0,0-.57.44Z"/><path d="M21.27,55.05a3.62,3.62,0,0,1,.07-2.67l.05-.12a9.91,9.91,0,0,1,4.05,3.66.26.26,0,0,0,.34.07,3.74,3.74,0,0,0,1.57-1.69,2.44,2.44,0,0,0,.11-1.89,2.33,2.33,0,0,0-1.8-1.48l.2-.45A3.42,3.42,0,0,1,27.49,55v0a3.54,3.54,0,0,1-1.57,1.71l-.07,0a3.27,3.27,0,0,1-2.83.13A3.17,3.17,0,0,1,21.27,55.05Zm1.83,1.39a3.81,3.81,0,0,0,2.11-.18.22.22,0,0,0,.1-.3,10.58,10.58,0,0,0-3.38-3.28.25.25,0,0,0-.27.07.51.51,0,0,0-.08.13l-.09.21A2.55,2.55,0,0,0,21.38,55,2.38,2.38,0,0,0,23.1,56.44Z"/><path d="M22.06,45.87l.69-.2.16.7-.69.2Zm9,9.38.06-.11h0a1.46,1.46,0,0,0,2-.59l.06-.09a1.89,1.89,0,0,0,.11-.25,1.48,1.48,0,0,0-.38-1.47.19.19,0,0,0-.07-.06.61.61,0,0,0-.16-.12l-3-1.78-4.93-2.91-.26-.14a.5.5,0,0,0-.69.2l-.12-.07,1-1.63.12.07a.48.48,0,0,0,.16.69l.25.15,4.53,2.72,3.4,2a1.56,1.56,0,0,1,.66,1.81,1.82,1.82,0,0,1-.13.28l-.39.66a1.62,1.62,0,0,1-2.06.68Z"/><path d="M26.7,44.78a3.58,3.58,0,0,1,.67-2.59l.08-.1a10,10,0,0,1,3.13,4.47.25.25,0,0,0,.31.14,3.69,3.69,0,0,0,1.91-1.29,2.51,2.51,0,0,0,.53-1.83,2.34,2.34,0,0,0-1.43-1.83l.3-.4a3.43,3.43,0,0,1,.58,4.8l0,0a3.58,3.58,0,0,1-1.91,1.32h-.07A3.25,3.25,0,0,1,28,47,3.18,3.18,0,0,1,26.7,44.78Zm1.48,1.76a3.66,3.66,0,0,0,2.09.3.21.21,0,0,0,.17-.27,10.69,10.69,0,0,0-2.56-4,.28.28,0,0,0-.29,0l-.1.1-.14.19a2.54,2.54,0,0,0-.53,1.84A2.34,2.34,0,0,0,28.18,46.54Z"/><path d="M30.54,38.27l.91-.93h0a.31.31,0,0,0,.48-.14,2.16,2.16,0,0,1,.52-.89,2.28,2.28,0,0,1,1.35-.68,2.63,2.63,0,0,1,.84.07l-.39.39a1,1,0,0,0-1-.16s0,0,0,0a2.2,2.2,0,0,0-.64.45,2.35,2.35,0,0,0-.43.63h0a1,1,0,0,0,.2,1.08l.43.42,2.85,2.83a.5.5,0,0,0,.71,0l.1.1-1.29,1.31L35,42.65l0,0A.52.52,0,0,0,35,42l-3.67-3.61a.4.4,0,0,0-.36-.12.46.46,0,0,0-.36.14Z"/><path d="M35.51,34.75A3.65,3.65,0,0,1,36.8,32.4l0,0,.31.38a2.79,2.79,0,0,0-.33.19l-.21.17a2.49,2.49,0,0,0-1,1.66c-.17,1.46,1.18,2.74,3,2.86a3.86,3.86,0,0,0,2.65-.81,2.51,2.51,0,0,0,1-1.65,2.31,2.31,0,0,0-.75-1.94l-.21-.18.39-.31a3.44,3.44,0,0,1-.59,4.8l0,0a3.43,3.43,0,0,1-4.83-.34A3.16,3.16,0,0,1,35.51,34.75Z"/><path d="M39.76,27.88l.16-.7.7.12-.15.7ZM42,28.6l.07.12a.51.51,0,0,0-.12.68l2.9,4.3a.45.45,0,0,0,.65.11l.08.11-1.5,1L44,34.82a.52.52,0,0,0,.15-.7l-2.88-4.27a.51.51,0,0,0-.71-.12l-.07-.11Z"/><path d="M44.49,28.17A3.67,3.67,0,0,1,46.2,26.1l0,0,.23.44a1.9,1.9,0,0,0-.36.12l-.24.12a2.52,2.52,0,0,0-1.24,1.46c-.45,1.4.64,2.91,2.42,3.36a3.81,3.81,0,0,0,2.75-.29A2.53,2.53,0,0,0,51,29.83a2.35,2.35,0,0,0-.38-2l-.17-.21.44-.24A3.45,3.45,0,0,1,49.46,32l0,0a3.44,3.44,0,0,1-4.69-1.23A3.23,3.23,0,0,1,44.49,28.17Z"/><path d="M49.93,22.22l.28-.66.67.24-.28.66Zm2,1.11.06.12a.5.5,0,0,0-.25.65l2.07,4.76a.44.44,0,0,0,.62.22l.06.13-1.66.72,0-.13a.51.51,0,0,0,.28-.65L51,24.42a.51.51,0,0,0-.67-.25l0-.12Z"/><path d="M54.46,23.49l.12-.22a3.61,3.61,0,0,1,2-1.63A3.44,3.44,0,0,1,61,23.72a3.27,3.27,0,0,1-.17,2.43l-.11.22a3.68,3.68,0,0,1-4.67,1.49A3.23,3.23,0,0,1,54.46,23.49Zm.18,2a3.88,3.88,0,0,0,4.53,1.87A2.56,2.56,0,0,0,60.6,26.3l.11-.2a2.33,2.33,0,0,0-.05-2,3.91,3.91,0,0,0-4.54-1.88,2.56,2.56,0,0,0-1.43,1.1l-.1.19A2.28,2.28,0,0,0,54.64,25.52Z"/><path d="M67.18,22.4A3.29,3.29,0,0,1,68,19.88a3.65,3.65,0,0,1,2.43-1.25,3.8,3.8,0,0,1,1.58.18.29.29,0,0,0,.38-.3L72,15.45a.5.5,0,0,0-.53-.44l0-.13,1.8-.21v.14a.5.5,0,0,0-.46.54l1,8.5,0,.29a.5.5,0,0,0,.57.43v.14l-1.32.14,0-.22a3.56,3.56,0,0,1-1.93.8h0A3.52,3.52,0,0,1,67.18,22.4Zm3.89,2.9h0a2.63,2.63,0,0,0,1.8-1.05.49.49,0,0,0,.1-.37l-.48-4.17a.45.45,0,0,0-.18-.34,2.68,2.68,0,0,0-1.9-.62h0A3.09,3.09,0,0,0,68,22.31,3.06,3.06,0,0,0,71.07,25.3Z"/><path d="M76.25,19.34a3.64,3.64,0,0,1,2.49-1h.13a9.88,9.88,0,0,1-1.8,5.14.27.27,0,0,0,.07.35,3.76,3.76,0,0,0,2.17.79A2.42,2.42,0,0,0,81.09,24a2.32,2.32,0,0,0,.66-2.23h.5a3.42,3.42,0,0,1-3.56,3.27h0a3.52,3.52,0,0,1-2.18-.78l-.06-.05a3.23,3.23,0,0,1-1.21-2.56A3.14,3.14,0,0,1,76.25,19.34Zm-.57,2.23a3.8,3.8,0,0,0,1,1.88.24.24,0,0,0,.33,0A10.72,10.72,0,0,0,78.69,19a.27.27,0,0,0-.17-.23.45.45,0,0,0-.14,0h-.24a2.5,2.5,0,0,0-1.8.64A2.36,2.36,0,0,0,75.68,21.57Z"/><path d="M89.06,19.32l1.28.28,0,.22a.15.15,0,0,0,.19.18,3.65,3.65,0,0,1,1.8,0h0a3.38,3.38,0,1,1-1.59,6.56,3.56,3.56,0,0,1-1.41-.68.28.28,0,0,0-.45.14l-.18.75L88,29.93a.51.51,0,0,0,.35.59l0,.11-1.75-.39,0-.13a.61.61,0,0,0,.4-.05.48.48,0,0,0,.22-.3l2.15-9.44.07-.29a.5.5,0,0,0-.39-.59Zm1,1.46-.91,4.08a.51.51,0,0,0,0,.36,2.53,2.53,0,0,0,1.58,1.19h0a3,3,0,0,0,3.42-2.52,3,3,0,0,0-1.92-3.8h0a2.51,2.51,0,0,0-2,.41A.44.44,0,0,0,90.06,20.78Z"/><path d="M98.07,22.71a3.62,3.62,0,0,1,2.67-.08l.12.05a10,10,0,0,1-3.42,4.24.26.26,0,0,0-.06.35,3.74,3.74,0,0,0,1.78,1.47,2.47,2.47,0,0,0,1.89,0,2.3,2.3,0,0,0,1.37-1.88l.47.18a3.42,3.42,0,0,1-4.45,1.88h0a3.61,3.61,0,0,1-1.79-1.47l0-.06a3.27,3.27,0,0,1-.28-2.82A3.15,3.15,0,0,1,98.07,22.71Zm-1.29,1.91a3.78,3.78,0,0,0,.3,2.09.22.22,0,0,0,.31.08,10.61,10.61,0,0,0,3.08-3.55.25.25,0,0,0-.09-.27.42.42,0,0,0-.13-.07l-.21-.08a2.5,2.5,0,0,0-1.92,0A2.37,2.37,0,0,0,96.78,24.62Z"/><path d="M105.36,24.54l1.16.61h0a.29.29,0,0,0,.27.41,2.34,2.34,0,0,1,1,.24,2.28,2.28,0,0,1,1,1.09,2.69,2.69,0,0,1,.18.82l-.49-.25a1,1,0,0,0-.15-1s0,0,0,0a2,2,0,0,0-.62-.47,1.94,1.94,0,0,0-.73-.23h0a1,1,0,0,0-1,.51l-.28.53-1.86,3.55a.5.5,0,0,0,.23.68l-.06.12-1.64-.85.07-.14,0,0a.52.52,0,0,0,.65-.2l2.38-4.57a.42.42,0,0,0,0-.38.46.46,0,0,0-.25-.3Z"/><path d="M107,32.28a.56.56,0,0,0,.7-.09l3-4.22a.54.54,0,0,0-.15-.7l.08-.11,1.07.75h0a.29.29,0,0,0,.22.44,2.4,2.4,0,0,1,1,.37,2.24,2.24,0,0,1,.89,1.23l.07.31a.19.19,0,0,0,.24.18,2.25,2.25,0,0,1,1.76.36,2.19,2.19,0,0,1,.64,3l0,0-2.14,3a.54.54,0,0,0,.14.71l-.08.11-.42-.3-1.08-.77.08-.12a.5.5,0,0,0,.71-.08l.18-.25,2.1-3,.38-.52c.43-.62,0-1.29-.56-1.68a2.36,2.36,0,0,0-.7-.33,1,1,0,0,0-1,.38l-.35.48-2.32,3.28a.54.54,0,0,0,.13.69l-.08.11-.42-.3-1.06-.76.08-.11a.56.56,0,0,0,.7-.09l.17-.26,2-2.74.53-.75c.43-.61,0-1.29-.55-1.68s-1.28-.54-1.74.05l-.35.49-2.31,3.27a.43.43,0,0,0-.08.36.46.46,0,0,0,.22.34l-.08.11-1.51-1.06Z"/><path d="M116.3,36.63a2.08,2.08,0,0,1,1.72-.25,14.11,14.11,0,0,0,3.14.52.31.31,0,0,0,.32-.28,1.26,1.26,0,0,0-.31-1,2,2,0,0,0-2.84,0l-.1-.1a2.13,2.13,0,0,1,3,0A2.34,2.34,0,0,1,122,37a2.24,2.24,0,0,1-.79,1.76l-2.37,2.48a.45.45,0,0,0-.12.33.61.61,0,0,0,.15.34l-.08.08-.92-.87.32-.34c.08-.08,0-.24-.14-.22a2.18,2.18,0,0,1-1.71-.44,2.23,2.23,0,0,1-.89-1.81A2,2,0,0,1,116.3,36.63Zm.22.36a2.65,2.65,0,0,0,.34,3.1,1.09,1.09,0,0,0,.72.33h0a1.94,1.94,0,0,0,1.22-.39L121,37.79a2.06,2.06,0,0,0,.34-.47.19.19,0,0,0-.17-.28A12.71,12.71,0,0,1,118,36.5a2.3,2.3,0,0,0-.58-.07A1,1,0,0,0,116.52,37Z"/><path d="M124.12,38.38l.82,1h0a.29.29,0,0,0,.09.48,2.29,2.29,0,0,1,.83.62,2.16,2.16,0,0,1-.19,3l0,0-2.86,2.3a.54.54,0,0,0-.05.72l-.11.08-.33-.4-.81-1,.1-.09a.51.51,0,0,0,.7.1l.24-.19,2.82-2.29.5-.41c.6-.49.36-1.24-.08-1.77s-1.09-.86-1.68-.42l-.46.38-3.12,2.53a.5.5,0,0,0,0,.71l-.11.09-1.16-1.43.11-.1a.54.54,0,0,0,.7.1l4-3.26a.55.55,0,0,0,.05-.72Z"/><path d="M128.16,45.27a3.62,3.62,0,0,1,2.15,1.59l.06.11a9.82,9.82,0,0,1-5.31,1.22.26.26,0,0,0-.26.24,3.77,3.77,0,0,0,.49,2.26,2.47,2.47,0,0,0,1.49,1.17,2.34,2.34,0,0,0,2.24-.63l.26.43a3.43,3.43,0,0,1-4.67-1.28l0,0a3.64,3.64,0,0,1-.51-2.26l0-.07a3.28,3.28,0,0,1,1.52-2.4A3.21,3.21,0,0,1,128.16,45.27ZM126,46a3.69,3.69,0,0,0-1.06,1.83.22.22,0,0,0,.19.26,10.73,10.73,0,0,0,4.62-.9.26.26,0,0,0,.1-.26l-.06-.14-.12-.19a2.52,2.52,0,0,0-1.51-1.19A2.35,2.35,0,0,0,126,46Z"/><path d="M132.84,51.41l.49,1.21h0a.28.28,0,0,0-.06.48,2.42,2.42,0,0,1,.61.84,2.16,2.16,0,0,1-1.06,2.83l-.05,0-3.41,1.36a.53.53,0,0,0-.26.66l-.12.06-.2-.49-.48-1.21.13,0a.5.5,0,0,0,.63.3l.29-.12L132.71,56l.6-.24c.71-.29.69-1.08.44-1.71s-.8-1.15-1.49-.9l-.55.22L128,54.83a.5.5,0,0,0-.26.66l-.13,0-.69-1.7.14-.06a.54.54,0,0,0,.63.3l4.77-1.95a.53.53,0,0,0,.26-.67Z"/><path d="M134.71,59.21a3.64,3.64,0,0,1,1.55,2.19v0l-.48.12c0-.13,0-.24,0-.38l-.06-.27a2.55,2.55,0,0,0-1.08-1.58c-1.23-.8-3-.15-3.88,1.44a3.83,3.83,0,0,0-.44,2.74,2.47,2.47,0,0,0,1.07,1.58,2.3,2.3,0,0,0,2.07.18l.25-.11.11.48A3.43,3.43,0,0,1,129.75,63v0a3.42,3.42,0,0,1,2.41-4.19A3.22,3.22,0,0,1,134.71,59.21Z"/><path d="M137.33,67.79l-.13,0a.5.5,0,0,0-.55-.42L131.5,68a.45.45,0,0,0-.4.53l-.13,0-.22-1.8h.14a.5.5,0,0,0,.55.45l5.11-.61A.51.51,0,0,0,137,66h.14ZM139,66.15l.56.46-.43.57-.55-.46Z"/><path d="M133.28,69.3a2.1,2.1,0,0,1,1.4,1,14.47,14.47,0,0,0,1.83,2.6.3.3,0,0,0,.43,0,1.27,1.27,0,0,0,.52-1,2,2,0,0,0-2-2v-.14A2.13,2.13,0,0,1,137.58,72a2.35,2.35,0,0,1-.55,1.53,2.21,2.21,0,0,1-1.81.68l-3.43.06a.44.44,0,0,0-.32.15.55.55,0,0,0-.13.34h-.12l0-1.28h.46a.15.15,0,0,0,.06-.26,2.26,2.26,0,0,1-.23-3.43A2,2,0,0,1,133.28,69.3Zm-.09.42a2.64,2.64,0,0,0-2,2.41,1.14,1.14,0,0,0,.27.75l0,0a2,2,0,0,0,1.13.59l3.1-.06a1.78,1.78,0,0,0,.57-.08.19.19,0,0,0,.08-.32,13.17,13.17,0,0,1-1.81-2.6,2.32,2.32,0,0,0-.35-.46A1,1,0,0,0,133.19,69.72Z"/><path d="M146.77,146H7.76V72.69C7.76,36.74,38.94,7.5,77.26,7.5s69.51,29.24,69.51,65.19ZM8.26,145.5h138V72.69c0-35.67-31-64.69-69-64.69s-69,29-69,64.69Z"/><path d="M154.51,226H0V72.82c0-.11,0-.21,0-.32C0,32.52,34.66,0,77.26,0s77.27,32.52,77.27,72.5c0,.11,0,.21,0,.32V226Zm-153-1.5H153V73l0-.54c0-39.15-34-71-75.77-71S1.5,33.35,1.5,72.5v152Z"/><path d="M8.78,209.85v4.94H15v.47H8.78v4.91h6.93v.41h-8V209.43h8v.42Z"/><path d="M25.41,209.41V220.6H24.32L18.06,210.3v10.3H17V209.41h1.09l6.25,10.3v-10.3Z"/><path d="M40.35,209.41V220.6H39.27L33,210.3v10.3H31.92V209.41H33l6.26,10.3v-10.3Z"/><path d="M42.23,220.6V209.42h1.09V220.6Z"/><path d="M53.63,209.41V220.6H52.55L46.29,210.3v10.3H45.2V209.41h1.09l6.26,10.3v-10.3Z"/><path d="M60.52,216.2h4.73a5.29,5.29,0,0,1-5,4.39,4.73,4.73,0,0,1-2.17-.53l-.31-.17-.06,0a.53.53,0,0,1-.17-.12,1.07,1.07,0,0,1-.28-.19A5.73,5.73,0,0,1,55.09,215a5.38,5.38,0,0,1,5.14-5.58,4.8,4.8,0,0,1,2.54.73v0h0v0h0a5.61,5.61,0,0,1,2.44,3.85l-1.05,0a4,4,0,0,0-1.54-3.5s0,0-.08-.05h0l0,0-.29-.15a2.88,2.88,0,0,0-1.17-.24,3.44,3.44,0,0,0-1.43.32A5.57,5.57,0,0,0,57,213c-1.31,2.44-1,5.29.75,6.46l.08,0a1.52,1.52,0,0,0,.36.19,2.7,2.7,0,0,0,1.17.25,3.57,3.57,0,0,0,1.43-.32,5.67,5.67,0,0,0,2.67-2.6c.07-.12.14-.28.21-.43H60.52Z"/><path d="M75.18,209.41s-.07,3.37-.07,6.16c0,3.33-2.31,5-4.26,5h0c-2,0-4.25-1.7-4.25-5,0-2.79-.08-6.16-.08-6.16h1.25v5.26c0,3.43.88,5.11,3.1,5.16s3.1-1.82,3.1-5.16v-5.26Z"/><path d="M85.27,209.41V220.6H84.19L77.93,210.3v10.3H76.84V209.41h1.09l6.26,10.3v-10.3Z"/><path d="M97.13,220.59H95.59l-1.52-4H88.88l-1.53,4h-1L91,209.41h1.52Zm-3.24-4.5-2.41-6.42-2.43,6.42Z"/><path d="M110.75,212.11c0,1.49-1.62,2.86-3.74,2.86h-3v5.61h-1.17V209.43h3.56C108.54,209.42,110.75,210.21,110.75,212.11Zm-1.47-1a2.38,2.38,0,0,0-2.2-1.31h-3v4.84h2.49a3.18,3.18,0,0,0,1.15-.25A2.59,2.59,0,0,0,109.28,211.12Z"/><path d="M120.65,220.59h-1.54l-1.52-4H112.4l-1.53,4h-1l4.61-11.18H116Zm-3.24-4.5L115,209.67l-2.43,6.42Z"/><path d="M129.63,220.55v0h-1.28v0c0-5.43-2.86-5.51-5.42-5.5v5.55h-1.16V209.43h3.55c2.1,0,4.31.78,4.31,2.68,0,1.42-1.47,2.74-3.44,2.86C128.58,215.7,129.63,217.64,129.63,220.55Zm-4.21-5.9a3.13,3.13,0,0,0,1.15-.25,2.59,2.59,0,0,0,1.59-3.28,2.38,2.38,0,0,0-2.2-1.31h-3v4.85h2.49Z"/><path d="M138.91,209.41v.47h-3.83V220.6H134V209.88h-3.88v-.47Z"/><path d="M141,209.85v4.94h6.26v.47H141v4.91H148v.41h-8V209.43h8v.42Z"/><path d="M85.3,54.34c-6.37.1-7.42,1.18-7.31,7.55-.11-6.37-1.19-7.41-7.56-7.3,6.37-.11,7.42-1.19,7.31-7.56C77.85,53.4,78.93,54.44,85.3,54.34Z"/><path d="M137.69,129.15h-5.61v-.71h6c-.08.65.54,1.84-3.59,4.44-2.38,1.5-2,3.59-.68,4.23a2,2,0,0,0,.53.16h.09l.17,0a2.28,2.28,0,0,0,.45,0l.22,0a3.19,3.19,0,0,0,1.83-1.36l.54.55a3.29,3.29,0,0,1-3.3,1.13,2.69,2.69,0,0,1-1.85-1.17v0a2.85,2.85,0,0,1-.31-.6v0h0c-.35-1-.06-2.31,1.7-3.49S137.73,130,137.69,129.15Z"/><path d="M124.09,133c0-2.52,1.55-4.56,3.46-4.56a2.7,2.7,0,0,1,1.45.43l.21.14.15.12a1.54,1.54,0,0,1,.19.17A5.08,5.08,0,0,1,131,133c0,2.52-1.55,4.56-3.45,4.56a2.79,2.79,0,0,1-1.72-.6,0,0,0,0,1,0,0l0,0A5,5,0,0,1,124.09,133Zm1.9,3.4a.34.34,0,0,0,.09.08l.18.11a1.41,1.41,0,0,0,.72.19,1.93,1.93,0,0,0,.9-.24,4.05,4.05,0,0,0,1.68-2c.82-1.87.61-4.06-.46-4.94l0,0c-.07-.06-.15-.1-.22-.15a1.65,1.65,0,0,0-1.62.06,4,4,0,0,0-1.68,2C124.71,133.34,124.92,135.53,126,136.4Z"/><path d="M16.84,136.38h5.61v.71h-6c.07-.65-.54-1.84,3.59-4.44,2.38-1.5,2-3.59.68-4.23a2,2,0,0,0-.53-.16h-.09l-.17,0a2.28,2.28,0,0,0-.45,0l-.22,0a3.19,3.19,0,0,0-1.83,1.36l-.55-.54A3.32,3.32,0,0,1,20.23,128a2,2,0,0,1,.9.29,2.23,2.23,0,0,1,.95.87v0a2.85,2.85,0,0,1,.31.6v0h0c.35,1,.06,2.31-1.7,3.49S16.8,135.54,16.84,136.38Z"/><path d="M30.44,132.53c0,2.52-1.55,4.56-3.46,4.56a2.67,2.67,0,0,1-1.45-.43l-.22-.14-.14-.12a1.54,1.54,0,0,1-.19-.17,5.08,5.08,0,0,1-1.45-3.7C23.53,130,25.08,128,27,128a2.85,2.85,0,0,1,1.72.6,0,0,0,0,1,0,0s0,0,0,0A4.94,4.94,0,0,1,30.44,132.53Zm-1.9-3.4-.09-.08-.18-.11a1.44,1.44,0,0,0-.72-.19,1.83,1.83,0,0,0-.9.25A4,4,0,0,0,25,131c-.82,1.86-.61,4.05.46,4.93l.05,0a1.07,1.07,0,0,0,.22.15,1.65,1.65,0,0,0,1.62-.06,4,4,0,0,0,1.68-2C29.82,132.19,29.61,130,28.54,129.13Z"/><path d="M112.64,190.93v-.3a1.08,1.08,0,0,0,1.08-1.08V167.32a.92.92,0,0,0-.33-.74.93.93,0,0,0-.75-.34v-.3h3.8v.3a1.08,1.08,0,0,0-1.08,1.08v22.23a1.09,1.09,0,0,0,1.08,1.08h8.06a1,1,0,0,0,1-1v0h.3v1.35Z"/><path d="M29.21,189.55,34.55,170a.78.78,0,0,0-.75-1l.86-3.13h2.91v.3h-.38L41,180.15a.29.29,0,0,0,.56,0L44.28,170a.76.76,0,0,0-.75-1l.9-3.13H47.3v.3h-.37l6.41,23.83a.79.79,0,0,0,.75.56v.3H51.63v-.3a.4.4,0,0,0,.37-.52L45.88,167.4a.32.32,0,0,0-.63,0l-3.77,13.68a3,3,0,0,0,0,1.12l2.13,7.87a.75.75,0,0,0,.74.56v.3H41.86v-.3a.41.41,0,0,0,.41-.52L36.15,167.4a.32.32,0,0,0-.63,0l-6.08,22.18a.83.83,0,0,0,.82,1v.3h-2.5v-.3A1.52,1.52,0,0,0,29.21,189.55Z"/><polygon class="cls-1" points="81.51 169.75 81.81 177.38 84.44 170.21 82.36 177.56 87.08 171.56 82.83 177.91 89.18 173.66 83.18 178.38 90.53 176.3 83.36 178.94 90.99 179.23 83.36 179.52 90.53 182.16 83.18 180.08 89.18 184.8 82.83 180.55 87.08 186.9 82.36 180.9 84.44 188.25 81.81 181.08 81.51 188.71 81.22 181.08 78.58 188.25 80.66 180.9 75.94 186.9 80.19 180.55 73.84 184.8 79.84 180.08 72.5 182.16 79.66 179.52 72.03 179.23 79.66 178.94 72.5 176.3 79.84 178.38 73.84 173.66 80.19 177.91 75.94 171.56 80.66 177.56 78.58 170.21 81.22 177.38 81.51 169.75"/></g></g></svg>