<svg xmlns="http://www.w3.org/2000/svg" viewBox="0 0 251 251"><defs><style>.cls-1,.cls-2{fill:none;stroke:#fff;stroke-miterlimit:10;}.cls-1{stroke-width:0.4px;}.cls-2{stroke-width:0.75px;}.cls-3,.cls-5{fill:#fff;}.cls-3{fill-rule:evenodd;}.cls-4{fill:#eeeeec;}</style></defs><g id="Capa_2" data-name="Capa 2"><g id="Capa_1-2" data-name="Capa 1"><circle cx="125.5" cy="125.5" r="125.5"/><circle class="cls-1" cx="125.5" cy="125.5" r="70.88"/><circle class="cls-2" cx="125.5" cy="125.5" r="76.5"/><polygon class="cls-3" points="125.5 64.64 127.39 113.63 144.32 67.62 130.96 114.78 161.27 76.26 134 117 174.74 89.73 136.22 120.04 183.4 106.7 137.38 123.62 186.36 125.5 137.38 127.39 183.4 144.32 136.22 130.96 174.74 161.27 134 134 161.27 174.74 130.96 136.22 144.32 183.4 127.39 137.38 125.5 186.36 123.62 137.38 106.7 183.4 120.04 136.22 89.73 174.74 117 134 76.26 161.27 114.78 130.96 67.62 144.32 113.63 127.39 64.64 125.5 113.63 123.62 67.62 106.7 114.78 120.04 76.26 89.73 117 117 89.73 76.26 120.04 114.78 106.7 67.62 123.62 113.63 125.5 64.64"/><path class="cls-4" d="M252,118.66l-17.19,6-1.13-3.26,2.83-1.18a6.13,6.13,0,0,1-3.27-1.54,7.07,7.07,0,0,1-1.89-2.91A7.48,7.48,0,0,1,231,112a5.72,5.72,0,0,1,1.71-3.23,5.66,5.66,0,0,1-2.41-.85,6.85,6.85,0,0,1-1.85-1.75,7.79,7.79,0,0,1-1.16-2.18,7.6,7.6,0,0,1-.39-3.33,6,6,0,0,1,1.29-3.06,7,7,0,0,1,3.3-2.14l11.14-3.86,1.27,3.68-10.55,3.65a4.22,4.22,0,0,0-2.68,2,3.76,3.76,0,0,0,0,2.86,4.69,4.69,0,0,0,1.35,2,4.59,4.59,0,0,0,2.3,1,6.46,6.46,0,0,0,3-.36l9.35-3.24,1.27,3.68-10.55,3.65a4.21,4.21,0,0,0-2.68,2,3.83,3.83,0,0,0-.05,2.87,4.73,4.73,0,0,0,1.27,1.87,4.65,4.65,0,0,0,2.31,1.12,6.43,6.43,0,0,0,3.33-.38l9.15-3.16Z" transform="translate(-16.35 -16.4)"/><path class="cls-4" d="M217.26,87.21a9.52,9.52,0,0,1-1.84-4.46,7.88,7.88,0,0,1,.76-4.48,10.46,10.46,0,0,1,3.43-3.91,10.59,10.59,0,0,1,4.78-2.06,8,8,0,0,1,4.51.67,10.29,10.29,0,0,1,5.51,7.59,8,8,0,0,1-.75,4.5,11.66,11.66,0,0,1-8.22,6,8.13,8.13,0,0,1-4.51-.68A9.48,9.48,0,0,1,217.26,87.21Zm2.47-1.79A5,5,0,0,0,222,87.23a4.76,4.76,0,0,0,2.79.16,10.06,10.06,0,0,0,5.63-4.09,4.69,4.69,0,0,0,.73-2.71,4.94,4.94,0,0,0-1-2.69,4.53,4.53,0,0,0-5-1.93,8.79,8.79,0,0,0-3.17,1.54,8.63,8.63,0,0,0-2.46,2.55,4.75,4.75,0,0,0-.73,2.68A4.92,4.92,0,0,0,219.73,85.42Z" transform="translate(-16.35 -16.4)"/><path class="cls-4" d="M221.42,63.39,209,76.68l-2.42-2.26,2-2.64a5.73,5.73,0,0,1-3.43.5,6.38,6.38,0,0,1-3.23-1.74,7,7,0,0,1-.73-.81,3.14,3.14,0,0,1-.48-.82l2.73-2.13a5.81,5.81,0,0,0,.49.78,7.46,7.46,0,0,0,.91,1,4.48,4.48,0,0,0,2,1.08,4.7,4.7,0,0,0,2.54-.09A5.87,5.87,0,0,0,212,67.78l6.58-7.05Z" transform="translate(-16.35 -16.4)"/><path class="cls-4" d="M201.87,47.27a9.88,9.88,0,0,1,3.43,3.54,7.78,7.78,0,0,1,.95,4.48,11.81,11.81,0,0,1-5.48,8.54,7.93,7.93,0,0,1-4.43,1,9.38,9.38,0,0,1-4.5-1.55A8.73,8.73,0,0,1,188.63,60a7.28,7.28,0,0,1-.77-4,9.13,9.13,0,0,1,1.49-4.15c.23-.36.47-.7.69-1s.45-.58.65-.79L203,57.84l-1.61,2.51-10.87-7,1.94.55a5.36,5.36,0,0,0-1,3.87,4.41,4.41,0,0,0,2.13,2.94,5.05,5.05,0,0,0,2.69.86,4.67,4.67,0,0,0,2.67-.86,8.71,8.71,0,0,0,2.41-2.62,8.21,8.21,0,0,0,1.32-3.26,4.73,4.73,0,0,0-.41-2.81,5.33,5.33,0,0,0-2-2.14,5.54,5.54,0,0,0-2.85-1,4.85,4.85,0,0,0-2.54.66l-1.82-2.9a7.45,7.45,0,0,1,2.71-1,7.61,7.61,0,0,1,3,.19A10.28,10.28,0,0,1,201.87,47.27Z" transform="translate(-16.35 -16.4)"/><path class="cls-4" d="M167.39,55.09a2.74,2.74,0,0,1,1.68,1.16,2.36,2.36,0,0,1,.14,1.92,2.31,2.31,0,0,1-1.15,1.52,2.77,2.77,0,0,1-2,0,2.69,2.69,0,0,1-1.66-1.14,2.31,2.31,0,0,1-.14-1.9,2.33,2.33,0,0,1,1.16-1.53A2.68,2.68,0,0,1,167.39,55.09Zm-1-3.48,5.16-17.44,3.73,1.11-5.16,17.44Z" transform="translate(-16.35 -16.4)"/><path class="cls-4" d="M163.14,31.9,161,50l-3.43-.41.3-4.72.44.56a6.7,6.7,0,0,1-1.76,2.41A5.63,5.63,0,0,1,154.1,49a8.45,8.45,0,0,1-2.85.14A7.9,7.9,0,0,1,147.89,48a5.73,5.73,0,0,1-2.18-2.51,7.21,7.21,0,0,1-.46-3.86L146.63,30l3.86.46-1.23,10.51c-.21,1.78,0,3.06.66,3.83a3.92,3.92,0,0,0,2.64,1.36,5.13,5.13,0,0,0,2.38-.29A4.63,4.63,0,0,0,157,44.25a6.37,6.37,0,0,0,1.13-3.2l1.13-9.61Z" transform="translate(-16.35 -16.4)"/><path class="cls-4" d="M128.29,49.11l-.22-3,13.06-1,.22,3Zm4,8.17a8.12,8.12,0,0,1-2.06-.08,3.74,3.74,0,0,1-1.45-.53l.52-2.85a3.06,3.06,0,0,0,.94.31,4.42,4.42,0,0,0,1.17,0,3.64,3.64,0,0,0,2.29-.86,2.73,2.73,0,0,0,.68-2.31l-.19-2.65-.19-1-1.24-16.83,3.88-.29L138.13,51a7,7,0,0,1-.23,2.5,4.52,4.52,0,0,1-1.12,1.92,5.62,5.62,0,0,1-1.93,1.28A8.49,8.49,0,0,1,132.25,57.28Z" transform="translate(-16.35 -16.4)"/><path class="cls-4" d="M118.16,51.79a9.41,9.41,0,0,1-4.82.09,7.81,7.81,0,0,1-3.9-2.34,10.59,10.59,0,0,1-2.4-4.62,10.64,10.64,0,0,1-.17-5.2,7.89,7.89,0,0,1,2.26-3.95,10.32,10.32,0,0,1,9.07-2.38,8,8,0,0,1,3.92,2.35,10.3,10.3,0,0,1,2.41,4.61,10.4,10.4,0,0,1,.16,5.2,8,8,0,0,1-2.27,4A9.63,9.63,0,0,1,118.16,51.79Zm-.77-3a5,5,0,0,0,2.5-1.42,4.74,4.74,0,0,0,1.16-2.54,8.74,8.74,0,0,0-.28-3.54,8.88,8.88,0,0,0-1.48-3.2A4.78,4.78,0,0,0,117,36.46a5,5,0,0,0-2.88,0,4.56,4.56,0,0,0-3.62,4,8.79,8.79,0,0,0,.28,3.52,8.75,8.75,0,0,0,1.48,3.22,4.8,4.8,0,0,0,2.24,1.65A4.87,4.87,0,0,0,117.39,48.83Z" transform="translate(-16.35 -16.4)"/><path class="cls-4" d="M45,84.49l16.68,7.23-1.37,3.17-2.88-1a6.12,6.12,0,0,1,1.37,3.35,7.15,7.15,0,0,1-.57,3.42,7.51,7.51,0,0,1-2.26,3,5.71,5.71,0,0,1-3.44,1.22,5.63,5.63,0,0,1,1.2,2.26,7,7,0,0,1,.19,2.54,8.32,8.32,0,0,1-.62,2.39,7.56,7.56,0,0,1-2,2.72,5.84,5.84,0,0,1-3,1.38,6.94,6.94,0,0,1-3.88-.65L33.6,110.76l1.55-3.57,10.24,4.44a4.22,4.22,0,0,0,3.36.3,3.77,3.77,0,0,0,2-2.08,4.53,4.53,0,0,0,.36-2.4,4.47,4.47,0,0,0-1-2.31,6.38,6.38,0,0,0-2.5-1.8l-9.08-3.93,1.55-3.57,10.25,4.44a4.16,4.16,0,0,0,3.35.3,3.77,3.77,0,0,0,2-2.08A4.61,4.61,0,0,0,55,93.88a6.36,6.36,0,0,0-2.71-2l-8.88-3.85Z" transform="translate(-16.35 -16.4)"/><path class="cls-4" d="M42.17,132.93a3.82,3.82,0,0,0,2.92-.65,3.71,3.71,0,0,0,1.32-2.61A5,5,0,0,0,46,126.8a4.46,4.46,0,0,0-2.25-2l1.76-3.09a6.53,6.53,0,0,1,3.21,3.12,9.18,9.18,0,0,1,.71,5.34,9.84,9.84,0,0,1-1.16,3.75,5.93,5.93,0,0,1-2.43,2.36,6.37,6.37,0,0,1-3.73.52l-8.05-1a1.2,1.2,0,0,0-1.5,1.18,4.57,4.57,0,0,0,0,1.28l-2.64-.54a4.85,4.85,0,0,1-.15-2.14,5,5,0,0,1,.67-2,3.29,3.29,0,0,1,1.44-1.3,3.89,3.89,0,0,1,2.17-.26l.25,0-.06.8a4.41,4.41,0,0,1-2.16-1.62A6.49,6.49,0,0,1,31,128.73a8.62,8.62,0,0,1,.78-5.75A4.76,4.76,0,0,1,33.7,121a4.7,4.7,0,0,1,2.82-.44,4.47,4.47,0,0,1,3.16,1.72,7.17,7.17,0,0,1,1.32,4l.52,7.17-2.7-.36-.44-5.22a6,6,0,0,0-.55-2.38,1.85,1.85,0,0,0-1.5-1,1.94,1.94,0,0,0-1.7.59,3.27,3.27,0,0,0-.84,2,6.63,6.63,0,0,0,0,1.78,4.74,4.74,0,0,0,.52,1.62,3.47,3.47,0,0,0,1.13,1.22,4.4,4.4,0,0,0,1.82.6Zm15.69-1-.47,3.9-5.63-4.31.36-3Z" transform="translate(-16.35 -16.4)"/><path class="cls-4" d="M30.25,151.84a11.61,11.61,0,0,1,.62-5.06A8.48,8.48,0,0,1,33.53,143l2.55,2.48A6,6,0,0,0,33.91,148a6.85,6.85,0,0,0-.57,3.68,5.19,5.19,0,0,0,.81,2.6,1.86,1.86,0,0,0,2.89.27,3.25,3.25,0,0,0,.66-1.79l.47-3.87a7.72,7.72,0,0,1,1.5-4.3A4.57,4.57,0,0,1,42.84,143a4.82,4.82,0,0,1,2.83.63A6.19,6.19,0,0,1,47.94,146a9.51,9.51,0,0,1,1.13,4,10.28,10.28,0,0,1-.55,4.72A6.81,6.81,0,0,1,46,157.9l-2.48-2.48a4.53,4.53,0,0,0,2-2.22,5.89,5.89,0,0,0,.46-2.85,6.27,6.27,0,0,0-.46-2,3,3,0,0,0-.91-1.2,1.81,1.81,0,0,0-1.24-.33,1.76,1.76,0,0,0-1.22.66,3.91,3.91,0,0,0-.66,2l-.5,4.2a6.52,6.52,0,0,1-1.4,3.83,4.3,4.3,0,0,1-2.86,1.33,5.28,5.28,0,0,1-3.14-.64,5.73,5.73,0,0,1-2.28-2.43A10.42,10.42,0,0,1,30.25,151.84Z" transform="translate(-16.35 -16.4)"/><path class="cls-4" d="M55,176.67l-17,6.4-1.37-3.65,17-6.4Zm2.18-2.88a2.73,2.73,0,0,1-.09-2,2.73,2.73,0,0,1,3.35-1.26,3.33,3.33,0,0,1,1.36,3.61,2.36,2.36,0,0,1-1.43,1.26,2.39,2.39,0,0,1-1.93,0A2.68,2.68,0,0,1,57.22,173.79Z" transform="translate(-16.35 -16.4)"/><path class="cls-4" d="M41.27,191.16,57,182l1.74,3-4,2.61.18-.7a6.88,6.88,0,0,1,3,0A5.69,5.69,0,0,1,60.39,188a8.36,8.36,0,0,1,1.83,2.2,7.8,7.8,0,0,1,1.11,3.37,5.63,5.63,0,0,1-.69,3.25,7.14,7.14,0,0,1-2.8,2.69l-10.17,6-2-3.36,9.14-5.35c1.55-.9,2.43-1.85,2.65-2.84A3.84,3.84,0,0,0,59,191a5.17,5.17,0,0,0-1.66-1.73,4.55,4.55,0,0,0-2.5-.7,6.35,6.35,0,0,0-3.23,1l-8.35,4.89Z" transform="translate(-16.35 -16.4)"/><path class="cls-4" d="M80.13,200.48a8.57,8.57,0,0,1,1.18,1.7,3.38,3.38,0,0,1,.44,1.48L79.17,205a3.14,3.14,0,0,0-.31-.94,4.88,4.88,0,0,0-.68-1,3.6,3.6,0,0,0-2.06-1.3,2.71,2.71,0,0,0-2.26.84l-2,1.75-.66.73L58.52,216.22,56,213.29l15.63-13.72a6.84,6.84,0,0,1,2.14-1.32,4.63,4.63,0,0,1,2.2-.27,5.55,5.55,0,0,1,2.18.77A8.7,8.7,0,0,1,80.13,200.48ZM76,208.57l-2.3,2-8.64-9.84,2.3-2Z" transform="translate(-16.35 -16.4)"/><path class="cls-4" d="M84.26,215a9.56,9.56,0,0,1,3,3.78,8,8,0,0,1,.49,4.53,11.82,11.82,0,0,1-6.28,8,7.91,7.91,0,0,1-4.51.59,10.36,10.36,0,0,1-7.38-5.8,8,8,0,0,1-.5-4.54,10.55,10.55,0,0,1,2.22-4.71,10.45,10.45,0,0,1,4-3.27,8.17,8.17,0,0,1,4.53-.58A9.56,9.56,0,0,1,84.26,215Zm-1.89,2.4a5,5,0,0,0-2.65-1.14,4.75,4.75,0,0,0-2.72.62,8.41,8.41,0,0,0-2.65,2.36,8.78,8.78,0,0,0-1.66,3.11,4.7,4.7,0,0,0,0,2.81,5.54,5.54,0,0,0,4.36,3.43,4.84,4.84,0,0,0,2.72-.64,8.84,8.84,0,0,0,2.63-2.35,8.73,8.73,0,0,0,1.67-3.13,4.86,4.86,0,0,0,0-2.78A5,5,0,0,0,82.37,217.43Z" transform="translate(-16.35 -16.4)"/><path class="cls-4" d="M86.72,239.07l8.34-16.16L98,224.43l-1.18,3.07a5.68,5.68,0,0,1,3.17-1.41,6.38,6.38,0,0,1,3.58.8,6.77,6.77,0,0,1,.92.58,3.14,3.14,0,0,1,.69.66l-2.06,2.79a5.18,5.18,0,0,0-.68-.62,8,8,0,0,0-1.14-.69,4.5,4.5,0,0,0-2.24-.48,4.79,4.79,0,0,0-2.43.77,6,6,0,0,0-2,2.39l-4.42,8.57Z" transform="translate(-16.35 -16.4)"/><path class="cls-4" d="M103.8,247.83l3.94-17.76,3.37.75-.48,3a6,6,0,0,1,3-2,7,7,0,0,1,3.47-.09,7.46,7.46,0,0,1,3.34,1.65,5.64,5.64,0,0,1,1.85,3.15,5.66,5.66,0,0,1,2-1.61,7,7,0,0,1,2.46-.66,8.35,8.35,0,0,1,2.46.15,7.46,7.46,0,0,1,3,1.42,5.83,5.83,0,0,1,1.93,2.7,7.07,7.07,0,0,1,.1,3.93L131.75,254l-3.8-.84,2.42-10.91a4.26,4.26,0,0,0-.34-3.35,3.82,3.82,0,0,0-2.42-1.54,4.61,4.61,0,0,0-2.42.1,4.5,4.5,0,0,0-2.09,1.42,6.36,6.36,0,0,0-1.29,2.78l-2.13,9.66-3.8-.84,2.41-10.9a4.18,4.18,0,0,0-.34-3.35,3.76,3.76,0,0,0-2.41-1.54,4.6,4.6,0,0,0-2.26.09,4.67,4.67,0,0,0-2.17,1.38,6.43,6.43,0,0,0-1.41,3l-2.1,9.45Z" transform="translate(-16.35 -16.4)"/><path class="cls-4" d="M151.87,241.39a3.82,3.82,0,0,0-1.19-2.75,3.75,3.75,0,0,0-2.81-.8,5,5,0,0,0-2.74,1,4.38,4.38,0,0,0-1.53,2.59l-3.37-1.15a6.56,6.56,0,0,1,2.46-3.75,9.23,9.23,0,0,1,5.11-1.71,9.76,9.76,0,0,1,3.9.44,5.89,5.89,0,0,1,2.78,1.94,6.33,6.33,0,0,1,1.21,3.56l.57,8.09a1.19,1.19,0,0,0,1.44,1.25,4.43,4.43,0,0,0,1.25-.27l0,2.7a5,5,0,0,1-2.08.54,4.88,4.88,0,0,1-2.12-.27,3.19,3.19,0,0,1-1.54-1.17,4,4,0,0,1-.67-2.08l0-.26.79-.09a4.48,4.48,0,0,1-1.17,2.44,6.68,6.68,0,0,1-2.26,1.54,8.54,8.54,0,0,1-2.69.65,8.23,8.23,0,0,1-3.11-.33,4.47,4.47,0,0,1-3.23-4.19,4.53,4.53,0,0,1,1.09-3.43,7.22,7.22,0,0,1,3.63-2l6.94-1.87.16,2.72-5,1.41a6,6,0,0,0-2.23,1,1.84,1.84,0,0,0-.65,1.65,2,2,0,0,0,.89,1.56,3.38,3.38,0,0,0,2.13.45,7.24,7.24,0,0,0,1.75-.34,4.7,4.7,0,0,0,1.49-.82,3.45,3.45,0,0,0,1-1.34,4.23,4.23,0,0,0,.25-1.9Z" transform="translate(-16.35 -16.4)"/><path class="cls-4" d="M168.41,231.11a9.7,9.7,0,0,1,3.76-.42,7,7,0,0,1,3,1,8.11,8.11,0,0,1,2.27,2.1l-3.13,2.42a5.07,5.07,0,0,0-2.16-2.05,4,4,0,0,0-2.85-.1,5.07,5.07,0,0,0-2.48,1.49,4.66,4.66,0,0,0-1.1,2.57,9.07,9.07,0,0,0,.39,3.52,8.68,8.68,0,0,0,1.56,3.15,4.59,4.59,0,0,0,2.3,1.57,5.67,5.67,0,0,0,4.81-1.07,4,4,0,0,0,1.11-1.57,4.46,4.46,0,0,0,.26-2.06l3.72.17a7.58,7.58,0,0,1-.73,3.19,7.12,7.12,0,0,1-2,2.55,9.36,9.36,0,0,1-3.34,1.67,9.78,9.78,0,0,1-4.89.24,7.89,7.89,0,0,1-4-2.24,11.86,11.86,0,0,1-2.81-9.75,7.86,7.86,0,0,1,2.17-4A9.45,9.45,0,0,1,168.41,231.11Z" transform="translate(-16.35 -16.4)"/><path class="cls-4" d="M180.39,223.67a2.73,2.73,0,0,1-2,.26,2.38,2.38,0,0,1-1.37-1.35,2.28,2.28,0,0,1-.15-1.89,3.33,3.33,0,0,1,3.49-1.65,2.33,2.33,0,0,1,1.36,1.33,2.35,2.35,0,0,1,.16,1.92A2.63,2.63,0,0,1,180.39,223.67Zm3,2,7.74,16.46-3.52,1.65-7.74-16.45Z" transform="translate(-16.35 -16.4)"/><path class="cls-4" d="M190.39,211.07l3.23-2.23.52,7.07-2.45,1.7Zm4.41,7.39a9.48,9.48,0,0,1,4.5-1.74,7.87,7.87,0,0,1,4.47.86,10.4,10.4,0,0,1,3.83,3.52,10.52,10.52,0,0,1,2,4.82,7.91,7.91,0,0,1-.76,4.49,9.54,9.54,0,0,1-3.22,3.6,9.41,9.41,0,0,1-4.49,1.74,8,8,0,0,1-4.49-.85,11.63,11.63,0,0,1-5.78-8.34,8,8,0,0,1,.78-4.5A9.6,9.6,0,0,1,194.8,218.46Zm1.74,2.51a5.08,5.08,0,0,0-1.86,2.2,4.8,4.8,0,0,0-.22,2.78,8.75,8.75,0,0,0,1.48,3.22,8.86,8.86,0,0,0,2.49,2.51,4.82,4.82,0,0,0,2.69.79,5,5,0,0,0,2.71-1,4.89,4.89,0,0,0,1.85-2.19,4.75,4.75,0,0,0,.19-2.79,10,10,0,0,0-4-5.72,4.78,4.78,0,0,0-2.67-.79A4.93,4.93,0,0,0,196.54,221Z" transform="translate(-16.35 -16.4)"/><path class="cls-4" d="M219.11,222.88l-13.49-12.19,2.32-2.56,3.68,3-.72,0a6.77,6.77,0,0,1-.94-2.83,5.57,5.57,0,0,1,.41-2.71,8.29,8.29,0,0,1,1.54-2.41,7.79,7.79,0,0,1,2.88-2.08,5.75,5.75,0,0,1,3.31-.32,7.11,7.11,0,0,1,3.42,1.86l8.74,7.9-2.61,2.89-7.85-7.1c-1.34-1.2-2.51-1.76-3.51-1.67a3.93,3.93,0,0,0-2.64,1.36,5.1,5.1,0,0,0-1.14,2.11,4.54,4.54,0,0,0,.08,2.6,6.44,6.44,0,0,0,1.95,2.77l7.18,6.49Z" transform="translate(-16.35 -16.4)"/><path class="cls-5" d="M245.22,171c-5.91-2.77-7.35-2.24-10.11,3.67,2.76-5.91,2.23-7.36-3.68-10.12,5.91,2.76,7.36,2.24,10.12-3.67C238.79,166.81,239.31,168.25,245.22,171Z" transform="translate(-16.35 -16.4)"/><path class="cls-5" d="M80.52,71.36c-4.45-4.77-6-4.83-10.75-.37,4.76-4.46,4.81-6,.36-10.76,4.45,4.77,6,4.82,10.76.37C76.12,65.05,76.07,66.59,80.52,71.36Z" transform="translate(-16.35 -16.4)"/></g></g></svg>