<svg xmlns="http://www.w3.org/2000/svg" viewBox="0 0 185 185"><defs><style>.cls-1,.cls-2,.cls-3,.cls-4{fill:none;stroke:#fff;stroke-miterlimit:10;}.cls-1{stroke-width:0.75px;}.cls-3{stroke-width:0.4px;}.cls-4{stroke-width:0.5px;fill-rule:evenodd;}.cls-5{fill:#fff;}</style></defs><g id="Capa_2" data-name="Capa 2"><g id="Capa_1-2" data-name="Capa 1"><circle class="cls-1" cx="92.5" cy="92.5" r="56.08"/><circle class="cls-2" cx="92.5" cy="92.5" r="92"/><circle class="cls-3" cx="92.5" cy="92.5" r="51.96"/><polygon class="cls-4" points="92.5 47.88 93.89 83.8 106.29 50.07 96.5 84.64 118.72 56.4 98.73 86.27 128.6 66.28 100.36 88.5 134.94 78.72 101.21 91.13 137.12 92.5 101.21 93.89 134.94 106.29 100.36 96.5 128.6 118.72 98.73 98.73 118.72 128.6 96.5 100.36 106.29 134.94 93.89 101.21 92.5 137.12 91.13 101.21 78.72 134.94 88.5 100.36 66.28 128.6 86.27 98.73 56.4 118.72 84.64 96.5 50.07 106.29 83.8 93.89 47.88 92.5 83.8 91.13 50.07 78.72 84.64 88.5 56.4 66.28 86.27 86.27 66.28 56.4 88.5 84.64 78.72 50.07 91.13 83.8 92.5 47.88"/><path class="cls-5" d="M184.71,87l-12.59,4.36L171.29,89l2.07-.86A4.56,4.56,0,0,1,171,87a5.24,5.24,0,0,1-1.38-2.14,5.39,5.39,0,0,1-.25-2.72,4.17,4.17,0,0,1,1.25-2.36,4.28,4.28,0,0,1-1.77-.63,5.17,5.17,0,0,1-1.36-1.28,6,6,0,0,1-.84-1.6,5.51,5.51,0,0,1-.29-2.44,4.34,4.34,0,0,1,1-2.24A5.08,5.08,0,0,1,169.69,70l8.16-2.83.93,2.7-7.73,2.67a3.15,3.15,0,0,0-2,1.5,2.81,2.81,0,0,0,0,2.1,3.26,3.26,0,0,0,2.68,2.23A4.6,4.6,0,0,0,174,78.1l6.86-2.37.93,2.69L174,81.1a3,3,0,0,0-2,1.5,2.76,2.76,0,0,0,0,2.1,3.49,3.49,0,0,0,.93,1.37,3.35,3.35,0,0,0,1.7.82,4.64,4.64,0,0,0,2.44-.28l6.7-2.32Z" transform="translate(-11.47 -11.53)"/><path class="cls-5" d="M159.25,63.93a7,7,0,0,1-1.35-3.27,5.84,5.84,0,0,1,.56-3.29,8.71,8.71,0,0,1,6-4.37,5.88,5.88,0,0,1,3.3.49,7.61,7.61,0,0,1,4.05,5.57,6,6,0,0,1-.56,3.3,8.58,8.58,0,0,1-6,4.37,5.92,5.92,0,0,1-3.31-.5A7,7,0,0,1,159.25,63.93Zm1.82-1.31A3.68,3.68,0,0,0,162.71,64a3.5,3.5,0,0,0,2,.11,6.3,6.3,0,0,0,2.34-1.14,6.37,6.37,0,0,0,1.79-1.86,3.54,3.54,0,0,0,.54-2,3.74,3.74,0,0,0-.76-2A3.69,3.69,0,0,0,167,55.78a3.53,3.53,0,0,0-2.05-.09,7.48,7.48,0,0,0-4.13,3,3.55,3.55,0,0,0-.53,2A3.61,3.61,0,0,0,161.07,62.62Z" transform="translate(-11.47 -11.53)"/><path class="cls-5" d="M162.32,46.48l-9.11,9.74-1.77-1.66,1.44-1.93a4.22,4.22,0,0,1-2.51.37A4.73,4.73,0,0,1,148,51.72a5,5,0,0,1-.54-.6,2.11,2.11,0,0,1-.35-.6l2-1.56a3,3,0,0,0,.36.57,5.55,5.55,0,0,0,.66.72,3.43,3.43,0,0,0,3.36.72,4.29,4.29,0,0,0,1.91-1.28l4.82-5.16Z" transform="translate(-11.47 -11.53)"/><path class="cls-5" d="M148,34.65a7.22,7.22,0,0,1,2.51,2.6,5.71,5.71,0,0,1,.7,3.28,8.68,8.68,0,0,1-4,6.26,5.89,5.89,0,0,1-3.26.75,6.94,6.94,0,0,1-3.29-1.13A6.44,6.44,0,0,1,138.27,44a5.29,5.29,0,0,1-.57-3,6.67,6.67,0,0,1,1.09-3q.26-.41.51-.75c.17-.23.33-.43.47-.59l9,5.79-1.18,1.84-8-5.11,1.41.4a4,4,0,0,0-.74,2.84,3.25,3.25,0,0,0,1.56,2.16,3.78,3.78,0,0,0,2,.63,3.32,3.32,0,0,0,1.95-.63,6.38,6.38,0,0,0,1.77-1.92,6.12,6.12,0,0,0,1-2.39,3.54,3.54,0,0,0-.3-2.06,3.9,3.9,0,0,0-1.46-1.57,4,4,0,0,0-2.09-.74,3.54,3.54,0,0,0-1.86.48l-1.34-2.12a5.46,5.46,0,0,1,2-.71,5.76,5.76,0,0,1,2.21.14A7.58,7.58,0,0,1,148,34.65Z" transform="translate(-11.47 -11.53)"/><path class="cls-5" d="M122.69,40.38a2,2,0,0,1,1.24.86,1.71,1.71,0,0,1,.1,1.4,1.65,1.65,0,0,1-.84,1.11,2.41,2.41,0,0,1-2.72-.8,1.68,1.68,0,0,1-.1-1.39,1.72,1.72,0,0,1,.85-1.13A2,2,0,0,1,122.69,40.38ZM122,37.83l3.78-12.78,2.74.81-3.78,12.78Z" transform="translate(-11.47 -11.53)"/><path class="cls-5" d="M119.58,23.38,118,36.62l-2.52-.29.22-3.47.33.42A5.06,5.06,0,0,1,114.76,35,4.27,4.27,0,0,1,113,36a6.33,6.33,0,0,1-2.09.1,5.8,5.8,0,0,1-2.47-.84,4.21,4.21,0,0,1-1.6-1.84,5.32,5.32,0,0,1-.33-2.83l1-8.58,2.83.33L109.4,30a3.69,3.69,0,0,0,.49,2.81,2.93,2.93,0,0,0,1.94,1,3.73,3.73,0,0,0,1.74-.21,3.34,3.34,0,0,0,1.52-1.15,4.72,4.72,0,0,0,.83-2.35l.83-7Z" transform="translate(-11.47 -11.53)"/><path class="cls-5" d="M94,36l-.17-2.23,9.57-.71.17,2.24Zm2.9,6a6.26,6.26,0,0,1-1.52-.06,2.56,2.56,0,0,1-1.06-.39l.38-2.08a2.53,2.53,0,0,0,.69.22,3,3,0,0,0,.86,0A2.62,2.62,0,0,0,98,39.08a2,2,0,0,0,.51-1.69l-.14-1.94-.14-.71L97.28,22.4l2.85-.21,1.12,15.21a5.15,5.15,0,0,1-.17,1.83,3.57,3.57,0,0,1-.82,1.41,4.08,4.08,0,0,1-1.42.93A6.09,6.09,0,0,1,96.94,42Z" transform="translate(-11.47 -11.53)"/><path class="cls-5" d="M86.61,38a7.11,7.11,0,0,1-3.54.07,5.94,5.94,0,0,1-2.86-1.72,7.81,7.81,0,0,1-1.75-3.39,7.65,7.65,0,0,1-.13-3.81A5.79,5.79,0,0,1,80,26.22a7.54,7.54,0,0,1,6.65-1.74,5.89,5.89,0,0,1,2.87,1.72,7.53,7.53,0,0,1,1.77,3.38,7.67,7.67,0,0,1,.11,3.82,5.91,5.91,0,0,1-1.66,2.9A7.12,7.12,0,0,1,86.61,38ZM86,35.8a3.66,3.66,0,0,0,1.84-1,3.55,3.55,0,0,0,.85-1.87,6.47,6.47,0,0,0-.21-2.59A6.48,6.48,0,0,0,87.44,28a3.48,3.48,0,0,0-1.66-1.22,3.68,3.68,0,0,0-2.11,0A3.35,3.35,0,0,0,81,29.63a6.56,6.56,0,0,0,.21,2.58,6.55,6.55,0,0,0,1.08,2.36,3.51,3.51,0,0,0,1.64,1.21A3.56,3.56,0,0,0,86,35.8Z" transform="translate(-11.47 -11.53)"/><path class="cls-5" d="M33,61.94l12.23,5.3-1,2.32-2.11-.77a4.54,4.54,0,0,1,1,2.46,5.09,5.09,0,0,1-.42,2.5A5.45,5.45,0,0,1,41,75.93a4.19,4.19,0,0,1-2.53.9,4,4,0,0,1,.88,1.66,5.07,5.07,0,0,1,.14,1.86,6.17,6.17,0,0,1-.45,1.75,5.53,5.53,0,0,1-1.45,2,4.29,4.29,0,0,1-2.21,1,5.09,5.09,0,0,1-2.84-.47l-7.93-3.44,1.13-2.61,7.51,3.25a3.09,3.09,0,0,0,2.46.22,2.78,2.78,0,0,0,1.45-1.52,3.27,3.27,0,0,0-.47-3.46,4.53,4.53,0,0,0-1.82-1.31l-6.66-2.88,1.14-2.62,7.51,3.25a3,3,0,0,0,2.46.22,2.8,2.8,0,0,0,1.44-1.52,3.37,3.37,0,0,0-.45-3.39,4.57,4.57,0,0,0-2-1.44l-6.5-2.82Z" transform="translate(-11.47 -11.53)"/><path class="cls-5" d="M30.9,97.45A2.81,2.81,0,0,0,33,97a2.73,2.73,0,0,0,1-1.91A3.65,3.65,0,0,0,33.7,93a3.25,3.25,0,0,0-1.65-1.46l1.29-2.26a4.78,4.78,0,0,1,2.36,2.29,6.77,6.77,0,0,1,.52,3.91,7.29,7.29,0,0,1-.85,2.75,4.38,4.38,0,0,1-1.79,1.73,4.67,4.67,0,0,1-2.73.38L25,99.58a.87.87,0,0,0-1.1.86,3.29,3.29,0,0,0,0,.94l-1.94-.4a3.58,3.58,0,0,1-.1-1.57,3.65,3.65,0,0,1,.49-1.48,2.3,2.3,0,0,1,1.05-1,3,3,0,0,1,1.6-.19l.18,0,0,.58a3.28,3.28,0,0,1-1.59-1.18,4.89,4.89,0,0,1-.8-1.84,6.32,6.32,0,0,1-.09-2,5.92,5.92,0,0,1,.67-2.19,3.38,3.38,0,0,1,1.39-1.41,3.68,3.68,0,0,1,4.39.93,5.24,5.24,0,0,1,1,2.9l.39,5.25-2-.27-.31-3.82A4.27,4.27,0,0,0,27.72,92a1.35,1.35,0,0,0-1.1-.7,1.39,1.39,0,0,0-1.24.43,2.38,2.38,0,0,0-.62,1.47,4.72,4.72,0,0,0,0,1.3,3.46,3.46,0,0,0,.38,1.19,2.44,2.44,0,0,0,.83.89A3.08,3.08,0,0,0,27.3,97Zm11.51-.76-.35,2.86-4.13-3.16.26-2.17Z" transform="translate(-11.47 -11.53)"/><path class="cls-5" d="M22.17,111.34a8.38,8.38,0,0,1,.45-3.7,6.24,6.24,0,0,1,1.94-2.8l1.88,1.82a4.39,4.39,0,0,0-1.59,1.84,5.11,5.11,0,0,0-.42,2.7,3.78,3.78,0,0,0,.6,1.9,1.35,1.35,0,0,0,2.11.2,2.38,2.38,0,0,0,.49-1.32l.34-2.84a5.63,5.63,0,0,1,1.1-3.14,3.34,3.34,0,0,1,2.32-1.12,3.56,3.56,0,0,1,2.08.46,4.51,4.51,0,0,1,1.66,1.74A7.07,7.07,0,0,1,36,110a7.6,7.6,0,0,1-.41,3.46,5,5,0,0,1-1.81,2.33L31.93,114a3.42,3.42,0,0,0,1.45-1.63,4.32,4.32,0,0,0,.33-2.09,4.48,4.48,0,0,0-.34-1.44,2.29,2.29,0,0,0-.66-.88,1.32,1.32,0,0,0-.91-.24,1.3,1.3,0,0,0-.89.48,2.82,2.82,0,0,0-.49,1.49l-.37,3.09a4.72,4.72,0,0,1-1,2.8,3.19,3.19,0,0,1-2.1,1,3.88,3.88,0,0,1-2.3-.47A4.31,4.31,0,0,1,23,114.27,7.54,7.54,0,0,1,22.17,111.34Z" transform="translate(-11.47 -11.53)"/><path class="cls-5" d="M40.34,129.52l-12.48,4.7-1-2.68,12.47-4.69Zm1.6-2.11a2,2,0,0,1-.07-1.5,1.7,1.7,0,0,1,1.06-.92,1.66,1.66,0,0,1,1.4,0,2,2,0,0,1,.92,1.17,2,2,0,0,1,.07,1.47,1.64,1.64,0,0,1-1,.92,1.77,1.77,0,0,1-1.41,0A1.94,1.94,0,0,1,41.94,127.41Z" transform="translate(-11.47 -11.53)"/><path class="cls-5" d="M30.24,140.13l11.51-6.74L43,135.58l-2.9,1.91.13-.51a5.12,5.12,0,0,1,2.2,0,4.23,4.23,0,0,1,1.8.89,6.19,6.19,0,0,1,1.34,1.61,5.78,5.78,0,0,1,.82,2.47,4.22,4.22,0,0,1-.51,2.38,5.19,5.19,0,0,1-2.06,2l-7.45,4.37L35,148.18l6.69-3.92a3.64,3.64,0,0,0,2-2.08,2.89,2.89,0,0,0-.37-2.14A3.89,3.89,0,0,0,42,138.77a3.45,3.45,0,0,0-1.84-.52,4.77,4.77,0,0,0-2.36.76l-6.13,3.58Z" transform="translate(-11.47 -11.53)"/><path class="cls-5" d="M58.75,147a6.17,6.17,0,0,1,.86,1.24,2.72,2.72,0,0,1,.33,1.08l-1.9,1a2.08,2.08,0,0,0-.23-.69,3.58,3.58,0,0,0-.49-.7,2.65,2.65,0,0,0-1.52-1,2,2,0,0,0-1.65.62l-1.46,1.29-.49.53-9.29,8.17L41,156.38l11.46-10.06a5.08,5.08,0,0,1,1.56-1,3.49,3.49,0,0,1,1.62-.2,4.11,4.11,0,0,1,1.6.57A6.19,6.19,0,0,1,58.75,147Zm-3,5.92L54,154.39l-6.34-7.21,1.68-1.48Z" transform="translate(-11.47 -11.53)"/><path class="cls-5" d="M61.76,157.64a7.11,7.11,0,0,1,2.2,2.77,5.86,5.86,0,0,1,.36,3.32,7.82,7.82,0,0,1-1.64,3.44,7.69,7.69,0,0,1-3,2.41,5.75,5.75,0,0,1-3.31.43A7.57,7.57,0,0,1,51,165.76a5.94,5.94,0,0,1-.37-3.32A7.75,7.75,0,0,1,52.26,159a7.58,7.58,0,0,1,3-2.39,5.88,5.88,0,0,1,3.32-.43A7,7,0,0,1,61.76,157.64Zm-1.38,1.76a3.63,3.63,0,0,0-1.94-.83,3.49,3.49,0,0,0-2,.45,6.24,6.24,0,0,0-1.94,1.73A6.34,6.34,0,0,0,53.29,163a3.52,3.52,0,0,0,0,2.06,3.74,3.74,0,0,0,1.27,1.69,3.59,3.59,0,0,0,1.93.82,3.55,3.55,0,0,0,2-.47,7.37,7.37,0,0,0,3.15-4,3.53,3.53,0,0,0,0-2A3.48,3.48,0,0,0,60.38,159.4Z" transform="translate(-11.47 -11.53)"/><path class="cls-5" d="M63.57,175.27l6.11-11.85,2.16,1.11L71,166.78a4.1,4.1,0,0,1,2.32-1,4.64,4.64,0,0,1,2.62.58,4.86,4.86,0,0,1,.68.43,2.31,2.31,0,0,1,.5.48l-1.5,2a3.85,3.85,0,0,0-.51-.46,5,5,0,0,0-.83-.5,3.34,3.34,0,0,0-1.65-.36,3.56,3.56,0,0,0-1.78.57,4.36,4.36,0,0,0-1.48,1.75l-3.24,6.28Z" transform="translate(-11.47 -11.53)"/><path class="cls-5" d="M76.08,181.67l2.88-13,2.48.55-.36,2.21A4.6,4.6,0,0,1,83.3,170a5.2,5.2,0,0,1,2.54-.06,5.49,5.49,0,0,1,2.45,1.21,4.14,4.14,0,0,1,1.36,2.31,4.06,4.06,0,0,1,1.46-1.18,5.12,5.12,0,0,1,1.81-.49,6.28,6.28,0,0,1,1.8.11,5.79,5.79,0,0,1,2.23,1,4.39,4.39,0,0,1,1.42,2,5.26,5.26,0,0,1,.07,2.89l-1.87,8.43-2.79-.62,1.77-8a3,3,0,0,0-.25-2.46A2.71,2.71,0,0,0,93.54,174a3.3,3.3,0,0,0-3.31,1.11,4.5,4.5,0,0,0-.94,2l-1.57,7.08-2.79-.62,1.77-8a3.1,3.1,0,0,0-.24-2.46,2.83,2.83,0,0,0-1.78-1.13,3.45,3.45,0,0,0-1.65.07,3.56,3.56,0,0,0-1.59,1,4.69,4.69,0,0,0-1,2.23l-1.53,6.92Z" transform="translate(-11.47 -11.53)"/><path class="cls-5" d="M111.35,177a2.78,2.78,0,0,0-.88-2,2.73,2.73,0,0,0-2.06-.59,3.76,3.76,0,0,0-2,.7,3.31,3.31,0,0,0-1.12,1.9l-2.46-.84a4.81,4.81,0,0,1,1.79-2.75,6.83,6.83,0,0,1,3.75-1.25,7.08,7.08,0,0,1,2.86.32,4.32,4.32,0,0,1,2,1.42,4.75,4.75,0,0,1,.89,2.61l.42,5.93a.86.86,0,0,0,1.05.91,2.86,2.86,0,0,0,.92-.2l0,2a3.56,3.56,0,0,1-1.52.41,3.72,3.72,0,0,1-1.55-.2,2.36,2.36,0,0,1-1.13-.86,3,3,0,0,1-.5-1.53v-.18l.58-.07a3.18,3.18,0,0,1-.86,1.78,4.82,4.82,0,0,1-1.66,1.14,6.17,6.17,0,0,1-2,.47,6,6,0,0,1-2.27-.24,3.38,3.38,0,0,1-1.66-1.1,3.35,3.35,0,0,1-.71-2,3.25,3.25,0,0,1,.8-2.51,5.2,5.2,0,0,1,2.66-1.5l5.09-1.38.11,2-3.7,1a4.36,4.36,0,0,0-1.63.73,1.34,1.34,0,0,0-.47,1.21,1.4,1.4,0,0,0,.65,1.14,2.39,2.39,0,0,0,1.56.33,5,5,0,0,0,1.28-.25,3.14,3.14,0,0,0,1.09-.6,2.43,2.43,0,0,0,.72-1,3.22,3.22,0,0,0,.19-1.39Z" transform="translate(-11.47 -11.53)"/><path class="cls-5" d="M123.47,169.41a7,7,0,0,1,2.75-.31,5.09,5.09,0,0,1,2.2.74,6,6,0,0,1,1.67,1.54l-2.29,1.77a3.68,3.68,0,0,0-1.59-1.49,2.91,2.91,0,0,0-2.09-.08,3.78,3.78,0,0,0-1.82,1.09,3.45,3.45,0,0,0-.8,1.89,6.61,6.61,0,0,0,.29,2.58,6.24,6.24,0,0,0,1.14,2.31,3.32,3.32,0,0,0,1.69,1.14,4.16,4.16,0,0,0,3.52-.78,2.93,2.93,0,0,0,.82-1.15,3.37,3.37,0,0,0,.19-1.51l2.72.13a5.53,5.53,0,0,1-.53,2.33,5.39,5.39,0,0,1-1.5,1.88,6.87,6.87,0,0,1-2.45,1.22,7.21,7.21,0,0,1-3.58.17,5.73,5.73,0,0,1-2.93-1.64A7.65,7.65,0,0,1,119,177.9a7.83,7.83,0,0,1-.23-3.8,5.75,5.75,0,0,1,1.6-2.95A7,7,0,0,1,123.47,169.41Z" transform="translate(-11.47 -11.53)"/><path class="cls-5" d="M132.22,164a2,2,0,0,1-1.49.18,1.71,1.71,0,0,1-1-1,1.65,1.65,0,0,1-.11-1.39,2.07,2.07,0,0,1,1.09-1,2,2,0,0,1,1.46-.18,1.68,1.68,0,0,1,1,1,1.71,1.71,0,0,1,.11,1.4A2,2,0,0,1,132.22,164Zm2.24,1.42,5.67,12.07-2.58,1.21-5.68-12.06Z" transform="translate(-11.47 -11.53)"/><path class="cls-5" d="M139.58,154.72l2.37-1.64.38,5.18-1.8,1.25Zm3.24,5.41a7,7,0,0,1,3.29-1.28,5.88,5.88,0,0,1,3.28.63,7.83,7.83,0,0,1,2.81,2.58,7.7,7.7,0,0,1,1.43,3.54,5.87,5.87,0,0,1-.56,3.29,6.94,6.94,0,0,1-2.36,2.64,7.1,7.1,0,0,1-3.29,1.28,6,6,0,0,1-3.29-.63,8.54,8.54,0,0,1-4.24-6.11,6,6,0,0,1,.57-3.3A6.94,6.94,0,0,1,142.82,160.13Zm1.27,1.84a3.62,3.62,0,0,0-1.36,1.61,3.41,3.41,0,0,0-.16,2,7.29,7.29,0,0,0,2.91,4.2,3.44,3.44,0,0,0,2,.58,3.71,3.71,0,0,0,2-.71,3.54,3.54,0,0,0,1.35-1.61,3.48,3.48,0,0,0,.14-2,7.34,7.34,0,0,0-2.91-4.2,3.44,3.44,0,0,0-2-.57A3.61,3.61,0,0,0,144.09,162Z" transform="translate(-11.47 -11.53)"/><path class="cls-5" d="M160.64,163.37l-9.9-8.94,1.7-1.88,2.7,2.19-.53,0a5.06,5.06,0,0,1-.69-2.08,4.21,4.21,0,0,1,.3-2,6.19,6.19,0,0,1,1.13-1.77,5.85,5.85,0,0,1,2.11-1.52,4.2,4.2,0,0,1,2.43-.24,5.26,5.26,0,0,1,2.5,1.37l6.41,5.79-1.91,2.11-5.76-5.2a3.67,3.67,0,0,0-2.57-1.23,2.9,2.9,0,0,0-1.93,1,3.85,3.85,0,0,0-.84,1.54,3.47,3.47,0,0,0,.06,1.91,4.62,4.62,0,0,0,1.44,2l5.26,4.75Z" transform="translate(-11.47 -11.53)"/><path class="cls-5" d="M180,124.65c-4.57-1.4-5.57-.88-7,3.69,1.41-4.57.88-5.56-3.69-7,4.57,1.41,5.57.88,7-3.69C174.93,122.25,175.46,123.25,180,124.65Z" transform="translate(-11.47 -11.53)"/><path class="cls-5" d="M59,52.32c-3.26-3.5-4.39-3.54-7.88-.27,3.49-3.27,3.53-4.39.27-7.89,3.26,3.5,4.39,3.53,7.88.27C55.79,47.7,55.75,48.82,59,52.32Z" transform="translate(-11.47 -11.53)"/></g></g></svg>