<svg xmlns="http://www.w3.org/2000/svg" viewBox="0 0 70 70"><defs><style>.cls-1{fill:#fff;}</style></defs><g id="Capa_2" data-name="Capa 2"><g id="Capa_1-2" data-name="Capa 1"><circle cx="35" cy="35" r="35"/><path class="cls-1" d="M35,62a27,27,0,0,1-.91-54l0,1A26,26,0,1,0,53.5,16.76l.74-.73A27,27,0,0,1,35,62Z"/><path class="cls-1" d="M55.25,25a.51.51,0,0,0,.4-.61L54,16.58l7.72,1.8a.52.52,0,0,0,.63-.38.54.54,0,0,0-.39-.63l-8.52-2a.52.52,0,0,0-.48.13.54.54,0,0,0-.15.48l1.81,8.56a.58.58,0,0,0,.13.26A.52.52,0,0,0,55.25,25Z"/><path class="cls-1" d="M50.5,34.74C37.21,35,35,37.21,35.26,50.5,35,37.21,32.78,35,19.5,35.26,32.79,35,35,32.79,34.74,19.5,35,32.79,37.21,35,50.5,34.74Z"/></g></g></svg>