<svg xmlns="http://www.w3.org/2000/svg" viewBox="0 0 35.55 35.55"><defs><style>.cls-1{fill:#fff;}</style></defs><g id="Capa_2" data-name="Capa 2"><g id="Capa_1-2" data-name="Capa 1"><path class="cls-1" d="M17.77,0A17.78,17.78,0,1,1,0,17.77,17.8,17.8,0,0,1,17.77,0Zm0,34.35A16.58,16.58,0,1,0,1.2,17.77,16.6,16.6,0,0,0,17.77,34.35Z"/><path class="cls-1" d="M17.77,8.79a7.65,7.65,0,0,1,7.48,6.07l-1.18.24a6.44,6.44,0,0,0-12.6,0l-1.17-.25A7.67,7.67,0,0,1,17.77,8.79Z"/><circle class="cls-1" cx="23.92" cy="22.25" r="1.52"/><circle class="cls-1" cx="11.62" cy="22.25" r="1.52"/></g></g></svg>